<svg width="205" height="183" viewBox="0 0 205 183" fill="none" xmlns="http://www.w3.org/2000/svg">
<path d="M30.0178 110.415L56.7617 106.885L56.7741 85.7746C56.7315 85.4139 55.6326 85.0975 55.606 84.0174C55.5759 82.8684 56.5561 82.5308 56.588 82.3911C56.7883 81.5178 56.6057 80.9681 57.0807 79.9198C58.0095 77.871 59.4524 77.5175 60.6258 76.0379C61.6787 74.7085 62.3788 72.7499 63.164 71.242H63.9936L65.6137 74.2135C64.871 58.8572 73.4004 44.7913 86.9266 37.8034C87.5133 37.4994 90.7978 36.2248 90.9112 36.0392C91.0371 35.8359 90.8882 35.0157 90.9786 34.6038C91.1505 33.8172 94.7434 30.0589 95.541 29.0884C97.1913 27.0821 98.8007 25.035 100.408 22.9915L100.504 1.00966L100.724 0.260136C101.075 -0.0898768 103.964 -0.0969478 104.239 0.336149L104.498 23.1701C106.713 25.9047 108.894 28.673 111.136 31.3847C111.783 32.1678 113.731 33.8861 113.927 34.7806C114.011 35.1571 113.878 35.8483 113.993 36.041C114.096 36.2107 117.102 37.3685 117.623 37.6302C131.38 44.5526 140.055 58.9244 139.113 74.3921C139.941 73.9908 140.432 70.6887 141.476 71.4028C141.894 71.6892 143.35 74.8853 143.926 75.6843C145.193 77.4379 146.953 77.9541 147.873 80.2239C148.212 81.0582 148.153 81.7335 148.357 82.3911C148.451 82.6934 148.853 82.8702 149.006 83.1548C149.532 84.1429 148.977 85.1965 148.054 85.695L147.964 106.888L174.707 110.42V101.944C173.144 101.84 171.489 100.509 172.676 98.9442C172.855 98.7074 173.256 98.6225 173.295 98.4652C173.515 97.5795 173.203 96.4942 173.564 95.2426C174.435 92.2251 176.462 91.7849 178.042 89.6406C179.103 88.1981 179.881 86.1811 180.718 84.5849C180.941 84.2808 181.402 84.2808 181.626 84.5849C182.524 86.1051 183.304 88.3961 184.375 89.7431C185.844 91.5904 187.767 92.0748 188.785 94.7052C189.37 96.2166 188.991 97.0528 189.233 98.3202C189.315 98.7392 189.735 98.9089 189.859 99.2836C190.237 100.426 189.554 101.617 188.344 101.767V125.432H192.505C193.417 125.432 193.227 128.497 192.902 129.093C192.853 129.146 192.544 129.318 192.505 129.318H188.344V179.297H204.548C204.598 179.297 204.961 179.477 204.996 179.596L204.949 182.786C204.918 182.831 204.578 183.007 204.548 183.007H0.0886264L0 179.652C0.0478583 179.573 0.480355 179.299 0.531758 179.299H16.559V129.319H12.3971C11.486 129.319 11.6756 126.254 12 125.658C12.0496 125.605 12.3581 125.434 12.3971 125.434H16.559C16.5288 121.167 16.5944 116.892 16.566 112.623C16.5483 109.934 16.3268 107.198 16.3728 104.498C16.3835 103.871 16.8532 102.239 16.3835 101.856C16.0839 101.612 15.6142 101.709 15.1409 101.152C13.7938 99.5683 15.2225 99.2554 15.46 98.4652C15.7542 97.4912 15.421 96.305 15.9403 94.882C16.9631 92.0819 18.6346 91.7372 20.2724 89.8421C21.0328 88.9618 22.8532 84.7705 23.2857 84.5389H23.8192C24.959 86.114 25.5014 88.0885 26.6819 89.6388C28.6104 92.172 31.4393 93.1496 31.613 97.0934C31.6343 97.5866 31.3879 98.2601 31.4216 98.4705C31.4358 98.5606 31.8346 98.7215 32.0065 98.9831C32.9531 100.415 31.5014 101.889 30.016 101.942V110.419L30.0178 110.415ZM108.473 34.1212L102.364 26.7091L96.4309 34.1212C100.396 33.4194 104.503 33.483 108.473 34.1212ZM104.187 37.5153C103.301 37.5771 101.116 37.1882 100.497 37.7362C99.8997 38.2666 98.5916 40.7626 98.1697 41.597C94.0238 49.7851 91.9251 61.4469 92.526 70.5985C92.5402 70.8106 92.6359 71.7016 92.8185 71.7511C93.9316 71.8996 95.1103 71.5849 96.1561 71.5566C100.598 71.4329 105.006 71.5425 109.439 71.7476C110.352 71.79 111.341 71.5743 112.19 71.9173C112.697 63.943 111.738 55.7035 109.229 48.1164C107.991 44.3776 106.327 40.8174 104.187 37.5153ZM88.7913 72.0675L88.6317 64.7561C89.0837 57.6958 90.2979 50.4251 92.9833 43.842C93.648 42.2139 94.552 40.7043 95.1901 39.0673C84.8438 47.0027 79.2586 60.3368 79.9623 73.3279L88.7913 72.0675ZM124.944 73.3297C125.284 65.4986 123.407 57.4978 119.596 50.6708C117.155 46.2974 113.764 42.0248 109.716 39.0673C113.218 46.6174 115.583 54.802 116.097 63.1669C116.28 66.1473 115.964 69.1207 116.168 72.1046L124.946 73.3297H124.944ZM76.0556 74.0262C75.6231 65.0938 77.6562 56.377 81.9936 48.599L85.8028 42.7743C74.9106 49.7321 68.1519 62.4033 69.6905 75.4457L76.0556 74.0244V74.0262ZM135.216 75.4474C136.378 62.9442 130.6 50.6902 120.291 43.6193C120.096 43.4849 119.234 42.8326 119.1 42.9546C125.949 51.8516 129.2 62.7763 128.863 74.012L135.214 75.4474H135.216ZM134.684 79.3347C118.224 75.0497 100.839 74.3231 83.97 76.5311C80.5596 76.9783 77.0784 77.5581 73.7283 78.3271C73.1664 78.4561 70.1212 79.1049 70.0485 79.4319L70.754 81.2757C88.0876 77.1763 106.517 76.5487 124.118 79.3612C127.415 79.888 130.651 80.6198 133.876 81.4577L134.684 79.3329V79.3347ZM67.0317 81.9828C66.1649 80.5403 64.6742 79.6971 63.5788 78.4544C62.8858 79.3948 61.2338 80.4537 60.6488 81.357C60.507 81.5744 60.4308 81.707 60.4804 81.9828H67.0335H67.0317ZM144.426 81.9828C143.837 80.4537 142.148 79.6228 141.063 78.4508C140.452 79.8986 138.254 80.3352 137.873 81.9828H144.426ZM111.838 81.806C107.27 81.4418 102.693 81.4153 98.1059 81.4454L93.0666 81.806V88.3396H111.839V81.806H111.838ZM89.1706 82.1595L80.0828 83.2166C79.9836 83.2502 79.7833 83.7735 79.7833 83.8389V88.3431H89.1688V82.1613L89.1706 82.1595ZM124.944 88.3396V83.4836L115.734 82.1595V88.3413H124.944V88.3396ZM75.8873 88.3396V83.9237C74.8911 84.371 73.0282 84.3356 72.1277 84.8111C71.8335 84.9667 71.4329 85.7693 70.7505 85.6897V88.3396H75.8873ZM133.977 85.6915C133.429 85.764 133.195 85.2513 132.739 85.071C131.598 84.6202 130.033 84.5195 128.842 84.1023V88.3413H133.978V85.6915H133.977ZM67.0317 85.6915H60.6559V94.3446C62.7723 94.615 64.8816 94.2067 67.0317 94.3446V85.6915ZM144.071 85.8683L137.873 85.6915V94.5214H144.071V85.8683ZM27.7153 97.8765C27.7578 96.2325 27.0754 95.1648 25.9463 94.0777C25.2195 93.3776 23.9929 92.8402 23.6384 91.8715C21.9545 93.641 19.0121 94.9951 19.3915 97.8765H27.7153ZM185.513 98.0533C185.724 95.1295 183.015 93.7648 181.174 92.0554C179.515 93.8638 176.655 95.1312 177.189 98.0515H185.513V98.0533ZM74.8237 92.2251H70.7505V98.9354H74.8237V92.2251ZM83.8565 92.2251H78.7197V98.9354H83.8565V92.2251ZM93.9511 92.2251H87.5753V98.9354H93.9511C94.2081 96.6798 93.9334 94.4825 93.9511 92.2251ZM107.057 92.2251H97.8471V98.9354H107.057V92.2251ZM117.329 92.2251H110.776V98.9354H117.329V92.2251ZM126.007 92.2251H121.048V98.9354H126.007V92.2251ZM133.977 92.2251H129.903V98.9354H133.977V92.2251ZM67.0317 98.2301H60.6559V110.769H67.0317V98.2301ZM144.071 98.4068H137.695V110.769H144.071V98.4068ZM26.1217 101.762H20.2777V107.944H26.1217V101.762ZM184.449 101.762H178.605V107.944H184.449V101.762ZM133.977 102.821H70.9295V179.29H73.5865V105.911C73.5865 105.769 73.8683 105.379 74.0899 105.386C76.302 105.495 78.5478 105.52 80.767 105.478C91.3632 105.276 102.023 105.448 112.637 105.435C117.772 105.428 122.875 105.271 128.037 105.478C128.723 105.506 131.321 105.092 131.321 105.913V179.292H133.978V102.823L133.977 102.821ZM127.424 109.179H77.4808V179.292H80.315V112.8C80.315 112.75 80.5898 112.319 80.6695 112.269C84.328 112.091 88.0592 112.199 91.7461 112.188C102.264 112.158 112.885 112.199 123.448 112.174L124.43 112.48L124.591 179.29H127.425V109.178L127.424 109.179ZM148.497 110.767H147.967V112.535H148.497V110.767ZM52.5094 111.122L49.4996 111.474V113.417L52.5129 113.065V111.122H52.5094ZM155.208 111.67L152.395 111.297L152.404 113.054L155.227 113.415L155.21 111.668L155.208 111.67ZM26.1217 111.651H20.2777V125.425H26.1217V111.651ZM184.449 111.651H178.605V125.425H184.449V111.651ZM45.6036 112.181L42.9714 112.559L42.9484 114.301L45.6036 113.949V112.181ZM161.772 112.543L159.125 112.183V113.949L161.782 114.126L161.772 112.543ZM39.0506 113.063L35.1421 113.495C34.8213 113.71 35.0305 114.78 34.9773 115.184L39.0311 114.635L39.0506 113.063ZM169.929 115.184C169.874 114.78 170.085 113.71 169.762 113.495L165.499 113.067L165.519 114.638L169.929 115.186V115.184ZM31.0565 115.688L31.0795 113.949L30.0195 114.126V115.892L31.0565 115.688ZM174.709 114.124H173.644L173.665 115.694L174.706 115.89V114.124H174.709ZM67.0317 114.477H60.6559V115.713H67.0317V114.477ZM144.071 114.477H137.695V115.713H144.071V114.477ZM120.693 115.89H84.211V179.29H85.6291L85.4678 141.075C85.7 139.222 85.5582 137.697 86.0722 135.848C88.1195 128.481 95.596 123.419 102.275 120.555H102.631C108.738 123.261 114.961 127.205 117.836 133.488C118.339 134.589 119.279 137.267 119.279 138.407V179.292H120.695V115.892L120.693 115.89ZM56.9372 121.718V116.243L30.0178 119.599V125.073L56.9372 121.718ZM174.709 119.599L147.969 116.42C147.673 118.191 148.146 119.915 147.799 121.711L174.709 125.073V119.599ZM67.0317 119.422H60.6559V132.844H67.0317V119.422ZM144.071 119.422H137.695V132.844H144.071V119.422ZM115.381 179.292V138.054C115.381 137.196 114.433 134.965 113.995 134.138C111.662 129.737 106.782 126.588 102.362 124.55C98.0368 126.73 92.721 130.164 90.5549 134.667C90.3245 135.148 89.5233 137.31 89.5233 137.7V179.29H90.9396V147.412C93.687 143.338 97.9499 140.797 102.392 138.886C104.537 139.804 106.678 140.833 108.601 142.164C109.904 143.065 112.907 145.584 113.53 146.961C114.068 148.142 113.766 152.045 113.779 153.601C113.834 161.347 113.49 169.318 113.97 177.075C114.016 177.807 113.922 178.558 113.961 179.29H115.379L115.381 179.292ZM30.0178 128.959V179.292H31.0813C30.9767 178.655 31.2249 178.061 31.2656 177.444C31.8594 168.227 30.5353 158.148 31.2514 148.998C31.6574 143.817 36.2943 139.827 40.8196 137.964C40.8196 137.644 40.0591 137.776 39.8482 137.79C37.5297 137.964 34.7947 138.598 32.5578 138.658C31.7247 138.681 31.5209 138.506 31.434 137.702C31.2993 136.457 31.0901 134.844 32.6021 134.624C39.1427 133.673 46.0733 133.617 52.637 132.551C53.8388 132.406 53.502 135.966 53.0323 136.279L44.1856 137.26L48.5974 140.011C50.4284 141.384 52.5076 144.761 52.5076 147.06V179.29H56.7581V125.602L30.016 128.959H30.0178ZM174.709 128.959L147.967 125.604V179.292H152.395C152.427 178.839 152.227 178.424 152.211 177.975C151.955 170.718 152.324 163.324 152.379 156.088C152.43 149.286 150.755 143.705 157.298 139.236C158.363 138.51 159.558 138.038 160.541 137.264L152.083 136.426C151.308 136.07 151.042 132.544 152.267 132.556C155.977 133.12 159.733 133.323 163.463 133.732C166.178 134.029 169.312 134.211 171.949 134.628C172.222 134.672 172.947 134.881 173.119 135.05C173.41 135.335 173.378 137.987 173.128 138.381L172.775 138.598L163.907 137.965C167.614 139.425 171.299 142.378 172.793 146.148C173.05 146.797 173.648 148.574 173.648 149.182V179.293H174.709V128.96V128.959ZM26.1217 129.135C24.1472 129.003 22.2275 129.445 20.2777 129.135V152.8H26.1217V129.135ZM184.449 129.312H178.605V152.8H184.449V129.312ZM67.0317 136.73H60.6559V156.155H67.0317V136.73ZM144.071 136.73H137.695V156.155H144.071V136.73ZM48.6134 151.211V146.884C48.6134 146.625 48.2039 145.459 48.0586 145.141C47.2095 143.258 44.7404 141.757 42.8881 141.004C38.9797 143.138 35.33 145.349 34.9684 150.232L35.151 179.292H36.3918V154.831C37.7921 152.922 39.8783 151.428 41.9398 150.297C42.4219 150.032 43.8967 149.206 44.3168 149.123C45.2704 148.936 47.6137 150.815 48.6116 151.209L48.6134 151.211ZM169.75 179.292V149.357C169.75 148.973 169.17 147.396 168.959 146.965C167.582 144.137 164.531 142.406 161.839 141.008C159.969 141.89 157.705 143.129 156.752 145.05C156.576 145.404 156.112 146.571 156.112 146.884V151.211L160.408 149.122C163.34 150.539 166.322 152.217 168.332 154.831V179.292H169.748H169.75ZM110.067 179.292V148.651C108.085 146.104 105.329 144.258 102.392 142.95C99.5239 144.326 96.7712 146.081 94.8356 148.651V179.292H110.067ZM48.6134 179.292V156.069C48.0674 155.537 45.0116 153.138 44.4798 153.189C42.9696 154.034 41.4665 154.955 40.2896 156.246V179.292H48.6134ZM164.437 179.292L164.577 156.281C164.441 155.818 160.743 153.21 160.274 153.216L156.114 156.067V179.29H164.437V179.292ZM26.1217 156.509H20.2777V179.292H26.1217V156.509ZM184.449 156.686H178.871C178.818 156.686 178.735 156.463 178.605 156.509V179.292H184.449V156.686ZM67.0317 160.041H60.6559V179.29H67.0317V160.041ZM144.071 160.041H137.695V179.29H144.071V160.041Z" fill="#FF2727"/>
</svg>
