<svg width="206" height="136" viewBox="0 0 206 136" fill="none" xmlns="http://www.w3.org/2000/svg">
<path d="M55.5594 54.1947L55.4019 52.3016C55.302 48.4443 56.1061 43.7319 55.6927 39.9486C55.6684 39.722 55.5745 39.4954 55.5443 39.2687C52.6231 39.6253 52.4141 37.5509 53.9694 35.629C54.4343 35.0549 55.6291 34.2738 55.7199 33.6014V19.1288L54.4206 18.5833C53.7801 17.6209 56.0137 15.5933 56.3923 14.652C56.7148 13.8528 56.7103 12.7891 56.998 11.937C58.049 8.82458 61.011 5.81945 63.5066 3.79185C63.8715 2.59372 62.8751 0.0403444 64.715 0.00257248C66.7684 -0.0412429 65.7387 2.57106 66.034 3.90819C67.8512 5.19394 69.9107 7.26686 71.1418 9.14942C72.7213 11.5638 72.5941 14.0975 74.0221 16.2369C74.2053 16.5119 74.5809 16.7159 74.7762 16.9939C75.5955 18.1633 75.3804 18.9731 73.8706 19.029V28.537H100.125C100.221 28.537 100.862 27.4522 101.556 27.2482C102.058 27.0986 104.212 27.1092 104.717 27.2769C105.379 27.4975 105.54 28.4992 106.321 28.5445C111.376 28.679 116.431 28.3889 121.467 28.3798C123.45 28.3753 125.502 28.5068 127.508 28.543C129.047 28.5717 130.593 28.5083 132.13 28.537C132.124 25.7932 132.187 23.0374 132.01 20.3103C131.994 20.0595 132.233 19.298 131.948 19.0577C131.844 18.9701 131.056 18.9565 130.847 18.5743C130.322 17.6164 132.024 16.101 132.489 15.2352C133.101 14.093 133.075 13.052 133.488 11.8554C134.63 8.5496 137.397 6.06723 139.923 3.7843C140.298 2.70251 139.318 0.121932 140.984 0.00861598C143.243 -0.143982 142.103 2.36105 142.5 3.78278C144.525 5.13653 146.015 6.99642 147.32 9.01344C148.94 11.5154 148.824 11.8705 149.651 14.6112C150.158 16.2943 153.559 18.3083 150.284 19.1288L150.287 33.4458C150.373 34.3085 151.318 34.6817 151.883 35.3238C153.565 37.2336 153.524 39.7749 150.288 39.2521L150.44 54.1947H190.313C190.362 54.1947 191.045 54.7582 191.069 54.799C191.404 55.349 190.96 58.3103 191.164 59.1549C194.619 59.791 195.302 63.6256 191.893 65.0035C191.961 67.1096 191.835 69.2249 191.896 71.3295C191.922 72.2058 192.309 73.2302 191.902 74.1156H198.787C198.865 74.1156 199.221 74.732 199.254 74.871C199.455 75.708 197.846 78.0484 197.714 79.0818C197.376 80.0125 194.976 79.2873 194.649 79.5729C194.014 81.6745 192.55 83.4528 191.92 85.5272C191.882 101.549 191.858 117.577 192.053 133.579C193.094 133.357 194.023 133.572 194.997 133.585C198.385 133.635 201.756 133.451 205.139 133.431C206.129 133.617 206.344 135.614 205.378 135.927L0.849783 136.001C-0.157244 135.891 -0.0981854 134.575 0.163793 133.828C0.209223 133.765 0.652921 133.579 0.705922 133.579H13.9472V85.0588L11.1533 79.6967C10.808 79.3387 9.34365 79.6937 8.7576 79.52C7.98226 79.2888 7.65668 77.6964 7.36139 76.9878C7.0873 76.326 6.33468 75.4195 6.56031 74.6776C6.59817 74.5507 7.01612 74.1171 7.06155 74.1171H13.9472L14.0971 64.9113C10.2462 64.5699 11.0669 59.2697 14.5514 59.3256V56.0803C14.5514 55.8189 15.0557 54.1932 15.3843 54.1932H55.5609L55.5594 54.1947ZM68.1192 9.67218C68.1601 9.43648 68.0965 9.32317 67.9754 9.13733C67.8466 8.9394 66.9199 7.94374 66.6882 7.70502C66.1673 7.17017 65.351 6.67762 64.8453 6.06119C64.5954 6.01737 61.5501 9.13129 61.3093 9.67218H68.1192ZM144.688 9.67067L141.285 6.08687C139.971 6.94958 138.981 8.24289 138.031 9.44706L144.688 9.67067ZM59.4936 12.9931H70.0863L69.9182 12.1047L60.0221 12.085C59.5572 12.1198 59.6859 12.6546 59.4936 12.9916V12.9931ZM135.911 12.9931H146.655L146.26 12.0775L136.441 12.0866C136.023 12.153 135.896 12.6244 135.911 12.9931ZM58.2837 16.6147H71.2978L70.6209 15.5465L59.115 15.557L58.2837 16.6147ZM147.391 15.5797L135.249 15.551L134.853 16.6162H147.714L147.391 15.5812V15.5797ZM71.2978 19.0305H58.2837V21.596C59.4028 20.2982 61.0246 20.2483 62.068 21.67C62.2724 21.948 62.233 22.4028 62.5192 22.501C62.7297 20.8466 64.6787 19.8086 66.084 20.8345C66.1415 20.8753 66.9093 21.9042 66.9093 21.9737V28.0867H67.0607V22.427C67.0607 21.8695 68.0723 20.7937 68.6583 20.7001C69.9016 20.5006 70.5634 20.7817 71.2978 21.7471V19.0305ZM147.64 19.0305H134.55V21.8982C134.887 21.6534 135.304 20.8436 135.716 20.7212C136.705 20.4281 137.955 20.7469 138.493 21.6625C138.66 21.9465 138.529 22.3288 138.785 22.3499C139.203 20.209 141.641 19.7029 143.024 21.3694L143.627 22.9528C143.707 20.6532 145.984 19.9794 147.712 21.2938C147.741 20.8617 148.129 19.1816 147.638 19.0305H147.64ZM143.327 33.3672L143.402 27.0276C143.153 27.0276 143.711 29.2229 142.72 29.6686C141.965 30.0071 139.723 29.7245 138.94 29.2939L139.09 33.3688H143.327V33.3672ZM136.517 29.7457C135.629 29.8197 135.162 29.8031 134.55 29.1413V33.3672H136.517V29.7457ZM66.9093 29.4435C66.5095 29.8847 63.2264 29.8439 62.9705 29.6732C62.8191 29.5719 62.913 29.2456 62.6722 29.2924V33.3672H66.9093V29.4435ZM147.867 33.3672V29.2924C147.27 29.9587 146.555 29.717 145.748 29.7442C145.845 30.9786 145.515 32.154 145.748 33.3672H147.867ZM103.983 33.3672V30.5751C103.983 30.5344 103.827 29.8061 103.803 29.7729C103.748 29.6988 102.982 29.4224 102.778 29.513C101.787 29.9466 102.269 32.3882 102.016 33.3688H103.985L103.983 33.3672ZM60.0993 29.7457C59.4452 29.7019 58.744 29.8786 58.1322 29.5946V33.3672H60.0993V29.7457ZM71.4492 33.3672V29.8212L71.2281 29.6309L69.4806 29.7457V33.3672H71.4477H71.4492ZM99.5945 30.8018L97.8 30.974C97.6774 31.7672 97.5714 32.5604 97.6259 33.3688H99.5945V30.8018ZM76.5934 30.9529H74.172V33.1406C74.172 33.1859 73.9812 33.257 74.0206 33.3672H76.442L76.5934 30.9529ZM80.9819 30.9529H79.0148V33.3672C79.6781 33.3627 80.3444 33.3113 80.9819 33.5183V30.9529ZM85.8247 30.9529H83.7062V33.3672C84.4467 33.686 85.0767 33.3763 85.8247 33.3672V30.9529ZM90.3647 30.9529H88.3961L88.2462 33.3672H90.3647V30.9529ZM95.206 30.9529H93.0875V33.3672C93.7901 33.6573 94.4564 33.2509 95.206 33.3672V30.9529ZM108.372 30.9529H106.404V33.3672H108.372V30.9529ZM113.063 30.9529H111.096V33.3672H113.063V30.9529ZM117.753 30.9529H115.634V33.3672H117.753V30.9529ZM122.293 30.9529H120.326V33.3672H122.293V30.9529ZM127.287 33.3672L127.069 31.0934L125.017 30.9514V33.3657H127.287V33.3672ZM131.977 30.9529H129.555V33.3672H131.977C131.844 32.5196 132.295 31.7476 131.977 30.9529ZM149.38 36.6866L148.771 36.0113L58.2004 35.9252C57.5659 35.8813 57.0828 36.3437 56.7693 36.8362L149.378 36.6851L149.38 36.6866ZM60.5536 39.2536H58.1322V49.8177H60.4022L60.5536 39.2536ZM66.9093 39.2536H63.2022C62.648 39.932 63.1416 40.9745 63.1401 41.7435C63.1401 42.9704 62.9811 44.4238 62.969 45.6612C62.9539 47.0467 62.9932 48.4352 62.9751 49.8177H66.9093V39.2536ZM71.4492 39.2536H69.3307L69.1793 49.8177H71.4492V39.2536ZM74.3234 56.3069H131.825L131.977 39.2521C128.168 39.2793 124.355 39.2189 120.545 39.2461C106.265 39.3473 91.8896 39.6072 77.5838 39.2461C76.448 39.2174 75.3047 39.2823 74.1705 39.2521L74.3219 56.3069H74.3234ZM136.82 39.2536H134.55V49.8177H136.82V39.2536ZM143.024 39.2536H139.09V49.8177H143.024V39.2536ZM147.867 39.2536H145.597V49.8177H147.867V39.2536ZM66.9093 52.3831H63.5051C63.4294 52.3831 63.1871 52.1444 62.9751 52.2321V56.458H66.9093V52.3831ZM147.867 52.2321H145.597V56.3069H147.867V52.2321ZM60.4022 52.3831H58.1322V56.458H60.4022V52.3831ZM71.4492 52.3831H69.1793L69.3322 56.3054L71.4492 56.458V52.3831ZM136.82 52.3831H134.55V56.3069H136.82V52.3831ZM143.024 52.3831H139.09V56.3069H143.024V52.3831ZM188.723 56.7601C177.401 56.6771 166.069 56.8689 154.745 56.7677C153.733 56.7586 152.719 56.461 151.651 56.8357C152.617 57.7044 154.062 57.9764 154.45 59.3271H188.723V56.7617V56.7601ZM54.3494 56.7601H17.2757V59.3256H51.6252L51.8644 58.5838L54.3479 56.7601H54.3494ZM80.2248 60.4573V66.8709H80.3762V60.4573C80.3762 60.415 80.8623 59.7774 80.9062 59.7774H86.3532C87.0559 60.5253 86.588 61.459 86.5743 62.2612C86.5516 63.5682 86.4229 65.5746 86.5804 66.7984C86.6152 67.0734 86.5289 67.0417 86.8833 67.022V60.3062C86.8833 60.2684 87.3754 59.7774 87.4133 59.7774H92.8603L93.0875 60.004V67.022H93.3903V60.3062C93.3903 60.2065 93.8764 59.8197 94.0748 59.7819C94.5367 59.6943 98.8661 59.7336 99.1372 59.8574C99.2159 59.8937 99.5945 60.276 99.5945 60.3077V66.7214H99.8974V60.3077C99.8974 59.5356 102.358 59.6097 102.855 59.6217C103.429 59.6353 104.948 59.6943 105.417 59.7834C105.615 59.8212 106.102 60.2095 106.102 60.3077V66.8724L106.411 64.2375C106.656 63.1512 105.729 59.9632 107.228 59.7713C107.748 59.7048 111.942 59.7275 112.154 59.8544C112.232 59.9511 112.457 60.2337 112.457 60.3077V67.0235H112.609V60.3077C112.609 60.276 112.987 59.8937 113.066 59.8574C113.39 59.7094 118.422 59.7094 118.661 59.8544C118.739 59.9511 118.964 60.2337 118.964 60.3077V66.8724H119.116V60.1566C119.346 59.8892 119.605 59.8167 119.946 59.7759C120.757 59.6807 124.234 59.6369 124.944 59.7759C125.066 59.8 125.176 59.8091 125.243 59.9315C125.265 60.0826 125.471 60.3651 125.471 60.4588V66.7214H125.623V60.3077C125.623 60.2654 125.988 59.9421 126.08 59.8574C132.334 59.6021 138.654 59.9269 144.924 59.7864C145.356 59.7774 145.721 59.6338 146.122 59.6217C147.603 59.5764 149.172 59.8318 150.591 59.4027L150.073 59.0129L56.8405 58.8663L55.2596 59.5538C55.4716 59.6852 55.8411 59.7562 56.0924 59.7789C62.2603 60.3273 70.2226 59.7623 76.5131 59.6233C77.5126 59.6006 80.0264 59.2758 80.2263 60.4603L80.2248 60.4573ZM55.258 61.8911H14.7786C14.7165 61.8911 14.2516 62.1842 14.2486 62.3428C14.6559 62.1812 15.2965 62.4954 15.5342 62.4954H55.2565V61.8911H55.258ZM191.22 61.8911H151.877C151.675 61.8911 151.077 62.2794 150.741 62.1948V62.4954H190.766C190.88 62.4954 191.207 62.2446 191.448 62.3443L191.22 61.8926V61.8911ZM71.902 62.1933H57.8294V70.3429C57.9929 70.3988 58.161 70.1918 58.208 70.1918H71.902V62.1933ZM77.8049 62.1933H74.6278L74.6248 70.5726C75.0246 71.6332 75.4077 72.4733 75.2335 73.6623H79.3192C79.0088 73.2786 78.0896 72.7195 77.8882 72.2965C77.1189 70.6738 77.7443 69.1508 77.8124 67.5554C77.8866 65.774 77.7443 63.9716 77.8064 62.1917L77.8049 62.1933ZM148.17 62.1933L134.097 62.3443V69.8156C134.097 69.8625 133.889 70.0302 133.946 70.1933H148.17V62.1948V62.1933ZM81.2848 73.6638H85.6733C85.69 73.4085 85.3432 73.5233 85.1372 73.3692C84.53 72.9114 84.0681 71.4383 84.0166 70.6995C83.9682 70.0151 84.2907 69.1614 84.3165 68.4634C84.3922 66.4358 84.3195 64.3644 84.2226 62.3428L82.7976 62.3459C82.8006 62.6813 82.9445 62.9804 82.9551 63.3189C83.0278 65.4794 83.2246 69.4651 82.9384 71.467C82.84 72.156 82.3766 72.9507 81.8194 73.3692C81.6119 73.5248 81.2666 73.4085 81.2833 73.6638H81.2848ZM87.9433 73.6638H91.8775C90.3692 72.3358 90.3723 70.4925 90.5146 68.6069C90.5494 68.1506 90.7811 67.7729 90.8251 67.2562C90.9613 65.6562 90.7827 63.9429 90.7312 62.3428H89.1532C89.2032 63.4715 89.0896 64.6197 89.1472 65.7468C89.2502 67.7518 90.0543 70.9911 88.8882 72.7195L87.9433 73.6638ZM95.9632 62.3443V71.7767C95.9632 71.8281 95.5558 72.508 95.5104 72.6833L94.4488 73.6623H98.5345L97.4684 72.5382C96.578 70.7917 97.1852 69.2642 97.3306 67.5569C97.4729 65.8919 97.2125 64.0305 97.3245 62.3428H95.9617L95.9632 62.3443ZM103.833 62.3428H102.319C102.001 62.6601 102.649 70.0135 102.461 71.3144C102.37 71.9475 101.852 72.9613 101.342 73.3677C101.142 73.5263 100.788 73.404 100.806 73.6608L105.496 73.8119C105.428 73.5581 105.022 73.62 104.745 73.4312C103.153 72.3433 103.438 69.8972 103.523 68.1476C103.559 67.3907 103.798 66.5038 103.838 65.7453C103.897 64.6182 103.78 63.4699 103.832 62.3428H103.833ZM110.037 62.3428H108.674C108.73 63.7721 108.603 65.2226 108.668 66.6503C108.697 67.2743 108.936 67.992 108.976 68.6084C109.085 70.3157 108.917 72.4445 107.616 73.6608L111.851 73.8119C111.747 73.5158 111.246 73.6306 110.955 73.4251C109.91 72.6863 109.856 70.6466 109.878 69.5059C109.886 69.1493 110.037 68.8185 110.042 68.4619C110.066 66.4237 110.01 64.3795 110.036 62.3428H110.037ZM115.18 62.3443V72.23C115.18 72.2904 114.627 73.1108 114.509 73.2211C114.155 73.5505 113.747 73.4976 113.517 73.8134L117.906 73.5883C116.918 73.2786 116.582 72.2602 116.408 71.3084L116.543 62.3443H115.18ZM121.687 62.3443V72.0789L120.174 73.6638H124.411L123.404 72.8585L122.911 71.4625L123.05 62.3443H121.687ZM131.373 62.3443H128.196V71.4746C128.196 71.6513 127.529 72.8706 127.357 73.0534C127.027 73.4025 126.633 73.2272 126.681 73.6638H130.767C130.879 72.4838 130.831 71.3461 131.379 70.2749L131.373 62.3443ZM28.9269 64.9098L16.5185 65.212V70.6451L28.9269 70.494V64.9098ZM55.258 64.9098H31.5755C31.0424 65.4945 31.4861 66.4192 31.5058 67.0915C31.5407 68.2232 31.468 69.3639 31.4998 70.494H55.2565V64.9098H55.258ZM150.741 64.9098V70.6451L174.498 70.4925C174.081 68.6764 174.516 66.7546 174.498 64.9098H150.739H150.741ZM189.48 65.0609C189.332 65.1092 189.152 64.9098 189.102 64.9098H176.921V70.494L189.48 70.6451V65.0609ZM72.3563 72.7573H57.8294V73.3616H72.3563V72.7573ZM148.32 72.7573H133.717C133.556 72.7573 133.429 73.1849 133.49 73.3616H148.32V72.7573ZM55.1066 73.0595H16.5185V74.1156H51.8523L55.1051 73.0595H55.1066ZM189.48 73.0595H150.742L153.24 74.1156H189.48V73.0595ZM54.0466 76.3804H75.6106C75.6363 76.3804 75.8484 76.1764 75.8378 76.0797C69.8849 76.0253 63.87 75.7292 57.899 75.9196C57.469 75.9332 57.107 76.0631 56.7012 76.0843C55.8986 76.1266 54.6023 75.8153 54.0466 76.3804ZM130.54 76.3804H151.952C151.98 76.1583 151.557 76.1084 151.409 76.0918C147.847 75.7186 143.29 76.0722 139.626 76.0843C136.547 76.0948 133.469 76.0646 130.39 76.0767C130.191 76.0978 130.514 76.3743 130.541 76.3789L130.54 76.3804ZM125.168 76.2293H80.8305V133.579H82.1919V109.206C82.1919 109.015 81.8436 108.618 82.1934 108.227C81.6134 108.184 81.0849 107.826 80.991 107.234C80.7003 105.41 80.9834 101.718 81.303 99.8669C82.946 90.3409 90.4298 82.4889 99.4158 79.2964C100.09 79.0561 101.799 78.4442 102.404 78.3521C103.836 78.1315 106.535 79.1755 107.948 79.7451C114.176 82.2607 120.205 87.5881 122.956 93.7539C124.068 96.2454 124.651 98.9015 125.091 101.583L125.167 76.2293H125.168ZM50.8695 76.5315L10.0099 76.7566L50.7787 76.9847L50.8695 76.53V76.5315ZM154.827 76.9832H194.7L195.607 76.681C189.502 76.6735 183.397 76.6901 177.292 76.6886C176.047 76.6886 174.76 76.6886 173.521 76.6886C167.364 76.6931 161.208 76.6735 155.051 76.6826L154.827 76.9847V76.9832ZM127.74 77.5876V133.579H128.194V126.108C128.667 125.578 129.372 125.745 130.011 125.732C129.899 118.401 130.131 111.085 130.169 103.767C130.207 96.472 130.516 88.6094 130.169 81.2786C130.135 80.5836 129.902 79.8524 129.996 79.112C128.892 79.0516 128.406 78.3188 127.741 77.5876H127.74ZM78.1062 126.712V133.579L78.4167 130.795C78.506 118.706 78.3288 106.608 78.2516 94.5728C78.2152 89.0128 78.2925 83.4483 78.2561 77.8897C77.5974 78.7525 77.2022 79.2223 75.9877 79.0969C75.9846 87.8766 75.9907 96.6594 75.9952 105.441C75.9952 106.293 75.9937 107.145 75.9952 107.992C75.9998 113.906 75.9786 119.821 75.9877 125.733C76.8569 125.662 77.9215 125.665 78.1062 126.714V126.712ZM59.6451 78.9458L56.7693 79.0954L56.9208 81.8135H59.6451V78.9458ZM67.8164 78.9458H62.2179V81.5869L62.445 81.8135H67.8164V78.9458ZM73.4163 78.9458L70.3892 79.0969V81.8135H73.4163V78.9458ZM135.61 79.0969H132.583V81.5869L132.81 81.8135H135.61V79.0969ZM143.478 79.0969H138.183V81.5869L138.41 81.8135H143.48V79.0969H143.478ZM149.077 79.0969H146.05V81.8135H149.077V79.0969ZM54.3494 79.3976L52.5338 79.5487V83.6235H54.3494V79.3976ZM16.67 79.5487H13.9457L15.937 83.4483L16.67 83.4724V79.5487ZM21.3613 79.5487H19.2428V83.6235H21.3613V79.5487ZM26.2042 79.5487H23.9342V83.6235H26.2042V79.5487ZM30.894 79.5487H28.7755V83.4724C29.516 83.7912 30.146 83.4815 30.894 83.4724V79.5487ZM35.7369 79.5487H33.4669V83.6235H35.7369V79.5487ZM40.5797 79.5487H38.3097V83.6235H40.5797V79.5487ZM45.2695 79.5487H42.9996V83.6235H45.2695V79.5487ZM49.9609 79.5487H47.8424V83.6235H49.9609V79.5487ZM151.65 79.5487V83.6235H153.467C153.576 82.2547 153.274 80.9145 153.315 79.5472H151.65V79.5487ZM158.157 79.5487H155.887V83.6235H158.157V79.5487ZM162.998 79.5487H160.728V83.6235H162.998V79.5487ZM167.841 79.5487H165.419V83.6235H167.841V79.5487ZM172.381 79.5487H170.412L170.262 83.6235H172.381V79.5487ZM177.222 79.5487H175.103L174.952 83.6235H177.222V79.5487ZM182.065 79.5487H179.795V83.6235H182.065V79.5487ZM186.605 79.5487H184.638V83.6235H186.605V79.5487ZM191.9 79.5487H189.176V83.6235L189.941 83.3652L191.899 79.5487H191.9ZM84.0091 106.714V101.206C84.0091 101.135 84.2196 100.873 84.2483 100.689C85.5582 92.1328 92.0365 85.2628 100.055 82.3453C101.107 81.9631 102.236 81.6156 103.3 81.3481C108.384 83.0177 113.192 85.503 116.669 89.6021C120.659 94.3084 122.549 100.547 122.143 106.713H122.596C122.726 102.138 122.001 97.0885 119.7 93.0756C116.628 87.7165 109.731 82.3831 103.654 81.0082C102.635 80.7785 101.843 81.1774 100.876 81.5023C94.4897 83.6492 88.8791 88.2815 85.8687 94.3054C84.2665 97.51 83.055 102.96 83.7107 106.485C83.7577 106.732 83.6123 106.743 84.0091 106.713V106.714ZM84.6133 109.582V133.578H121.687V109.582C120.362 109.46 119.534 108.795 119.558 107.39C119.565 107.003 119.712 106.658 119.718 106.335C119.864 98.4951 116.708 91.5602 110.072 87.2526C107.914 85.8521 105.443 84.864 102.999 84.0859C94.6684 86.3899 87.1725 93.689 86.432 102.565C86.2987 104.162 86.7455 107.161 86.329 108.499C86.1261 109.15 85.2342 109.402 84.6148 109.58L84.6133 109.582ZM67.8164 84.2279H62.2179V90.1142H67.8164V84.2279ZM73.4163 84.2279H70.3892V90.1142H73.4163V84.2279ZM135.761 84.2279H132.584V90.1142H135.611L135.763 84.2279H135.761ZM143.478 84.2279L138.183 84.379V90.1142H143.478V84.2279ZM149.077 84.379C149.077 84.1946 146.366 84.4787 146.05 84.379V90.1142H149.077V84.379ZM59.9479 84.379H56.9208V90.1142H59.9479V84.379ZM54.3494 86.0379H16.5185V91.7732H29.2298V88.83C29.2298 88.3873 30.2202 87.9053 30.6608 87.9945C37.6797 88.3752 45.1999 87.508 52.1597 87.9945C52.4883 88.0172 52.8033 88.0927 53.1183 88.1713C53.0789 88.7227 53.3909 89.043 53.4515 89.5749C53.5529 90.4617 53.2955 91.3154 53.2818 92.1433C53.0956 103.383 53.4348 114.642 53.2894 125.881L54.3479 125.732V86.0394L54.3494 86.0379ZM189.48 86.189H151.498L151.65 125.732H152.558V88.8315C152.558 88.7892 152.923 88.4659 153.015 88.3813L175.945 88.2952C176.332 88.1365 176.769 89.0793 176.769 89.2848V91.7747H189.48V86.1905V86.189ZM31.8026 90.566V98.7157L32.4023 97.2758C33.3336 95.2694 34.9479 93.6693 36.6621 92.3171L39.9755 90.5675H31.8041L31.8026 90.566ZM50.8695 90.7171L42.6967 90.6415C45.5951 91.6145 48.0877 93.618 49.6853 96.1985L50.8695 99.1689V90.7171ZM163.149 90.7171H155.129V98.2624L156.88 94.9521L159.769 92.2567L163.149 90.7171ZM174.196 90.7171H166.025L168.621 91.9772C170.583 93.1632 172.007 94.5743 173.012 96.6518L174.196 99.7718V90.7171ZM56.9223 92.6797V98.415H59.9494L59.7768 92.7009C58.85 92.2839 57.8733 92.6888 56.9223 92.6797ZM67.8164 92.5286H62.2179V98.415H67.8164V92.5286ZM73.4163 92.5286H70.3892V98.415H73.4163V92.5286ZM135.61 98.4135L135.692 92.8232C134.748 92.2808 133.597 92.5664 132.584 92.6782V98.4135H135.611H135.61ZM143.478 92.6797H138.183V98.415H143.478V92.6797ZM149.077 92.6797H146.05V98.415H149.077V92.6797ZM33.9212 103.244H48.751C48.4648 99.7355 47.7228 96.7228 44.738 94.6378C44.5593 94.5124 44.1323 94.18 44.049 94.1301C43.8143 93.9911 41.6942 92.9955 41.5579 92.9864C40.1572 92.8792 36.3153 95.8767 35.5173 97.0628C34.324 98.835 34.1938 101.187 33.9227 103.244H33.9212ZM171.775 103.244C171.854 100.681 171.269 98.1189 169.582 96.1487C168.845 95.2875 167.353 94.1619 166.335 93.6527C165.839 93.4034 164.791 92.9879 164.268 93.1043C162.07 93.5908 159.312 95.7302 158.284 97.7109C158.066 98.131 157.249 100.281 157.249 100.603V103.244H171.776H171.775ZM29.2298 94.3387H16.5185L16.3671 99.6207L29.2298 99.4711V94.3402V94.3387ZM189.48 94.3387H176.618V99.243C176.618 99.2807 176.439 99.3638 176.53 99.4711C176.7 99.7189 179.79 99.6373 180.331 99.6267C182.236 99.5874 184.179 99.4847 186.069 99.4635C187.204 99.4499 188.345 99.4862 189.48 99.4696V94.3387ZM59.9479 101.13C59.7995 101.178 59.6193 100.979 59.5693 100.979H56.9208V106.865H59.9479V101.13ZM67.8164 100.98H62.2179V106.867H67.8164V100.98ZM73.4163 100.98C72.3563 101.071 71.4507 101.145 70.3892 100.98V106.867L73.4163 106.716V100.98ZM135.61 100.98H132.583V106.716H135.61V100.98ZM143.478 100.98H138.183V106.716H143.478V100.98ZM149.077 100.98L146.05 101.132V106.716H149.077V100.98ZM29.2298 102.037H16.7457C16.6957 102.037 16.5155 102.236 16.3671 102.188V107.47H29.2298V102.037ZM189.48 102.037H176.618L176.769 107.47H189.48V102.037ZM33.0126 133.579V106.338C33.2958 106.046 33.8939 105.849 34.2967 105.839C37.8281 105.758 41.561 106.191 45.1999 106.119C46.2584 106.098 47.7652 105.788 48.8055 105.861C49.0205 105.876 49.6581 106.167 49.6581 106.34V133.732L50.8695 133.582V105.811L32.1736 105.654L31.7178 105.802L31.6512 133.581H33.0141L33.0126 133.579ZM174.196 105.658H155.129V133.579H156.038C156.065 127.165 156.002 120.746 156.03 114.331C156.037 113.024 156.049 111.729 156.03 110.419C156.017 109.437 155.881 107.497 156.041 106.643C156.255 105.501 157.733 105.948 158.384 105.959C160.617 105.995 162.813 106.12 165.047 106.117C167.229 106.114 169.834 105.655 172.008 105.953C172.564 106.028 172.614 106.306 172.908 106.725L172.983 133.579H174.195V105.658H174.196ZM125.168 107.772C124.791 107.776 124.381 107.876 124.11 108.15V133.579H125.168V107.772ZM47.0852 108.526H35.2826V118.487C35.6066 118.369 35.5809 117.981 35.8035 117.724C35.9761 117.523 36.4698 117.271 36.4955 117.173C36.6576 116.576 36.4032 115.255 36.5061 114.5C36.6954 113.117 38.443 111.344 39.7407 110.934C42.3348 110.118 45.4588 111.854 46.0161 114.495C46.166 115.202 46.0282 116.824 46.2024 117.328C46.2872 117.573 46.9338 117.798 46.9338 117.957V133.578H47.0852V108.524V108.526ZM170.262 108.526H158.611V119.09L158.943 117.987C160.152 117.307 159.527 115.986 159.683 114.802C159.853 113.515 161.568 111.348 162.78 110.949C165.651 110.003 168.88 111.824 169.319 114.826C169.428 115.577 169.205 116.716 169.385 117.325C169.476 117.632 170.262 118.097 170.262 118.564V133.581L170.414 133.053L170.262 108.527V108.526ZM59.9479 109.431H56.9208V117.278H57.3751V113.43C57.3751 113.397 57.7294 112.941 57.7945 112.906C58.4078 112.572 59.271 112.785 59.795 113.203L59.9479 109.431ZM67.8164 109.431H62.2179V116.298C61.5531 116.851 60.6687 116.408 59.9494 116.224V117.28H70.5406V116.224C69.7926 116.583 69.2247 117.098 68.4281 116.594C68.3252 116.529 67.8164 116.041 67.8164 115.997V109.432V109.431ZM73.4163 109.431H70.3892V113.052C70.7875 112.799 71.104 112.292 71.6522 112.339C71.9944 112.369 72.962 112.904 72.962 113.279V117.278H73.4163V109.431ZM135.61 109.431H132.583V117.278H133.037V113.128C133.037 113.042 133.379 112.61 133.494 112.528C134.238 111.999 135.016 112.572 135.61 113.052V109.431ZM143.478 109.431H138.183V115.844C138.183 115.887 137.653 116.41 137.575 116.444C136.856 116.774 136.061 116.278 135.461 115.92V117.278H146.204V116.071C145.812 116.044 145.768 116.444 145.368 116.52C145.117 116.567 144.257 116.571 144.034 116.499C143.843 116.437 143.48 115.66 143.48 115.542V109.429L143.478 109.431ZM149.077 109.431H146.05V113.052C149.473 111.433 148.442 114.178 148.641 116.278C148.662 116.502 148.684 117.431 149.075 117.278V109.431H149.077ZM29.2298 109.884H16.3671V115.242L16.8895 115.476L29.2298 115.317V109.884ZM189.48 109.884H176.618V114.788C176.618 114.865 176.377 115.106 176.468 115.316H189.48V109.884ZM167.841 133.579V119.921C167.841 119.851 167.068 119.289 166.964 118.833C166.653 117.466 167.326 115.964 166.561 114.556C165.318 112.264 162.442 113.456 162.1 115.705C161.968 116.57 162.294 118.327 162.065 118.992C161.985 119.224 161.182 119.588 161.182 119.771V133.581H167.841V133.579ZM44.5139 133.579V119.619C44.5139 119.549 43.7416 118.987 43.6371 118.531C43.4539 117.719 43.7037 116.559 43.6053 115.695C43.2479 112.518 39.2243 112.471 38.7761 115.86C38.6762 116.61 38.9866 118.709 38.5429 119.105C38.4172 119.217 38.1583 119.223 38.1583 119.242V133.579H44.5139ZM29.2298 118.034H16.2157L16.3671 123.467H29.2298V118.034ZM189.48 118.034H176.618C176.821 119.857 176.634 121.637 176.618 123.467H189.48V118.034ZM135.155 119.996H146.354C146.474 119.546 145.981 119.681 145.666 119.688C145.235 119.697 144.868 119.841 144.469 119.853C141.547 119.939 138.602 119.726 135.684 119.847C135.498 119.854 135.122 119.732 135.155 119.998V119.996ZM70.5406 119.845H59.6451V119.996H70.5406V119.845ZM158.761 133.579V120.299H158.609V133.579H158.761ZM35.434 133.428V121.808H35.2826V133.428H35.434ZM70.8435 122.562H59.4936C59.6117 123.671 59.003 124.597 59.1908 125.732H71.2963C70.8147 124.827 70.9813 123.592 70.842 122.562H70.8435ZM146.504 122.562H135.154L135.003 125.732H146.805C146.858 124.638 146.31 123.7 146.502 122.562H146.504ZM29.2298 125.881H16.2157L16.3671 133.578H29.2298V125.881ZM189.48 125.881H176.618V133.578H189.48V125.881ZM75.3835 128.447L54.8037 128.371V133.578H75.3835V128.447ZM150.892 128.447L130.54 128.296C130.291 128.412 130.616 128.752 130.616 128.824V133.579L150.892 133.428V128.448V128.447Z" fill="#FF2727"/>
</svg>
