<svg width="139" height="177" viewBox="0 0 139 177" fill="none" xmlns="http://www.w3.org/2000/svg">
<path d="M85.6799 10.8017C85.8138 10.0447 85.0105 9.92091 84.5749 9.4116C83.5279 8.18726 83.5259 6.00621 84.483 4.71796C84.7308 4.38641 85.6639 3.75527 85.6819 3.67737C85.9716 2.48699 85.2123 0.216065 87.3743 0.0183334C90.2516 -0.245309 89.0907 2.12348 89.5063 3.47964C89.6822 4.05286 91.1468 4.36244 91.4165 5.95828C91.6723 7.46623 91.5424 8.4529 90.5753 9.60933C90.2316 10.0208 89.5023 10.0427 89.6722 10.7977C91.8921 9.5554 93.051 7.52615 91.7063 5.07148C91.0309 3.83915 89.1866 3.30987 89.9739 1.42642C90.9989 -1.02425 95.7265 2.17141 96.5657 3.8052C96.8734 4.40239 97.0073 5.90036 97.0772 5.98624C97.1991 6.13404 98.452 6.00222 99.1373 7.01884C101.433 10.4262 101.393 18.9946 101.433 23.0771C101.441 23.9739 101.715 24.8307 101.647 25.8693C101.593 26.6982 101.03 28.1082 101.06 28.6635C101.077 28.993 101.771 29.8479 101.937 30.3512C102.64 32.4743 102.388 36.1114 100.058 37.154C100.542 37.9729 100.304 38.9775 100.484 39.7844C100.664 40.5913 101.553 40.807 102.039 41.4222C103.547 43.3396 102.354 45.3988 102.878 47.1664C103.02 47.6418 104.334 48.6444 104.696 49.9366C104.978 50.9393 104.83 52.667 105.062 53.362C105.18 53.7115 106.642 54.6443 106.938 56.0743C107.242 57.5483 106.704 59.9631 107.064 61.1355C107.146 61.4011 108.473 62.3338 108.862 63.3285C109.54 65.0542 108.866 66.7838 109.262 68.116C109.368 68.4695 109.955 68.7911 110.189 69.1846C111.126 70.7624 110.375 74.042 110.615 75.8954C112.187 76.7982 113.18 78.5399 113.39 80.3474C113.474 81.0744 113.254 82.3367 113.444 82.888C113.512 83.0857 114.693 83.8906 115.006 84.318C116.495 86.3453 116.004 90.0922 115.852 92.473C117.053 93.6354 117.844 94.9876 117.996 96.6893C118.066 97.4822 117.814 99.2038 118.098 99.7811C118.189 99.9688 119.245 100.664 119.59 101.081C121.532 103.432 120.665 107.606 120.675 110.463C122.829 112.37 122.915 114.895 122.819 117.603C125.291 118.927 126.322 120.944 125.976 123.779C126.941 124.374 127.441 124.669 127.763 125.826C128.268 127.641 128.09 133.266 127.982 135.397C127.952 135.966 127.593 136.617 127.625 136.955C127.685 137.562 128.768 139.02 128.923 140.025C129.063 140.923 128.889 141.838 129.003 142.739C129.511 143.26 130.204 143.472 130.77 143.965C132.576 145.541 133.062 148.173 132.57 150.442C133.621 150.502 134.276 151.467 134.47 152.434C134.966 154.902 134.638 160.93 134.568 163.726C134.558 164.132 134.384 164.489 134.374 164.891C137.511 166.325 138.78 168.718 138.958 172.089C139.054 173.929 139.148 176.93 136.666 176.994L1.4267 176.934C0.805284 176.673 0.26379 176.12 0.125919 175.442C-0.0738937 174.456 -0.0199442 171.206 0.131914 170.154C0.447619 167.953 2.41178 165.438 4.67167 165.013C4.5258 164.731 4.46986 164.449 4.45987 164.13C4.35996 161.056 4.0982 155.637 4.48784 152.763C4.71563 151.086 6.06437 150.814 6.23421 150.319C6.71576 148.914 5.87055 147.642 7.03146 145.529C7.86068 144.019 8.83977 143.763 10.0187 142.731C9.93874 140.999 10.1685 139.685 10.756 138.081C10.9018 137.686 11.3614 137.314 11.4194 136.943C11.5392 136.174 11.0737 134.124 11.0477 133.202C10.9898 131.182 10.712 125.972 11.9648 124.526C12.2726 124.172 12.898 123.954 13.0139 123.579C13.1877 123.012 12.9819 122.103 13.0678 121.44C13.3096 119.59 14.6144 118.604 16.0111 117.599C16.049 115.68 15.9092 113.812 16.8723 112.076C17.168 111.547 18.1411 110.73 18.233 110.245C18.7585 107.521 17.2739 103.458 19.24 101.077C19.7656 100.44 20.4349 100.21 20.9964 99.6592C20.6267 97.8936 20.8445 95.4409 21.8616 93.925C22.1433 93.5076 22.8826 92.9983 22.9845 92.6527C23.4441 91.1048 22.7268 87.8792 23.1144 85.9997C23.5021 84.1203 25.4143 83.2395 25.5781 82.6783C25.9897 81.2762 25.2744 79.934 26.1815 78.0945C26.5912 77.2616 28.1317 76.0452 28.1797 75.9034C28.5533 74.8149 28.0098 71.6832 28.2596 70.1972C28.4654 68.9728 29.6863 68.3217 29.7602 67.9323C29.8461 67.4789 29.5264 65.7912 29.6103 64.9643C29.6623 64.447 29.8841 63.5262 30.1039 63.0648C30.4595 62.3199 31.6225 61.5988 31.7623 61.1315C32.1899 59.6914 31.4526 57.4005 32.0561 55.6389C32.3917 54.6562 33.6246 53.8034 33.7585 53.35C34.1281 52.1057 33.6506 50.6217 34.4238 49.0279C34.7815 48.2889 35.8285 47.5778 35.9524 47.1664C36.1862 46.3935 35.7706 45.5885 35.7786 44.8136C35.7866 43.8289 36.2202 41.8556 36.9115 41.1406C37.2452 40.795 37.8426 40.6273 38.0744 40.3077C38.6319 39.5467 38.2003 38.1586 38.6039 37.2598C36.4779 36.0754 36.4459 32.4044 37.0973 30.3532C37.7967 28.1562 37.467 29.061 37.3831 26.8639C37.2252 22.7036 37.1733 9.30175 40.3743 6.49755C40.7599 6.16001 41.3274 6.2399 41.4892 6.0162C41.757 5.6467 41.8829 4.03688 42.6721 3.01028C43.7611 1.5942 47.2379 -0.562878 48.7684 1.11485C50.3769 2.87646 47.6674 4.0988 47.058 5.20131C45.9171 7.26251 46.8003 9.03012 48.4647 10.3983C48.6905 10.584 48.7864 10.8816 49.1621 10.7957C49.1561 9.80107 48.0671 9.50547 47.6655 8.60269C47.2059 7.57409 47.2199 6.12405 47.7973 5.13939C48.121 4.58614 48.8543 4.23661 49.1121 3.6594C49.6936 2.35916 48.7424 0.0403036 51.0563 0.0143388C53.532 -0.0136233 52.6488 2.34318 52.9525 3.47165C52.9785 3.56952 54.1514 4.3964 54.4391 4.82182C55.3882 6.22991 55.4282 8.31908 54.2633 9.60533C53.9016 10.0048 53.1283 10.1566 53.1563 10.7937H58.1437C58.2376 10.0168 57.3224 9.78509 56.8429 9.20188C55.7879 7.92162 55.8798 5.76254 56.9428 4.50625C57.2345 4.16271 57.9259 3.86712 58.0457 3.61546C58.5513 2.55689 57.6661 0.112206 59.8421 0.00834692C62.5675 -0.121477 61.5744 2.33319 61.9661 3.47964C62.048 3.72131 63.3088 4.50825 63.6225 5.01556C64.3918 6.26387 64.3199 8.04345 63.4347 9.20188C62.9771 9.80307 62.026 10.0607 62.1319 10.7937H67.3191C67.4729 10.0407 66.7136 9.97084 66.312 9.50547C65.1131 8.11535 64.9773 6.37571 66.0343 4.82182C66.354 4.35246 67.409 3.70134 67.4849 3.47964C67.8905 2.29724 66.7336 -0.115485 69.4111 0.00834692C71.8349 0.120195 70.8937 2.5529 71.4072 3.61546C71.5211 3.85114 72.2105 4.17869 72.5062 4.51224C73.6292 5.78052 73.7011 7.95357 72.706 9.29775C72.2744 9.87896 71.4432 10.1306 71.3113 10.7957H76.6983C76.8681 10.0188 75.989 10.0068 75.5034 9.49748C74.4604 8.40097 74.4564 6.42964 75.1358 5.14338C75.4495 4.55019 76.5864 3.72531 76.6623 3.47764C77.016 2.32121 76.1528 0.162138 78.4267 0.0922332C81.1362 0.00834693 80.1091 2.26529 80.5227 3.48164C80.5947 3.69335 81.6557 4.36843 81.9734 4.82382C83.0204 6.32378 82.9365 8.18726 81.7676 9.57937C81.4459 9.96285 80.6466 10.1506 80.6906 10.7957H85.6779L85.6799 10.8017ZM96.0562 33.9443L98.0643 33.8564C98.9455 32.3185 97.4049 31.3299 97.2491 30.0576C97.0573 28.4957 97.5848 27.4272 97.6607 26.071C97.8465 22.7255 97.6507 18.0499 97.2251 14.7204C97.0193 13.1126 96.6416 11.5088 96.0542 10.0048L94.2739 12.3256C94.6175 12.9049 94.9352 13.2943 95.209 13.9435C95.4827 14.5926 96.0562 16.6318 96.0562 17.2869V33.9463V33.9443ZM43.1777 10.2045C42.7181 10.1067 42.8599 10.2584 42.7321 10.4582C40.9957 13.1945 41.1196 22.9832 41.1775 26.4705C41.1975 27.6169 41.5312 28.7893 41.3853 30.0536C41.2395 31.3179 39.8867 32.5742 40.9198 33.9523L42.9838 33.9443C43.0178 29.6542 42.6182 25.362 42.774 21.0658C42.794 20.4986 42.9599 20.0232 42.9918 19.4879C43.1377 16.9534 42.8879 14.6725 44.5524 12.4635L43.1796 10.2045H43.1777ZM76.9021 27.3613H91.966C92.3217 26.826 92.014 25.8253 92.0579 25.0584C92.2118 22.4519 92.3736 19.9233 92.0639 17.2889C91.998 16.7237 91.4785 14.8123 90.937 14.6245L47.9692 14.6924C47.5516 14.8922 46.7723 17.243 46.7723 17.6864V27.3633H61.9361C61.8322 25.3899 62.6135 23.7102 64.148 22.4919C65.257 21.6131 66.372 21.4872 67.0993 20.0572C67.6967 18.8848 67.4949 17.3189 69.2493 17.259C71.3833 17.1871 71.1675 19.5778 72.2045 20.7862C73.0697 21.7948 74.6162 22.2003 75.5853 23.3906C76.4605 24.4632 77.012 25.9632 76.9001 27.3633L76.9021 27.3613ZM73.1097 34.3438V26.8619C73.1097 25.7594 69.9846 24.4512 69.4191 23.3747C68.8536 24.4332 65.7286 25.7554 65.7286 26.8619V34.3438H66.7256V30.8525C66.7256 29.4105 71.0995 29.4544 71.8588 30.2094C71.9068 30.2573 72.3124 31.0043 72.3124 31.0523V34.3438H73.1097ZM61.9361 33.7446C61.3786 33.1414 62.4376 31.4537 61.6084 31.1801L47.4596 31.1421L46.8222 31.4437L46.7723 33.7466H61.9361V33.7446ZM92.0659 31.1521H77.2018C76.5564 31.1521 77.4516 33.2832 76.9021 33.7466H92.0659V31.1521ZM63.7324 37.5355H43.4814C43.3415 37.5355 42.8899 37.8071 42.6222 37.7731L42.1906 39.0354L42.4843 39.333H63.5346L63.7344 37.5375L63.7324 37.5355ZM96.6536 39.331C96.6936 38.9535 96.318 37.5355 95.9563 37.5355H75.2057C74.7401 37.9349 74.7401 38.9316 75.2057 39.331H96.6556H96.6536ZM71.1155 38.1347H67.7227L67.5229 38.9336H71.1135V38.1347H71.1155ZM72.2125 42.7224C70.7878 42.4808 68.0264 42.7224 66.4259 42.7224C66.37 42.7224 65.9604 42.9262 65.9204 43.058L66.1282 46.3116L66.368 44.0606C66.4259 43.799 66.6877 43.3316 66.9234 43.2198C67.423 42.9821 71.3173 43.04 71.7909 43.3396C72.748 43.9428 72.0666 46.5133 72.4103 46.5133L72.6781 42.9521C72.5202 42.9202 72.3184 42.7384 72.2105 42.7204L72.2125 42.7224ZM62.1359 43.3216H44.7762L44.976 46.3136H62.1359V43.3216ZM94.0601 43.3216H76.5025L76.3027 46.3136H94.0601V43.3216ZM39.9906 46.3156L40.664 46.2916C41.2714 46.0879 41.0357 44.48 40.4862 44.1205C39.7369 43.9468 40.0346 45.9481 39.9906 46.3156ZM98.8476 46.3156C99.1513 43.3875 97.7466 43.3955 98.0523 46.3156H98.8476ZM61.5385 50.3041H38.494C38.1504 50.3041 37.6648 51.7162 37.7967 52.0997H61.5405V50.3041H61.5385ZM101.243 52.0997L100.346 50.3041H77.1019V52.0997H101.245H101.243ZM73.1097 50.7036H65.7266L65.5267 51.9H73.1097V50.7036ZM74.4064 55.6908H64.1301L64.3279 60.4804H65.9244C65.3529 56.9631 65.9863 55.7448 69.6269 55.8826C73.1916 56.0184 72.8379 57.3346 72.9079 60.4804L74.1906 60.4903C74.6442 59.4478 74.4704 58.2953 74.5064 57.1888C74.5183 56.8093 74.9839 55.8666 74.4064 55.6908ZM41.1855 56.7874C41.2934 57.8299 41.1076 59.0183 41.1855 60.0789L60.4255 60.2826L60.3136 56.2161L59.8401 55.8846L40.9897 56.0903C40.8758 56.3819 41.1735 56.6495 41.1875 56.7874H41.1855ZM98.0503 56.0903H78.4966L78.2968 60.2806H97.8505V56.5896C97.8505 56.5277 98.1243 56.306 98.0503 56.0903ZM101.643 57.3866C101.451 58.0676 101.783 59.4937 101.643 60.2786H103.239V57.3866C103.239 57.1409 102.784 56.7175 102.508 56.7254C102.262 56.6875 101.675 57.2727 101.643 57.3866ZM37.1473 57.3346L36.3001 57.079C35.1332 57.2228 35.7886 59.5117 35.8006 60.2766H37.3951L37.1473 57.3346ZM59.7422 64.0695H34.5018C34.204 64.0695 33.3389 65.6094 33.4148 65.9509L33.7045 66.2645H59.7422V64.0695ZM105.433 66.2645C105.501 65.5754 105.038 64.4989 104.386 64.2193L79.0861 64.1973L78.8962 66.2645H105.433ZM75.1058 64.2692H63.7324V65.8671C67.5309 65.8571 71.3313 65.8051 75.1058 66.0668V64.2692ZM76.5025 69.8556H62.3357L62.7374 75.4421L65.5288 75.2423V71.3516C65.5288 71.064 66.4619 70.329 66.8375 70.2671C67.7167 70.1213 70.2843 70.1552 71.2254 70.2451C71.8548 70.305 73.3095 70.8423 73.3095 71.5513V75.2423H76.1029L76.5025 69.8556ZM58.2456 70.0554H37.5949C37.6428 70.3729 37.9945 71.1239 37.9945 71.3516V75.0426L58.7351 74.8329C58.5952 73.6006 58.7571 71.7011 58.5473 70.5547C58.5053 70.331 58.4454 70.1812 58.2476 70.0554H58.2456ZM101.243 70.0554H80.5927C80.3948 70.1812 80.3349 70.331 80.2929 70.5547C80.0811 71.7131 80.255 73.6026 80.0931 74.8449H101.044V70.7544C101.044 70.6546 101.359 70.335 101.243 70.0554ZM32.0081 71.7511V74.8429H34.202C33.5946 73.9481 34.7615 70.8044 32.9492 71.084C32.7194 71.1199 32.06 71.5673 32.0061 71.7511H32.0081ZM106.83 74.8429V71.5513C106.83 70.8902 105.228 71.05 104.936 71.6372L104.834 74.8409H106.83V74.8429ZM57.5462 78.8335H30.9091C30.2597 78.8335 29.1088 80.7209 29.4125 81.4259C34.256 81.356 39.0475 81.5997 43.887 81.6337C48.0331 81.6636 52.6868 81.9892 56.8569 81.6337C57.1726 81.6077 57.5922 81.7016 57.726 81.2961L57.5462 78.8315V78.8335ZM109.624 81.4259C109.813 80.8787 108.72 78.8315 108.327 78.8315H81.29L81.0902 81.4259H109.624ZM77.2997 81.4259L77.4776 79.3468L77.1998 79.0312H61.8362C61.4286 79.3388 61.4845 80.0418 61.5265 80.5372C61.5425 80.7209 61.5105 80.9126 61.5685 81.0944L61.8362 81.4259H77.2997ZM78.4966 85.2168H60.3396L60.939 91.6002H65.1291V87.31C65.1291 86.539 66.0043 85.7042 66.8215 85.6103C67.8746 85.4884 70.9856 85.4705 72.0007 85.6283C72.5022 85.7061 73.7091 86.4032 73.7091 86.9125V91.6002H77.9991L78.2988 91.1008L78.4986 85.2148L78.4966 85.2168ZM56.9488 91.003L56.749 85.9159L56.4492 85.4165H33.8024C33.6985 85.7741 34.202 86.3113 34.202 86.5131V91.001H56.9488V91.003ZM105.234 85.4165H82.5868L82.2871 85.9159L82.0873 91.003H104.834V86.9125C104.834 86.7128 105.351 85.5184 105.234 85.4165ZM30.4116 91.003V87.7114C30.4116 87.274 28.9709 86.2494 28.5034 86.2155C28.0358 86.1815 26.8209 87.0543 26.8209 87.312V91.003H30.4116ZM112.217 91.003V87.5117C112.217 87.1702 110.778 86.0537 110.033 86.3173C108.085 87.0024 109.132 89.4131 108.624 91.003H112.215H112.217ZM69.9186 89.4071H68.9216L69.1214 91.6042H69.7188L69.9206 89.4071H69.9186ZM54.7528 94.9936H26.1216C25.4642 95.8005 24.5571 96.6413 24.625 97.7858H54.7528C54.7908 96.8271 54.2513 95.9143 54.7528 94.9936ZM114.413 97.7858C114.365 97.2405 113.168 94.9936 112.717 94.9936H84.0854V97.7858H114.413ZM79.7954 95.5908H58.845C58.0817 95.5908 58.7851 98.6326 58.7451 99.1819H80.0951L80.3029 95.9283C80.273 95.8045 79.8953 95.6067 79.7974 95.5908H79.7954ZM30.8112 104.868C30.9151 106.039 30.8112 107.453 30.8112 108.659C30.8112 108.719 30.5595 108.813 30.6114 108.959H54.555V104.471C54.555 104.391 53.8617 103.428 53.7198 103.113C53.49 102.603 53.4341 102.078 53.2422 101.567L29.8142 101.78C30.0759 102.186 30.3477 102.525 30.4775 103.011C30.5934 103.446 30.7753 104.439 30.8132 104.87L30.8112 104.868ZM84.2832 104.868C84.0854 106.059 84.4291 107.708 84.2832 108.959H108.227V105.068C108.227 104.886 108.419 103.586 108.473 103.318C108.543 102.965 109.348 101.603 109.124 101.575L85.8118 101.766C85.564 102.735 84.4311 103.981 84.2832 104.868ZM26.819 108.959V104.471C26.819 104.421 26.3074 103.792 26.2015 103.692C25.3903 102.925 24.1714 102.771 23.1604 103.206C22.8267 103.35 21.8316 104.137 21.8316 104.471V108.959H26.819ZM80.8924 102.973H57.9458C58.6312 105.745 58.5173 108.697 58.5453 111.551H64.6316C65.1351 111.551 64.7295 110.379 64.7215 110.063C64.6716 108.218 64.0841 104.043 66.4219 103.766C67.6048 103.626 71.2574 103.608 72.4003 103.784C73.0217 103.88 74.1087 104.658 74.1087 105.268V111.551H80.4928C80.4888 108.679 80.3769 105.805 80.8924 102.973ZM117.007 108.959V104.271C117.007 103.832 115.19 102.951 114.721 102.963C114.097 102.979 112.219 103.977 112.219 104.469V108.957H117.009L117.007 108.959ZM70.3163 111.551V107.66C70.3163 107.171 68.8237 107.405 68.52 107.561V111.252C68.9456 111.773 69.7148 111.495 70.3163 111.551ZM117.306 112.749H86.5791C86.5451 112.749 86.2294 112.322 86.0815 112.65C87.2145 113.461 87.1485 114.463 87.0786 115.743H119.003C119.3 114.96 117.956 112.899 117.306 112.751V112.749ZM52.7587 112.749H21.5319C21.1223 112.749 19.6736 115.124 19.8355 115.741H51.9594C52.0354 115.022 51.7596 113.86 52.1752 113.263C52.3711 112.979 52.7747 113.063 52.7587 112.749ZM55.7519 119.932H82.9864L83.2861 119.632V116.241C83.2861 116.129 83.5619 115.344 82.9864 115.344H56.0496C55.9777 115.344 55.7459 115.602 55.5501 115.546C55.4282 115.807 55.7499 116.135 55.7499 116.243V119.934L55.7519 119.932ZM51.8615 119.532H22.6309C22.7568 120.121 23.1804 120.465 23.3722 121.086C23.564 121.707 23.6379 122.472 23.6279 123.125L51.4599 123.327C51.6657 123.337 51.5159 121.366 51.5738 121.042C51.6677 120.515 52.451 119.928 51.8615 119.534V119.532ZM116.207 119.532H86.8768C87.1206 120.886 87.7939 121.588 87.2764 123.123L114.913 123.327C115.326 123.355 115.172 123.327 115.212 123.032C115.318 122.253 115.156 121.558 115.51 120.731C115.722 120.233 116.183 120.048 116.209 119.534L116.207 119.532ZM19.6377 122.924C19.3639 120.679 17.0041 120.575 16.8443 122.924H19.6377ZM122.194 123.123C122.12 120.301 119.502 120.777 119.201 123.123H122.194ZM64.3319 134.596V126.615C64.3319 126.521 64.8794 125.644 65.0472 125.536C66.2201 124.785 71.727 125.636 73.4034 125.322C73.7491 125.288 74.5064 126.227 74.5064 126.415V134.893H83.2841L83.6938 124.424L83.4879 124.016C83.0024 123.852 82.5069 123.759 81.9953 123.715C77.9931 123.365 72.9858 123.938 68.8097 123.93C64.7495 123.922 60.5254 123.417 56.4393 123.713C56.0696 123.739 55.7099 123.777 55.3802 123.95L55.7499 134.696L64.0162 134.873L64.3319 134.596ZM21.432 134.694V127.412C20.6807 126.297 14.8481 126.607 14.8481 127.611V134.694H21.432ZM124.19 134.694V127.611C124.19 127.392 123.375 126.97 123.081 126.924C122.228 126.788 118.599 126.749 117.888 127.096C117.71 127.184 117.522 127.23 117.406 127.412V134.694H124.19ZM51.7616 127.114H25.2244C25.1605 129.639 25.7619 132.193 25.2244 134.696H51.9614L51.7616 127.114ZM113.614 127.114H87.0766V134.696H113.614V127.114ZM68.1223 128.91V134.696H70.9157L70.7179 128.91H68.1223ZM125.187 141.876C125.393 140.901 124.232 138.668 123.287 138.489L89.4724 138.285C89.9419 139.649 90.6173 140.963 90.4674 142.475L120.108 142.483C121.828 142.026 123.379 141.71 125.187 141.876ZM49.3659 138.485H15.5475C15.04 138.485 13.4654 141.153 13.8511 141.876C14.6663 141.92 15.5115 141.804 16.3248 141.898C17.8953 142.08 18.0372 142.473 19.9294 142.465C29.3706 142.425 38.8137 142.505 48.2549 142.487C48.6565 141.149 48.5926 139.709 49.3679 138.485H49.3659ZM86.679 142.675C87.0626 141.309 85.4921 138.904 84.1733 138.696C82.2271 138.389 79.114 138.742 76.994 138.692C70.0565 138.533 62.9831 138.485 56.0536 138.467C53.6159 138.461 52.2452 140.342 52.3611 142.673H86.679V142.675ZM19.238 150.057C19.6357 146.22 15.7053 145.004 12.6023 146.114C10.2704 146.949 10.0366 147.544 10.2604 150.057H19.24H19.238ZM128.778 150.057C128.79 148.227 129.127 147.313 127.319 146.428C124.14 144.874 119.191 145.783 119.6 150.057H128.778ZM49.5657 150.057L49.7455 146.596C49.6116 146.19 49.192 146.284 48.8763 146.258C43.2116 145.777 36.2561 146.354 30.5175 146.476C27.9579 146.53 25.3863 146.418 22.8287 146.468L23.2263 150.057H49.5637H49.5657ZM89.2725 146.466V150.057H115.61C115.596 148.863 115.636 147.518 116.209 146.468H89.2725V146.466ZM85.4801 146.466H53.5559V164.621L63.2409 164.431C63.7844 160.485 62.7873 156.237 63.135 152.356C63.2609 150.954 63.5046 150.189 65.0172 150.049C67.0054 149.865 71.4512 149.839 73.4074 150.057C74.7841 150.211 75.6293 150.894 75.6633 152.35C75.7252 155.046 75.6113 157.798 75.7092 160.523C75.7592 161.885 75.6553 163.261 75.7032 164.621C75.7752 164.719 75.957 164.421 76.001 164.421H85.4781V146.466H85.4801ZM21.6318 153.848H8.26431V163.922C8.26431 163.958 8.72787 164.421 8.76384 164.421H21.6338V153.848H21.6318ZM31.6085 154.048L25.4223 153.848V164.421H31.6085V154.048ZM49.5657 153.848H45.4755C45.3896 153.848 45.1398 154.161 45.1858 154.327L45.3756 164.421H49.7655L49.5657 153.848ZM71.9128 153.848H66.9254V164.421H71.9128V153.848ZM93.6624 153.848H89.2725V164.421H93.6624V153.848ZM103.637 153.848H97.4509V164.421H103.637V153.848ZM113.614 153.848H107.428V164.421H113.614V153.848ZM130.774 153.848H117.406V164.421H129.277C129.463 164.421 130.774 163.223 130.774 163.125V153.848ZM41.5851 154.048H35.3989V164.322L35.6986 164.621H41.2854L41.5911 164.124L41.5851 154.048ZM134.964 173.2C135.174 171.3 134.676 169.285 132.776 168.506L6.5639 168.406C4.26605 168.873 3.68259 171.098 3.87641 173.2H134.966H134.964Z" fill="#FF2727"/>
</svg>
