<svg width="193" height="166" viewBox="0 0 193 166" fill="none" xmlns="http://www.w3.org/2000/svg">
<path d="M73.4365 13.329C73.5123 13.6802 73.3584 13.8685 73.2228 14.1485C73.0735 14.4538 70.7437 17.7662 70.5668 17.9131C70.0728 18.324 69.4432 18.1082 68.8459 18.1426C68.7976 19.8597 68.9102 21.5927 68.8573 23.3121C68.8436 23.7275 68.2806 25.7085 68.963 25.7085H124.384V18.1449C123.842 18.083 123.017 18.3102 122.548 18.0302C122.344 17.9085 119.786 14.4584 119.683 14.2449C119.538 13.9396 119.538 13.6573 119.563 13.3336H124.154V9.09385C124.154 6.7846 126.103 3.86016 128.069 2.68946C128.772 2.27168 129.56 2.17298 130.234 1.64272C130.907 1.11247 131.263 -0.0788893 132.299 0.0267029C132.745 0.0726125 133.434 1.32824 134.036 1.74372C134.707 2.20741 135.495 2.34514 136.21 2.78128C138.216 4.00936 139.987 6.96135 139.987 9.3234V13.3359H144.578C144.647 13.7009 144.536 13.8639 144.357 14.1462C144.095 14.5594 141.69 17.7983 141.497 17.936C140.95 18.3286 140.178 18.1036 139.53 18.1495V70.3006L152.495 77.9147L160.179 74.4164L161.341 74.4118L169.472 80.6532L182.672 76.3767C182.941 83.9059 182.314 91.6807 182.674 99.1846C182.934 104.602 183.835 110.26 184.278 115.694C185.514 130.86 186.693 146.033 187.952 161.195H193V166.008H0L0.229762 161.195H5.05017L10.3255 98.7255L10.4358 76.5971C10.6196 76.2803 11.5547 76.6912 11.881 76.7761C15.8834 77.8251 19.7365 79.6317 23.7574 80.6532L32.3321 74.196L40.9091 77.715L53.4702 70.5324V18.1426C52.8223 18.099 52.0526 18.3217 51.5034 17.9292C51.3104 17.7914 48.7463 14.3758 48.636 14.1462C48.5004 13.8662 48.3442 13.6802 48.4223 13.329H53.2427C52.542 9.61263 53.2289 4.82655 56.7558 2.73996C57.4566 2.32448 58.3457 2.15461 58.9707 1.74372C59.506 1.39251 60.2642 0.139181 60.5124 0.0588396C61.5854 -0.292369 62.0127 1.02294 62.6653 1.51188C63.7015 2.28775 64.9928 2.37728 66.2151 3.46763C67.2077 4.35368 68.8504 6.8856 68.8504 8.17107V12.9847L69.1951 13.329H73.4411H73.4365ZM63.5682 8.28584C63.5682 7.4939 61.4935 6.24057 60.9283 6.24057C60.2321 6.24057 58.4514 7.4962 58.2883 8.28584H63.5659H63.5682ZM134.709 8.28584C134.31 7.57654 132.795 6.34157 132.033 6.275C131.516 6.22909 129.439 7.58113 129.432 8.28584H134.709ZM64.0277 12.4131H58.0608V13.329H64.0277V12.4131ZM135.169 12.4131H128.972L129.117 13.2992C130.043 13.2211 134.714 13.5976 135.068 13.1132L135.169 12.4131ZM63.798 45.1926L63.6831 18.1426H58.2906V45.1926H63.798ZM134.709 18.1426H128.972L129.202 45.1926H134.709V18.1426ZM68.6184 33.0449H124.384V30.5222C112.411 30.373 100.454 30.2628 88.4583 30.2834C86.0366 30.288 83.5552 30.2903 81.1358 30.2834C77.0415 30.2743 72.908 30.226 68.8344 30.3936L68.6184 33.0449ZM72.0602 37.8585H68.6184C68.9975 40.1448 68.9998 42.8994 68.6184 45.1949H72.0602V37.8585ZM81.2392 37.8585H76.6486V45.1949H81.469C81.531 45.0273 81.2392 44.9217 81.2392 44.8506V37.8585ZM89.2717 37.8585H86.0596V44.8506C86.0596 44.9194 85.7701 45.0273 85.8299 45.1949H89.2717V37.8585ZM99.14 37.8585H94.0921V45.1949H99.14C98.7769 42.7984 98.7769 40.2596 99.14 37.8585ZM106.943 37.8585H103.731V45.1949H107.172C107.257 44.947 106.943 44.6922 106.943 44.621V37.8585ZM116.351 37.8585H111.761V45.1949H116.351V37.8585ZM124.384 37.8585H120.942V45.1949H124.384V37.8585ZM134.709 50.0062H58.2906V52.7562H134.712V50.0062H134.709ZM63.798 57.5721H58.2906V70.4084L63.4947 72.6695L64.0048 72.3229L63.8003 57.5721H63.798ZM78.2569 57.5721H68.6184V74.88L72.0809 76.4984L78.381 72.0084C78.6153 67.2108 78.466 62.3651 78.2569 57.5744V57.5721ZM110.155 57.5721H83.075V72.8164L87.6634 75.9107C87.4244 73.388 87.2957 70.7688 87.4267 68.2231C87.5577 65.6775 87.7645 63.1019 89.2786 61.1324C94.1403 54.8061 105.566 57.7833 105.566 66.171V75.913L110.157 72.9335V57.5744L110.155 57.5721ZM124.384 57.5721H114.745V71.8982L121.151 76.4961L124.384 75.2221V57.5721ZM134.709 57.5721H128.972L129.204 72.9312C131.04 72.1094 132.75 70.9272 134.709 70.4107V57.5744V57.5721ZM100.746 73.6175V65.48C100.746 65.1931 99.7006 63.6965 99.3559 63.4302C97.2789 61.8302 94.2322 62.1677 92.895 64.5136C92.7526 64.7639 92.2563 65.9919 92.2563 66.1664V73.8448L96.7321 71.4162L100.746 73.6152V73.6175ZM69.7649 80.9539L58.2906 75.6812V91.2698H69.7649V80.9539ZM123.465 81.2982V91.2698H134.709L134.48 75.913L123.465 81.2982ZM53.7 76.1403L43.4916 82.3335L43.3745 92.6448L53.3185 91.6921L53.7 91.3868V76.1426V76.1403ZM149.628 92.6448V82.2141L139.532 76.1403C139.208 81.3487 139.341 86.5342 139.53 91.7289L149.628 92.6448ZM118.647 91.2698V80.8391L113.066 76.8633L106.943 80.9539V91.2698H118.647ZM86.0596 91.2698V81.0687C85.1245 80.4328 80.9888 76.985 80.2237 77.0493C79.8859 77.0768 75.0402 80.5132 74.6841 80.9378C74.0821 81.654 74.5853 81.693 74.5853 81.9846V91.2675H86.0596V91.2698ZM102.122 91.2698C101.706 88.0217 102.747 84.1974 102.366 81.0549C102.327 80.7381 102.341 80.6486 102.12 80.3846C101.929 80.1551 97.3432 77.2765 97.0606 77.1755C96.8814 77.1113 96.7206 77.008 96.5161 77.0516L90.8777 80.8414V91.2721H94.0898V86.2289H98.9102V91.2721H102.122V91.2698ZM38.7838 93.3311V82.6709L33.2029 79.8544L27.1762 84.3719C26.8247 84.6519 26.8752 85.0192 26.8362 85.4071C26.5513 88.3293 27.3761 91.5085 27.0774 94.4766L30.5193 94.2447L29.8323 89.2038C31.4337 89.4426 33.0099 88.8435 34.5378 88.7402C35.0364 88.7057 34.8227 88.7608 34.8779 89.0845C35.1191 90.5513 35.0548 92.0824 35.3535 93.5423L38.7838 93.3265V93.3311ZM166.15 94.4789V84.2777L160.247 79.8406L154.446 82.3312V93.3334L157.89 93.5653C158.046 92.0916 158.111 90.5536 158.352 89.0914C158.405 88.7677 158.191 88.7126 158.692 88.747C160.144 88.8435 161.651 89.4288 163.17 89.2084L162.743 93.9899L166.152 94.4812L166.15 94.4789ZM15.1459 83.0175V96.0834L22.0181 95.156L22.0457 85.6458L21.894 85.2855L15.1459 83.0198V83.0175ZM177.854 83.0175L171.081 85.5357L170.973 95.1652L177.856 95.8561V83.0198L177.854 83.0175ZM134.709 96.0834H58.2883L58.5181 161.186H67.6971V101.815H125.298V161.186H134.707V96.0834H134.709ZM139.3 96.313V108.578L139.874 108.922L179.233 113.279L178.316 101.241L177.939 100.702L139.302 96.3152L139.3 96.313ZM53.7 96.5402L14.9184 100.667L13.765 113.157L53.7 108.92V96.5402ZM120.483 106.627H72.5198V161.183H77.5676V131.498C77.5676 122.899 87.6656 117.452 94.6251 114.837C95.7211 114.427 96.2863 113.97 97.5408 114.298C99.1101 114.709 102.86 116.656 104.422 117.509C109.672 120.374 115.432 125.124 115.432 131.728V161.183H120.71L120.48 106.627H120.483ZM53.7 113.504L13.3354 118.343L13.1998 121.99L34.4229 119.006L34.8848 123.82L12.6369 126.813L12.398 131.615C14.8265 131.317 17.6871 130.589 20.0927 130.465C20.5591 130.442 21.0554 130.376 21.3449 130.812V135.281L11.9453 136.438L9.87057 161.183H53.7022V146.513L24.7867 149.492V144.679L53.7022 141.699V137.345L39.7029 138.722L39.5765 134.122L53.7045 132.533V113.506L53.7 113.504ZM139.3 113.848V132.531L153.38 133.895C153.72 133.97 153.571 137.356 153.504 137.9C153.476 138.125 153.389 138.671 153.145 138.729L139.528 137.345L139.337 141.337L139.677 141.667L168.448 144.812L168.234 149.389L167.643 149.518L139.523 146.384L139.53 161.188H183.132L181.296 136.431L171.655 135.288L171.885 130.472L180.834 131.617L180.494 127.031L158.331 123.693L158.572 119.011L179.915 121.99L179.676 118.104L139.295 113.853L139.3 113.848ZM110.614 161.186V131.041C110.614 130.683 109.803 128.645 109.567 128.19C107.329 123.898 101.013 121.139 96.7321 119.33C92.084 121.269 84.5041 124.451 82.7993 129.62C82.7166 129.873 82.3857 130.92 82.3857 131.041V161.186H110.612H110.614Z" fill="#FF2727"/>
<path d="M177.842 152.945L177.624 157.747L157.947 155.348L158.347 150.867L177.842 152.945Z" fill="#FF2727"/>
<path d="M153.53 108.46L149.088 108.199C148.333 107.951 148.93 106.677 148.951 106.064C148.999 104.498 148.895 102.919 148.939 101.354C149.858 101.622 153.376 101.303 153.649 102.04C153.73 102.194 153.53 102.329 153.53 102.384V108.458V108.46Z" fill="#FF2727"/>
<path d="M171.198 103.191L170.97 109.838L166.152 109.606L166.61 102.731L171.198 103.191Z" fill="#FF2727"/>
<path d="M26.6222 102.958L26.852 109.608L22.2591 109.838L22.0293 103.188L26.6222 102.958Z" fill="#FF2727"/>
<path d="M44.2908 101.583V108.003L39.7001 108.233L39.4727 101.583H44.2908Z" fill="#FF2727"/>
</svg>
