<svg width="199" height="110" viewBox="0 0 199 110" fill="none" xmlns="http://www.w3.org/2000/svg">
<path d="M0.451654 110L0 109.348L0.0338373 75.3915C0.300122 74.5993 2.71581 75.256 3.21307 74.9674C3.2778 74.9291 3.88835 74.0529 4.19877 73.8232C4.50919 73.5935 5.41985 73.2607 5.52284 73.0899C5.92741 72.4257 5.00351 70.5938 6.98961 70.5747C9.02132 70.5556 8.05622 72.2917 8.45932 72.9426C8.66823 73.2828 10.7308 74.0264 10.8883 74.9247L14.1219 75.1456V77.9391H16.1801C16.2169 75.9467 18.9415 75.9378 19.0578 77.9479H22.2649C22.6342 75.9997 24.9322 76.0232 25.2323 77.9479H28.2924C28.6028 76.2147 31.1597 76.0262 31.1818 77.9332L33.7373 77.9479C33.9285 76.0659 36.4251 76.1366 36.7046 77.9479L39.0997 77.9243C39.2557 75.9688 41.7126 76.222 42.1524 77.9449L44.0282 77.9479C44.2224 76.0262 46.8455 75.9908 46.9117 77.9332H49.1053C49.0214 76.088 51.9094 76.1558 51.9049 77.9391H54.8458V68.4542C54.8458 68.4056 55.1357 67.5706 55.1724 67.5309C55.4226 67.2688 56.0287 67.4411 56.3141 67.2776C56.0051 66.6488 55.1989 66.8491 54.7841 66.1629C53.6763 64.3354 57.4484 63.4666 58.6606 63.2266L58.668 61.1738C58.0928 61.1443 57.2248 61.3726 57.0865 60.6319C56.985 60.0914 56.9702 57.3569 57.16 56.946C57.5322 56.1361 59.8861 56.223 59.6993 57.4982C60.1951 57.2729 59.6243 56.3172 59.5654 55.7915C59.3256 53.6165 59.9141 51.7449 61.5309 50.2885C62.2827 49.6111 63.3787 49.1634 64.0319 48.5258C64.2541 48.3093 66.0725 45.3981 66.1299 45.1831C66.377 44.2524 65.6782 42.419 67.1523 42.0877C69.4621 41.5679 68.7103 44.2539 69.0251 45.2994C69.8181 47.9324 71.6027 48.6584 73.371 50.2178C75.5293 52.1204 75.9147 54.8329 74.9864 57.4982C75.4792 57.6322 75.285 56.9784 75.4616 56.7988C75.8206 56.435 77.4242 56.5587 77.7625 57.1478C77.995 57.5512 78.0126 60.112 77.8935 60.6289C77.7331 61.3299 77.0549 61.3667 76.4532 61.3225V61.7628L78.07 61.6156L78.0641 52.7271C77.9847 52.5371 77.5198 51.5299 77.4609 51.4931C77.1299 51.284 75.9383 51.8141 75.6381 50.8893V45.1359C75.9603 44.1434 78.6938 44.326 78.3672 45.7323L82.9235 45.1433C82.5395 44.4556 83.0411 43.7812 82.8911 43.0464C82.7807 42.5074 82.1069 41.4928 81.8892 40.811C80.0855 35.1489 83.353 30.0008 88.08 27.1411C88.6464 26.7979 90.1484 26.2384 90.4868 25.8717C90.9517 25.3681 91.5372 23.6849 92.0919 22.9192C92.3626 22.5466 93.1938 21.8162 93.285 21.613C93.5337 21.0578 93.3586 20.1537 93.8441 19.2304C94.4678 18.045 95.3373 18.285 95.4241 16.6931C95.5403 14.5726 94.5826 14.4931 93.9882 12.9734C93.2629 11.1165 94.7474 11.6083 95.2373 11.1386C95.3741 11.0075 95.3432 10.7056 95.658 10.4568C96.1288 10.0857 97.4735 9.97523 97.6956 9.55408C97.831 8.94001 97.9722 8.33037 98.0458 7.70894C98.2944 5.62671 98.2414 3.31477 98.5195 1.26053C98.5813 0.799609 98.802 0.295988 99.1683 0C99.5199 0.253283 99.6155 0.709782 99.6656 1.11621C99.9392 3.28826 99.8377 5.6974 100.125 7.86356C100.2 8.43492 100.416 8.98713 100.484 9.56291C101.081 9.78969 101.668 9.79852 102.23 10.1681C102.667 10.4553 102.783 10.8485 103.073 11.09C103.633 11.5553 104.397 11.383 104.181 12.5022C103.825 14.3341 102.508 14.2796 102.771 16.833C102.92 18.2717 104.013 18.4131 104.457 19.706C104.675 20.3422 104.587 21.0843 104.756 21.4657C104.84 21.6513 105.722 22.5201 105.975 22.8927C106.415 23.5421 107.194 25.5212 107.513 25.8408C107.76 26.0882 109.322 26.6978 109.814 26.9953C114.514 29.8403 117.774 35.0679 116.188 40.7005C115.978 41.4486 115.237 42.6326 115.142 43.1966C115.063 43.6766 115.428 44.5616 115.267 45.1433L119.594 45.7397C119.512 44.2583 122.086 44.1523 122.406 45.1359V50.8893C122.123 51.7611 121.123 51.2869 120.704 51.5387C120.69 51.789 119.971 52.5077 119.971 52.571V57.2037C120.23 57.1536 120.115 56.9018 120.468 56.7443C120.979 56.516 122.07 56.5484 122.513 56.9004C122.81 57.1374 122.597 57.6043 123.059 57.4953C122.288 55.2717 122.39 52.4384 124.103 50.6743C125.005 49.7466 126.743 49.1443 127.445 48.1341C127.605 47.9029 128.973 45.4525 129.019 45.2979C129.316 44.298 128.541 42.1746 130.344 42.0612C132.33 41.9346 131.654 44.2023 131.914 45.1831C132.03 45.6219 133.69 48.2239 134.081 48.6039C134.942 49.4388 136.176 49.8438 137.028 50.8039C137.815 51.6904 138.459 53.294 138.502 54.4794C138.525 55.1112 138.016 57.1374 138.124 57.3524C138.155 57.4128 138.299 57.5336 138.346 57.4968C138.403 56.1567 140.747 56.139 141.075 57.1963C141.221 57.6632 141.21 60.2549 141.077 60.7467C140.916 61.3402 139.994 61.1502 139.523 61.1738L139.377 63.2324C140.631 63.3179 144.807 64.5946 143.204 66.3999C142.82 66.8314 142.09 66.7975 141.73 67.2776L143.061 67.7341L143.198 77.9391H146.139C146.232 75.9923 148.834 76.0483 149.017 77.9479L151.12 77.9229C151.194 76.0763 153.995 76.1248 153.936 77.9332L156.199 77.9479C156.318 75.9805 158.879 76.0159 159.093 77.9229L161.344 77.9479C161.539 76.0512 164.087 75.9923 164.236 77.9243L166.637 77.9479C166.896 75.9894 169.338 75.9319 169.598 77.9479H172.511C172.866 76.0321 175.202 76.0277 175.479 77.9479H178.833C179.113 76.1057 181.614 75.9953 181.717 77.9391H183.775L183.938 75.1603C184.621 74.7583 186.836 75.2222 187.273 74.9674C187.319 74.9409 187.563 74.3975 187.76 74.2046C188.215 73.7599 188.897 73.4403 189.484 73.2106C189.456 71.8956 189.69 70.1889 191.423 70.6557C192.998 71.0783 192.146 72.4743 192.52 73.0884C192.587 73.2003 193.686 73.7275 193.988 73.9719C194.266 74.1987 194.773 74.9335 194.831 74.9659C195.424 75.3105 197.644 74.4977 198.182 75.4386V109.999H0.451654V110ZM96.4481 20.4408H101.593C101.063 19.5897 100.151 19.7399 99.9892 18.5883C99.8759 17.7887 99.8627 15.1293 99.9848 14.3458C100.061 13.8599 100.467 13.3563 100.71 12.941C99.9745 12.7982 99.5861 12.4978 99.1521 11.9146C98.4754 12.2268 98.2194 13.0765 97.3293 12.9395C97.603 13.4476 98.1105 14.0557 98.2017 14.6389C98.3076 15.3148 98.3062 17.7652 98.2017 18.444C98.0414 19.4778 97.0807 19.7958 96.4466 20.4394L96.4481 20.4408ZM103.505 24.4094C103.207 24.0163 102.784 23.4817 102.305 23.3315C101.858 23.1916 100.044 23.0885 99.4684 23.0797C98.4459 23.065 96.1509 23.1195 95.3432 23.6731C95.124 23.8233 94.8356 24.1768 94.6826 24.408C97.5897 23.841 100.591 23.9191 103.502 24.408L103.505 24.4094ZM113.795 38.5285C113.938 29.372 103.195 25.7848 95.5595 27.1249C90.3574 28.0379 83.3766 32.4217 84.3196 38.5285C87.2767 37.5124 90.4015 36.9425 93.5101 36.6186C93.6381 36.4963 93.2983 34.1962 93.6705 33.6175C93.9309 33.214 94.7444 33.1772 94.8121 33.0682C94.8916 32.9401 94.7959 32.5484 94.8651 32.3142C95.1843 31.2289 95.7463 31.5396 96.2215 31.0213C96.8262 30.3631 97.5338 28.8051 98.2164 28.0172C98.8093 27.3325 99.0256 27.1823 99.6817 27.87C100.338 28.5577 101.543 30.8196 101.927 31.1376C102.106 31.2864 102.764 31.2981 102.929 31.5691C103.14 31.9166 102.982 32.6249 103.248 32.9062C103.439 33.1079 104.245 33.2419 104.398 33.482C104.737 34.0121 104.404 36.4978 104.534 36.62C107.676 36.9175 110.782 37.6376 113.795 38.53V38.5285ZM99.2389 31.7649C98.39 31.9637 98.3459 33.1565 98.0664 33.7205C97.8942 34.0681 96.8865 34.8647 96.479 35.0282L96.4481 36.9116C98.1723 36.7467 99.8715 36.7481 101.594 36.9116L101.725 35.0959C100.459 34.2153 99.8141 33.1624 99.2389 31.7649ZM95.5668 40.1469H102.623C102.515 39.9967 102.517 39.6815 102.439 39.5961C102.083 39.2088 96.5496 39.3929 95.6522 39.6933L95.5654 40.1469H95.5668ZM105.599 40.2558L112.471 41.8462L112.911 41.2483C110.577 40.2058 107.948 39.7728 105.416 39.4106L105.599 40.2544V40.2558ZM92.6274 39.5578C91.78 39.468 85.1582 40.8552 85.1346 41.2483L85.4377 41.9007C87.7872 41.3352 90.1749 40.5017 92.6289 40.4414V39.5578H92.6274ZM105.562 43.0891C102.68 42.7445 99.7347 42.7931 96.81 42.7872L92.4788 43.0891L92.8628 43.98H105.18L105.562 43.0905V43.0891ZM90.1264 43.5294L86.5999 44.5572L89.8822 44.2701L90.1264 43.5294ZM111.59 44.4129L108.063 43.5294V44.2642C109.072 44.2229 110.082 44.4777 111.079 44.5558C111.241 44.569 111.628 44.6632 111.59 44.4114V44.4129ZM72.6325 54.5575C72.3559 51.6006 68.6206 51.2074 67.5613 48.5317C67.0287 49.1517 66.7007 49.8659 66.096 50.4446C64.7484 51.7316 62.4592 52.25 62.3415 54.4824C65.715 53.6445 69.2855 53.512 72.6325 54.5575ZM130.7 48.5288L130.399 48.6186C129.654 51.4018 125.464 51.5431 125.411 54.5575C128.754 53.6106 132.36 53.5576 135.699 54.5575C135.483 51.5328 131.479 51.3546 130.7 48.5288ZM93.6558 59.8529H104.388C104.423 59.6143 104.144 59.7586 104.044 59.5304C103.879 59.1519 103.861 54.6606 103.956 54.0524C104.159 52.7477 106.43 52.5239 106.708 53.7814C106.891 54.6046 106.827 57.94 106.738 58.8957C106.717 59.1078 106.673 59.4111 106.587 59.5996C106.514 59.7645 106.242 59.6246 106.299 59.8514L107.327 59.9987C107.4 59.9442 107.18 59.8116 107.18 59.7792V53.8963C107.18 53.0466 109.768 52.5327 109.977 54.3337C110.057 55.0184 110.054 59.5672 109.877 59.9692C109.777 60.1975 109.497 60.0546 109.533 60.2902L111.003 60.4375C111.076 60.3845 110.855 60.2505 110.855 60.2181V54.3351C110.855 53.3824 112.939 53.0731 113.39 54.1511C113.517 54.4529 113.629 55.6796 113.654 56.0934C113.698 56.8341 113.751 59.8661 113.477 60.3418C113.336 60.5862 113.049 60.4964 113.061 60.7305L114.454 60.8807C114.526 59.0489 114.116 56.5528 114.392 54.7857C114.511 54.0259 114.85 54.1982 115.353 53.9817C115.534 53.9037 115.615 54.045 115.559 53.6739C112.758 53.5974 109.873 52.6682 107.113 52.49C102.52 52.1955 95.8243 52.2102 91.2224 52.49C88.2285 52.6711 85.0699 53.6563 82.0422 53.8227L83.406 54.2556C83.5531 54.3749 83.7385 54.7769 83.7709 54.958C84.0739 56.6589 83.6723 59.1122 83.7297 60.8778L84.9816 60.732C84.9919 60.4979 84.7051 60.5877 84.5653 60.3432C84.2814 59.8499 84.3534 56.8591 84.3961 56.1022C84.427 55.5765 84.5256 54.0229 84.8404 53.752C85.3215 53.3382 86.7618 53.4516 87.0854 54.0067C87.4827 54.6885 87.3738 58.6144 87.3429 59.6379C87.3341 59.9206 87.2281 60.1665 87.1884 60.4375L88.5095 60.2902C88.5463 60.0546 88.2653 60.1975 88.1653 59.9692C87.9902 59.5672 87.9858 55.014 88.0652 54.3322C88.2521 52.7389 90.4324 52.7978 90.7958 53.9596C91.037 54.7298 90.9017 58.1609 90.8693 59.1961C90.837 60.2313 90.3029 60.0384 91.7432 59.8485C91.78 59.6128 91.499 59.7557 91.399 59.5274C91.3342 59.3787 91.318 59.2049 91.3019 59.043C91.2209 58.2168 91.1739 54.2836 91.3681 53.6651C91.7094 52.5725 93.9529 52.5636 94.1015 54.1805C94.1677 54.9021 94.1839 59.0989 93.9985 59.526C93.8985 59.7542 93.619 59.6099 93.6543 59.8485L93.6558 59.8529ZM80.8653 54.1172V61.1767H81.5994C81.3302 60.8248 81.1109 60.9072 81.0212 60.358C80.8579 59.3448 80.9064 56.304 81.005 55.2143C81.0609 54.5928 81.1639 54.3233 81.748 54.045L80.8638 54.1187L80.8653 54.1172ZM73.9566 60.1489C69.7902 59.149 65.3428 59.1063 61.1631 60.0752C61.478 60.9882 61.5059 61.832 61.4588 62.7951C65.5252 62.4564 69.5974 62.8687 73.6623 62.9423C73.6491 61.9999 73.6005 61.0412 73.9566 60.1489ZM124.233 60.1474V62.9409C128.339 62.6596 132.472 62.4829 136.582 62.7951L136.878 60.0752C132.736 59.124 128.363 59.1622 124.233 60.1459V60.1474ZM120.164 61.1193C120.092 61.0781 120.196 60.8189 119.972 60.8822L119.969 61.617L121.439 61.7628V61.3225C120.948 61.3417 120.601 61.3711 120.164 61.1178V61.1193ZM98.8005 62.6478H91.6741L78.5158 64.3369C78.8497 64.4517 78.9218 65.2322 78.9718 65.2764C79.0792 65.3706 80.5578 65.2425 80.9315 65.3014C82.1584 65.4943 81.6538 67.0449 81.748 67.9403L92.3346 67.793C92.1816 66.2571 93.16 65.8654 94.4443 65.565L98.802 62.6464L98.8005 62.6478ZM119.824 64.2662C113.072 63.5314 106.368 62.3018 99.5376 62.6478L103.314 65.2646C104.726 66.0303 105.912 65.7726 106.03 67.7694C109.42 68.142 112.881 67.846 116.296 67.9403C116.068 65.3441 116.469 65.1321 118.991 65.269L119.824 64.2632V64.2662ZM62.3415 67.3527H74.9849L75.132 65.8831C70.8862 65.5252 66.5962 65.244 62.3415 65.5871V67.3527ZM123.057 67.3527H135.701V65.59C131.455 65.2823 127.139 65.378 122.91 65.8846L123.057 67.3542V67.3527ZM78.9542 74.4859V68.089H77.7772C77.7596 69.0432 77.8008 70.0063 77.7846 70.9635C77.7684 71.8927 77.8125 72.8366 77.7875 73.7525C77.7302 75.9231 76.2369 74.8172 74.7775 75.2811L74.6907 75.8848H123.497V75.15H120.924C120.771 75.15 120.409 74.7878 120.409 74.6346V68.0905H119.087V74.4873C119.087 74.9173 118.454 74.9807 118.138 75.0086C115.11 75.2678 109.395 75.2649 106.364 75.0086C105.662 74.9497 105.493 74.9321 105.415 74.1958C105.288 73.0162 105.508 71.6453 105.415 70.4422C103.726 70.585 103.47 69.7383 103.338 68.2554C101.634 68.0404 100.52 66.3469 99.0182 65.6268C98.1031 66.3779 97.1484 67.0847 96.1406 67.7105C95.8346 67.9005 95.2064 68.0757 95.0504 68.2377C94.6297 68.6751 94.9666 70.0578 93.9897 70.2655C93.6028 70.3479 93.1644 70.1786 92.8348 70.4333C92.6274 70.7279 92.8422 73.5243 92.7701 74.1958C92.6921 74.9321 92.5229 74.9483 91.8212 75.0086C88.7552 75.2678 82.9661 75.2708 79.9002 75.0086C79.5147 74.9762 79.0351 74.9527 78.9512 74.4873L78.9542 74.4859ZM59.5478 67.3512V65.7343L58.8122 65.8816C58.9696 66.2704 59.0637 66.8093 59.2182 67.1657C59.308 67.3718 59.2418 67.3939 59.5478 67.3498V67.3512ZM139.374 65.8831H138.492V67.3542H138.932C138.834 66.7755 139.305 66.4103 139.373 65.8831H139.374ZM74.8378 70.1462H57.6382V107.352L67.0464 107.205V102.572C67.0464 102.206 67.5584 102.089 67.8526 102.057C70.1065 101.812 72.7105 102.225 74.9864 102.204L75.132 78.6739H72.4118C71.9587 78.6739 71.7777 77.945 71.7439 77.5783C71.6836 76.9259 71.6806 73.0796 71.8866 72.7453C71.9337 72.6687 72.2073 72.4979 72.2647 72.4979H74.8378V70.1447V70.1462ZM140.404 70.1462H123.205V72.3521C123.98 72.7379 125.947 72.0841 126.226 72.9323C126.378 73.3962 126.379 77.2602 126.284 77.8566C126.237 78.1467 125.919 78.6754 125.632 78.6754H123.059V102.058H130.482C130.538 102.058 130.997 102.393 130.997 102.427V107.207H140.406V70.1477L140.404 70.1462ZM116.294 70.7352H108.724C108.649 70.7352 108.415 70.5011 108.21 70.5894V72.2063H116.294V70.7352ZM89.9807 70.7352H81.8951V72.2063H89.9807V70.7352ZM11.4767 77.6475C10.875 77.5768 10.0026 77.7962 9.45238 77.54C8.97718 77.3176 7.87526 75.5623 7.1176 75.3061C7.01462 75.2884 5.61993 76.3649 5.44339 76.5386C5.19035 76.7875 4.91965 77.4119 4.75929 77.5091C4.25909 77.8095 3.24691 77.5753 2.65549 77.6475V107.207H11.4767V77.6475ZM186.566 77.6475V107.207H195.387V77.6475L193.364 77.5503C192.767 76.6314 192.005 75.9923 191.053 75.4401C190.117 75.5373 189.212 77.3176 188.737 77.54C188.163 77.808 187.2 77.568 186.566 77.6475ZM120.264 78.6768H77.9244V79.2644H120.264V78.6768ZM183.772 80.7355H143.417C143.386 80.7355 143.251 80.5161 143.198 80.5882V82.2051C144.004 82.0667 147.241 81.8473 147.8 82.1948C147.876 82.2419 148.047 82.5158 148.047 82.5733V85.7349H148.488V82.5733C148.488 82.4702 148.686 82.2095 148.816 82.1551C149.252 81.9725 153.339 81.9813 153.68 82.1948C153.757 82.2419 153.927 82.5158 153.927 82.5733V85.8821H154.222V82.5733C154.222 82.5158 154.392 82.2419 154.469 82.1948C154.823 81.9754 158.061 82.0078 158.712 82.052C159.044 82.0755 159.809 82.0829 159.809 82.5733V85.7349H160.103V82.5733C160.103 82.5158 160.274 82.2419 160.351 82.1948C160.673 81.9945 164.012 81.9872 164.589 82.0564C165.03 82.1094 165.542 82.3803 165.542 82.8678V85.8821H165.837V82.5733C165.837 82.5158 166.007 82.2419 166.084 82.1948C166.438 81.9754 169.676 82.0078 170.327 82.052C170.659 82.0755 171.424 82.0829 171.424 82.5733V85.7349H171.717C171.558 85.3388 171.864 84.7159 171.864 84.4847V82.2051C172.782 82.1109 176.288 81.809 176.909 82.1948C176.985 82.2419 177.156 82.5158 177.156 82.5733V85.8821H177.597V82.5733C177.597 82.5158 177.768 82.2419 177.844 82.1948C178.218 81.9636 182.454 81.968 182.805 82.2169C182.958 82.3244 183.005 82.3833 183.038 82.5733C183.2 83.5128 183.141 84.7703 183.185 85.7364H183.772V80.7355ZM54.9915 80.7355H14.2705V85.8821H14.859V82.426C15.0841 82.1654 15.3342 82.0947 15.6652 82.0549C16.2493 81.9872 19.7286 81.9931 20.0523 82.1948C20.1288 82.2419 20.2994 82.5158 20.2994 82.5733V85.8821C20.5937 85.919 20.5407 85.9116 20.6319 85.6995C20.9512 84.95 20.4598 82.5261 20.985 82.1933C21.3381 81.9695 25.5751 81.9725 25.9326 82.1933C26.0091 82.2405 26.1798 82.5144 26.1798 82.5718V85.8807H26.6211V82.5718C26.6211 82.4687 26.8183 82.2081 26.9492 82.1536C27.3847 81.971 31.4716 81.9798 31.8129 82.1933C31.8894 82.2405 32.0601 82.5144 32.0601 82.5718V85.7334H32.3543V82.5718C32.3543 82.5144 32.525 82.2405 32.6015 82.1933C32.9561 81.9739 36.1941 82.0063 36.8444 82.0505C37.1769 82.0741 37.9419 82.0814 37.9419 82.5718V85.8807H38.2361V82.5718C38.2361 82.5144 38.4068 82.2405 38.4833 82.1933C38.857 81.9621 43.0925 81.9666 43.4441 82.2154C43.9193 82.5497 43.5707 83.5378 43.6766 84.0414L43.9694 85.8807V82.8663C43.9694 82.3789 44.4813 82.1079 44.9227 82.0549C45.5082 81.9857 48.9861 81.9931 49.3083 82.1933C49.3848 82.2405 49.5555 82.5144 49.5555 82.5718V85.8807H49.8497V82.5718C49.8497 82.5144 50.0204 82.2405 50.0969 82.1933C50.6721 81.8355 54.1485 82.0726 54.993 82.2036V80.7325L54.9915 80.7355ZM79.6898 81.9121H77.7787C77.8876 82.1344 77.9273 82.3156 77.9347 82.5659C78.0582 87.5108 77.9714 92.5205 77.9332 97.4212C77.9214 99.0264 77.8052 100.608 77.7787 102.209H79.6912V81.9135L79.6898 81.9121ZM83.9533 81.9106H82.3364L82.4821 102.207H83.9533V81.9106ZM89.8336 81.9121H86.5999V102.207L89.8336 102.06V81.9121ZM92.4788 81.9121V102.207L93.9647 102.122C94.1927 101.801 94.1148 98.5375 94.1015 97.8615C94.0927 97.4419 93.9471 97.0811 93.9412 96.6982C93.875 91.7724 94.003 86.8364 93.9485 81.9121H92.4773H92.4788ZM101.447 81.9121H96.7423V102.207H101.3L101.447 81.9121ZM105.564 81.9121H104.094V102.207H105.564V81.9121ZM111.444 81.9121H108.21L108.357 102.207H111.444V81.9121ZM115.707 81.9121H114.238V102.207H115.707V81.9121ZM120.264 82.0593L118.353 81.9121V102.207L120.264 102.06V82.0593ZM54.9915 88.5298H14.1234L14.269 102.207H15.5931V99.044C15.5931 98.3254 16.9819 97.0958 17.7381 97.0678C18.4104 97.0428 20.0037 98.0839 20.0037 98.751V102.207H21.3278C21.6441 100.985 21.1351 99.0823 21.8354 98.0839C22.7857 96.7306 24.613 96.7321 25.4486 98.1575C25.5236 98.2857 25.8841 99.1368 25.8841 99.1928V102.207H27.2067V98.751C27.2067 98.2665 28.4631 97.2652 28.9662 97.1297C29.9328 96.869 31.6158 97.9278 31.6158 98.8982V102.207H32.9384V99.0455C32.9384 98.8423 33.5489 97.8203 33.7446 97.6466C34.7421 96.7571 36.025 96.8941 36.8238 97.9528C36.9047 98.0603 37.3475 98.8452 37.3475 98.8997V102.209H38.8173V98.7525C38.8173 98.0883 40.3973 96.9942 41.0814 97.0619C43.4412 97.2946 43.4692 100.458 43.0808 102.207H44.5505V99.1928C44.5505 98.2636 45.8966 97.0075 46.8264 97.0487C47.4855 97.0781 48.2917 97.6436 48.6433 98.187C48.7272 98.3166 49.1082 99.128 49.1082 99.1928V102.207H50.4308V99.34C50.4308 98.4388 51.6607 97.1253 52.5714 97.0649C53.2687 97.0192 54.8414 98.078 54.8414 98.751V101.765H54.9886V95.2948C54.7105 95.2492 54.9179 95.5776 54.8179 95.7072C54.6296 95.9516 51.0458 95.9811 50.6765 95.7469C50.3308 95.529 50.372 92.7974 50.4235 92.2717C50.6485 90.0009 53.0937 88.923 54.5487 90.9552C54.7429 91.2276 54.712 91.6694 54.9871 91.7651C54.7605 90.6592 54.8355 89.6343 54.9886 88.5298H54.9915ZM183.772 88.5298H143.197V91.4706C143.445 91.4868 143.332 91.151 143.483 90.9493C144.943 89.0231 147.395 89.8964 147.614 92.1244C147.667 92.6575 147.681 95.4451 147.425 95.6998C146.117 96.0459 144.534 95.9177 143.197 95.7351V98.6759L144.088 97.5832C144.99 96.8779 146.027 96.9427 146.857 97.7349C147.051 97.9205 147.607 98.8379 147.607 99.044V102.206H148.93V99.3385C148.93 98.427 150.143 97.1223 151.079 97.0634C151.779 97.0192 153.339 98.0721 153.339 98.7495V102.206H154.661V99.3385C154.661 98.2783 155.866 97.0443 156.94 97.0443C157.905 97.0443 159.219 98.2297 159.219 99.1913V102.206H160.542V98.7495C160.542 98.106 161.967 97.0443 162.674 97.0443C163.409 97.0443 164.805 97.997 164.805 98.7495V102.206H166.275V98.7495C166.275 98.7068 166.634 98.1237 166.716 98.0147C167.526 96.9353 168.835 96.7512 169.879 97.6451C170.06 97.7997 170.686 98.7701 170.686 98.8968V102.206H172.155V98.8968C172.155 98.8423 172.598 98.0574 172.679 97.9499C173.59 96.7468 175.27 96.7674 176.101 98.0383C176.185 98.1664 176.566 98.9792 176.566 99.044V102.206H177.889V99.044C177.889 98.1929 179.31 97.0443 180.167 97.0443C181.025 97.0443 182.446 98.1929 182.446 99.044V102.206H183.917L183.77 88.5284L183.772 88.5298ZM54.8444 104.853H14.2705V107.354H54.8458V104.853H54.8444ZM128.202 104.853H69.8387V107.354L128.202 107.207V104.853ZM183.919 104.853H143.198V107.207H183.773L183.92 104.853H183.919Z" fill="#FF2727"/>
<path d="M65.2834 78.5304L63.9696 77.8589C61.4862 75.9401 62.7882 71.9053 65.9454 71.9038C69.1217 71.9038 70.6414 75.7266 68.1463 77.7897L66.9002 78.5289H69.6204C70.1397 78.5289 70.5752 79.6127 70.8974 80.0457C71.3079 80.5979 72.9703 82.4504 73.0498 82.8995C73.2278 83.9068 71.377 83.7978 70.7223 83.8228L70.7135 87.5573C70.7459 87.6795 71.7551 87.8165 72.0008 88.1331C72.4186 88.672 72.4686 91.6967 72.3083 92.3947C72.1744 92.9808 71.761 93.0471 71.2446 93.0942C68.595 93.3357 63.4606 93.3151 60.7933 93.0942C60.5461 93.0736 60.1239 93.0721 59.9797 92.8438C59.7767 92.5228 59.7782 89.4481 59.8532 88.9077C59.9753 88.0241 60.6373 87.7502 61.4612 87.7944V83.8228C57.3345 83.9289 59.7487 82.0116 61.0816 80.2813C61.3376 79.95 62.0879 78.5289 62.4175 78.5289H65.2848L65.2834 78.5304ZM65.6732 74.7238C65.2083 74.8784 65.4011 75.6559 65.9527 75.7384C67.0723 75.9048 66.656 74.3984 65.6732 74.7238ZM67.93 83.8243H64.255V87.6486H67.93V83.8243Z" fill="#FF2727"/>
<path d="M131.438 78.5295L130.363 78.0612C127.539 76.5165 128.546 72.0546 131.8 71.9059C135.226 71.7483 136.745 75.7684 134.076 77.858L132.762 78.5295H135.629L136.003 78.7857C136.383 79.8651 138.932 82.1359 139.045 83.04C139.153 83.8956 137.167 83.8175 136.584 83.8234L136.578 87.5505C136.653 87.8627 138.023 87.658 138.194 88.7595C138.278 89.3014 138.304 92.4557 138.067 92.8444C137.93 93.0697 137.493 93.0742 137.252 93.0948C134.622 93.3127 129.562 93.3333 126.948 93.0948C126.432 93.0476 126.018 92.9799 125.884 92.3953C125.769 91.8931 125.781 89.8949 125.849 89.3353C125.964 88.3796 126.462 87.7685 127.463 87.7891L127.47 83.8234C126.268 83.5908 124.32 84.115 125.352 82.3656C125.702 81.7736 127.47 79.4057 127.932 78.9183C128.035 78.8108 128.31 78.5295 128.425 78.5295H131.438ZM131.829 74.7258C131.5 74.8378 131.385 75.3635 131.653 75.5873C132.693 76.4605 133.122 74.287 131.829 74.7258ZM133.789 83.8234H130.261V87.6477H133.789V83.8234Z" fill="#FF2727"/>
<path d="M25.7019 95.702C25.4077 95.9951 21.6974 96.0113 21.462 95.6387C21.2428 95.2927 21.2707 92.4182 21.3619 91.8748C21.8357 89.0386 25.6078 89.1564 25.8903 92.4226C25.9359 92.9454 25.9653 95.4399 25.7034 95.702H25.7019Z" fill="#FF2727"/>
<path d="M44.7369 95.7004C44.4765 95.4397 44.5015 92.8053 44.5486 92.2737C44.8016 89.4345 48.1898 88.9589 48.9563 91.7008C49.1637 92.4445 49.38 95.422 48.6385 95.7755C48.2324 95.9684 45.0105 95.9728 44.7369 95.7004Z" fill="#FF2727"/>
<path d="M43.0487 95.7047C41.932 95.7253 40.7315 95.983 39.6237 95.8888C38.8013 95.8181 38.7366 95.7503 38.6689 94.9331C38.5233 93.1881 38.4865 90.2944 40.6962 89.8851C41.8599 89.6701 43.0957 90.8422 43.2355 91.982C43.3002 92.5151 43.3017 95.4337 43.0487 95.7047Z" fill="#FF2727"/>
<path d="M19.8216 95.7009C19.5288 95.9939 15.9641 96.0101 15.7287 95.6375C15.511 95.293 15.536 92.2771 15.6287 91.7264C16.0156 89.4247 19.211 89.2878 19.8907 91.3626C20.0628 91.8869 20.1276 95.3946 19.8216 95.6994V95.7009Z" fill="#FF2727"/>
<path d="M32.9398 91.5444C33.0516 90.9878 34.0903 90.0041 34.6641 89.8863C35.7586 89.661 37.0091 90.549 37.2798 91.6136C37.4122 92.1364 37.449 95.4188 37.168 95.7C36.7973 95.9872 32.9398 95.9474 32.9398 95.7354C33.109 94.5161 32.7118 92.6813 32.9398 91.5444Z" fill="#FF2727"/>
<path d="M31.4352 95.7032C31.1424 95.9963 27.5777 96.0125 27.3423 95.6399C27.1452 95.3292 27.1364 92.3575 27.2158 91.8495C27.6263 89.2268 31.3248 89.377 31.6205 91.8377C31.6853 92.3752 31.6867 95.4514 31.4352 95.7032Z" fill="#FF2727"/>
<path d="M164.775 95.702C164.497 95.9803 160.773 96.0156 160.533 95.6386C160.338 95.3279 160.327 92.3563 160.407 91.8482C160.608 90.5553 161.899 89.5878 163.196 89.9236C165.472 90.5141 165.072 93.9349 164.775 95.702Z" fill="#FF2727"/>
<path d="M182.267 95.7029C181.973 95.996 178.262 96.0122 178.027 95.6396C177.82 95.3112 177.831 92.5325 177.905 92.0009C178.29 89.1956 182.113 89.1396 182.449 92.1349C182.508 92.662 182.525 95.4452 182.267 95.7029Z" fill="#FF2727"/>
<path d="M176.385 95.7013C176.091 95.9944 172.381 96.0106 172.145 95.638C171.813 95.1123 172.023 92.0552 172.269 91.3631C173.1 89.0217 176.279 89.5577 176.571 91.9816C176.634 92.5073 176.636 95.4495 176.385 95.7013Z" fill="#FF2727"/>
<path d="M159.04 95.7007C158.746 95.9937 155.036 96.0099 154.8 95.6373C154.603 95.3266 154.594 92.355 154.674 91.8469C154.909 90.339 156.678 89.3215 158.035 90.23C159.655 91.3139 159.327 94.047 159.04 95.6992V95.7007Z" fill="#FF2727"/>
<path d="M170.506 95.7008C170.2 96.0071 166.603 96.0189 166.349 95.5904C166.229 95.3857 166.221 92.1269 166.288 91.7013C166.655 89.3172 170.357 89.2288 170.692 91.9825C170.756 92.5068 170.757 95.4505 170.507 95.7008H170.506Z" fill="#FF2727"/>
<path d="M149.112 95.7028C148.851 95.4422 148.877 92.8078 148.924 92.2762C149.118 90.11 151.308 88.8745 152.828 90.7344C153.749 91.8624 153.253 94.0359 153.268 95.4451C152.996 95.9915 149.462 96.0533 149.112 95.7028Z" fill="#FF2727"/>
<path d="M9.0899 90.7695C9.39738 91.0772 9.35472 95.1828 9.0899 95.8469C8.76624 96.1709 5.38398 96.1031 4.7499 95.8469C4.45861 95.5553 4.46596 91.0537 4.7499 90.7695C5.33985 90.497 8.79419 90.472 9.09137 90.7695H9.0899Z" fill="#FF2727"/>
<path d="M5.22779 82.5007C4.88353 82.4918 4.71582 82.6995 4.60254 82.1045C4.50544 81.5921 4.451 78.8928 4.81144 78.6661C5.17189 78.4393 8.81602 78.4393 9.08966 78.7132C9.39419 79.074 9.31622 82.5021 9.12497 82.5021C7.82885 82.48 6.52685 82.5331 5.22926 82.5021L5.22779 82.5007Z" fill="#FF2727"/>
<path d="M8.90409 84.5591C9.42636 84.7225 9.08504 85.6164 9.11152 85.9551C9.1689 86.7311 9.51021 87.5823 9.09093 88.3466C8.81729 88.6205 5.18345 88.6263 4.81271 88.3937C4.44198 88.161 4.35076 84.9758 4.93482 84.5576H8.90409V84.5591Z" fill="#FF2727"/>
<path d="M193.444 90.771L193.548 91.095C193.269 91.9358 193.756 95.3846 193.292 95.8485C192.758 96.1459 189.13 96.1003 188.933 95.8676C189.101 94.1742 188.47 92.4115 188.952 90.771C189.236 90.4868 193.132 90.4809 193.444 90.771Z" fill="#FF2727"/>
<path d="M193.294 78.7099C193.613 79.0294 193.552 81.9039 193.294 82.4635C192.969 82.7889 189.571 82.7182 188.954 82.4635C188.635 82.1439 188.697 79.2695 188.954 78.7099C189.244 78.4212 193.012 78.4271 193.294 78.7099Z" fill="#FF2727"/>
<path d="M188.919 84.7046H193.109C193.697 84.7046 193.475 87.7145 193.403 88.2344C193.363 88.3006 193.004 88.5289 192.961 88.5289H189.139C188.558 88.2535 188.723 84.7046 188.919 84.7046Z" fill="#FF2727"/>
<path d="M98.7644 67.0908C99.8678 66.9288 102.613 68.5604 102.95 69.5986C103.131 70.1552 103.166 74.0649 102.954 74.5244C102.878 74.6922 102.741 74.81 102.582 74.8954L95.4174 74.7806C95.3292 74.7143 95.2792 74.6216 95.2336 74.5229C95.0246 74.0782 95.0555 69.9844 95.2394 69.4499C95.4881 68.7239 97.9788 67.2042 98.7659 67.0878L98.7644 67.0908ZM100.122 72.2065C100.222 70.9872 100.215 70.3702 99.0204 69.8475L98.0891 70.5396L98.0656 72.2065H100.124H100.122Z" fill="#FF2727"/>
<path d="M96.5598 52.9692C97.1277 52.8706 97.8795 53.1607 98.1016 53.7158C98.3003 54.2121 98.2988 58.2057 98.1767 58.8625C97.9545 60.0582 95.583 60.1584 95.4167 58.755C95.3226 57.9569 95.2946 54.6303 95.4506 53.9308C95.5506 53.4846 96.1303 53.0458 96.5598 52.9707V52.9692Z" fill="#FF2727"/>
<path d="M102.441 59.5242C102.166 59.7996 100.432 59.7966 100.16 59.5242C100.077 59.4196 100.039 59.2915 100.014 59.1634C99.861 58.3653 99.858 54.731 99.9875 53.9078C100.196 52.5869 102.327 52.7371 102.593 53.9299C102.77 54.7207 102.708 57.8337 102.63 58.7585C102.608 59.0265 102.608 59.2974 102.441 59.5257V59.5242Z" fill="#FF2727"/>
</svg>
