<svg width="153" height="184" viewBox="0 0 153 184" fill="none" xmlns="http://www.w3.org/2000/svg">
<path d="M42.5741 15.2607C43.489 13.1372 41.3994 8.67342 44.4483 8.39443C48.5276 8.02023 53.1353 8.73321 57.2745 8.35901C67.2495 -2.28687 85.6606 -2.39315 95.5045 8.40772C99.6837 8.76642 104.691 7.91395 108.768 8.39886C109.272 8.45864 110.205 8.84391 110.205 9.39747V15.1477C110.4 15.4644 110.647 15.4533 110.969 15.4909C114.204 15.8696 118.87 15.4599 122.298 15.4909C123.295 15.4998 124.406 15.0237 125.261 16.0556L125.505 37.3739H134.929C135.442 37.3739 136.06 38.5563 136.135 39.0478C136.326 40.2966 135.855 47.0344 136.148 47.3289C137.034 47.2714 139.04 47.34 139.633 48.0552C140.181 48.7194 139.877 53.4933 139.91 54.7465C139.926 55.3288 140.137 55.8669 140.152 56.4957C140.194 58.1741 140.274 60.1071 139.919 61.7035H152.559C152.432 62.7287 152.881 64.4093 152.214 65.2307C151.391 66.2448 149.017 67.8789 147.9 68.8886C146.33 70.3079 144.953 72.5974 142.795 72.8874L142.788 107.128C146.099 107.98 146.81 113.055 144.462 115.223C143.958 115.688 142.917 115.838 142.797 116.436L142.83 127.91C142.966 128.304 143.736 128.344 144.123 128.612C146.701 130.412 146.143 135.74 143.012 136.822V169.969L143.23 170.635L144.878 170.762L145.208 171.094C145.482 173.47 144.955 176.275 145.228 178.593C145.266 178.914 145.255 179.162 145.573 179.355H150.007C150.078 179.355 150.969 180.088 151.064 180.292C151.571 181.368 151.169 183.201 149.796 183.347C117.182 183.462 84.5836 183.276 52.0072 183.327C38.99 183.347 25.9284 183.602 12.9823 183.569C10.946 183.564 4.40848 183.907 2.97841 183.352C1.01539 182.59 1.98135 179.355 3.21601 179.355H7.53954L7.76382 170.733L9.76903 170.372L9.64468 136.672C6.02508 134.805 6.27823 129.613 9.9489 127.906L9.87118 116.1C6.55137 114.891 6.10503 109.53 8.87857 107.597C9.3671 107.256 10.1288 107.358 10.2021 106.707L10.1976 74.1982C10.02 73.8971 10.0377 72.5974 9.97777 72.5376C9.92669 72.4867 9.07842 72.6394 8.52549 72.3272C7.73717 71.8822 4.96807 68.8709 3.99545 67.9985C2.82074 66.9445 1.51725 65.9393 0.271484 64.9695L0.444692 61.6969H12.8623V48.9807C12.8623 47.2536 15.6958 47.4883 16.855 47.5437C16.6707 45.3561 16.9993 43.1773 17.0948 41.0207C17.137 40.0508 16.5219 39.2847 17.2858 38.1356C17.399 37.9651 18.1763 37.3717 18.294 37.3717H27.4962C27.454 35.3457 27.5495 33.3086 27.505 31.2804C27.414 27.1509 26.73 21.1372 27.2941 17.156C27.5161 15.5817 28.6109 15.2562 30.0454 15.2562H42.5741V15.2607ZM64.305 8.40329H88.9182L85.4496 6.44372C78.5413 3.11799 70.4894 4.02803 64.305 8.40329ZM105.992 12.3844H46.7866C47.2041 13.279 46.9443 14.3041 47.0087 15.2585H105.99V12.3844H105.992ZM121.515 19.461H31.4866V24.1042H121.512V19.461H121.515ZM31.4866 28.5282V40.58C31.4866 40.921 30.4762 41.5742 30.2675 41.5742H21.0653V47.3245H131.714V41.5742H122.734C122.472 41.5742 121.515 40.6177 121.515 40.3586V28.5259H109.097C113.369 37.675 102.468 44.404 96.0175 36.9288C96.0175 38.1422 96.2995 39.1807 95.1226 39.9091L58.1539 39.856C56.7771 39.3069 57.048 37.1569 56.877 37.1458C55.9533 38.7511 53.5706 39.8449 51.7741 40.0221C44.8347 40.7062 40.9397 34.2674 44.1263 28.3045L31.4866 28.5237V28.5282ZM91.8006 28.3089H61.2006V36.0498H91.8006V28.3089ZM49.8333 29.0241C49.0339 29.1703 48.1323 29.9895 47.7126 30.6671C45.7451 33.84 49.9177 37.4337 52.6668 35.1663C55.387 32.9233 53.3019 28.3931 49.8333 29.0241ZM102.368 29.0485C98.9243 29.1415 97.9406 34.77 101.551 35.7221C106.672 37.0728 107.158 28.9179 102.368 29.0485ZM135.926 51.5293H17.0748V61.7013H135.926V51.5293ZM144.576 65.9038H8.20572L10.9704 68.5742H141.811L144.576 65.9038ZM138.587 106.818C138.604 102.285 138.564 97.744 138.578 93.2071C138.593 87.6561 138.418 81.99 138.578 76.3991C138.609 75.3208 139.095 74.0986 138.711 72.9671L138.254 72.759H14.1903L14.4123 106.818L17.3213 106.687C17.8165 105.702 17.3102 104.779 17.288 103.84C17.2569 102.615 16.9016 98.1537 18.1163 97.7927L41.1374 97.7462C41.6215 97.64 42.5741 98.3352 42.5741 98.7449V106.818H46.1226V74.1982C46.1226 74.1495 46.6245 73.5849 46.72 73.4122L105.004 73.193C106.03 72.9694 106.879 74.2292 106.879 75.0839V106.82H110.205V98.9685C110.205 98.4614 111.475 97.5425 112.079 97.7418C119.185 98.2179 127.035 97.1462 134.052 97.7418C134.532 97.7817 135.484 97.8769 135.484 98.5256V106.818H138.589H138.587ZM102.666 77.4044L50.4617 77.1785L50.3307 78.1617L102.537 78.2901L102.666 77.4022V77.4044ZM70.9579 82.269H50.1153L50.4484 104.387C52.8888 94.6464 61.0696 86.9011 70.9291 84.8928L70.9579 82.269ZM74.9484 82.269V88.4621C64.7869 89.3279 56.0887 97.0731 54.1057 107.037H56.5417C58.3071 96.3978 68.7729 89.8593 79.243 91.1435C87.7391 92.1864 94.7407 98.4061 96.4838 106.789L98.8976 106.705C96.6171 96.8052 88.2498 89.4231 78.0816 88.4311L77.9551 82.4771L74.9484 82.269ZM102.666 82.269H82.0432L82.0654 84.9017C89.9153 86.4959 96.7437 91.6749 100.485 98.7072L102.666 104.163V82.269ZM58.3182 179.357H94.4609V116.328L93.1396 116.319C92.9886 115.017 92.3713 113.633 91.8383 112.42C91.4986 111.647 89.0404 107.367 89.3601 107.041H92.0204C90.0663 98.9618 81.7323 93.9356 73.5649 95.3793C67.6603 96.4222 62.1954 101.13 60.9763 107.039H63.6366C63.8564 107.256 62.0822 110.31 61.8246 110.872C61.0451 112.573 60.3878 114.348 59.7616 116.113L58.5358 116.33L58.3071 119.308L58.316 179.359L58.3182 179.357ZM38.3616 101.953H21.7315V106.596H38.3616V101.953ZM131.27 101.953H114.417V106.596H131.27V101.953ZM39.9138 110.799H12.0851C11.1614 110.799 11.3768 112.347 11.8631 112.347H39.9138V110.799ZM44.1263 112.347H56.544L56.766 111.02C52.5713 110.64 48.3388 110.85 44.1263 110.797V112.347ZM108.875 112.347L108.777 111.005C108.36 110.398 102.542 111.005 101.458 111.029C100.474 111.051 99.6238 110.79 98.7955 110.79C97.9672 110.79 96.928 111.242 96.0131 111.023L96.4572 112.347H108.875ZM113.087 112.347H141.138L141.451 111.99C141.711 111.536 141.067 110.797 140.694 110.797H112.865L113.087 112.344V112.347ZM17.0748 127.607V116.881C16.3709 116.217 15.1118 116.678 14.1925 116.549V127.607H17.0748ZM21.3984 125.838H39.0256L38.8013 116.551C32.9411 116.54 27.1298 116.875 21.2851 116.549L21.1075 125.34L21.3984 125.838ZM45.9006 127.828V116.881C45.1278 116.113 43.9464 116.791 43.0182 116.771V127.607L45.9006 127.828ZM54.1057 116.549H50.1153V128.271C50.1153 128.371 51.2633 128.738 51.7652 129.389C53.4351 131.557 52.9332 135.735 50.1486 136.71L50.1131 170.182L50.4772 170.704L52.1094 170.735V179.359H54.1057V116.551V116.549ZM102.888 116.549H98.8976V179.357H100.672V170.733L102.462 170.638L102.886 168.851L102.673 136.61C99.7948 135.073 99.4639 130.576 102.015 128.612C102.322 128.375 102.89 128.318 102.89 128.271V116.549H102.888ZM109.983 116.549C108.999 116.687 107.647 116.204 106.879 116.881V127.607H109.983V116.549ZM131.936 125.838V116.881L131.603 116.549H114.306L113.973 116.881V125.838H131.934H131.936ZM135.926 116.549V127.607H138.811L138.822 117.107L138.444 116.58L135.926 116.549ZM39.9138 131.586H19.7351V133.134H39.9138V131.586ZM133.266 131.586H112.865V133.134H133.266V131.586ZM15.3006 131.807H11.8631C11.812 131.807 11.4189 132.21 11.3745 132.359C11.3301 132.64 11.8342 133.136 12.0851 133.136H15.3006V131.809V131.807ZM44.3484 133.136H47.7859C47.8436 133.136 48.3899 132.62 48.321 132.392C48.3011 132.274 47.8258 131.807 47.7859 131.807H44.3484V133.134V133.136ZM108.653 131.807H105.215C104.776 131.807 104.776 133.134 105.215 133.134H108.653V131.807ZM137.701 133.136H140.916C141.016 133.136 141.493 132.589 141.478 132.363L141.138 131.809H137.701V133.136ZM16.8528 137.336H13.9682V170.509H15.7425V164.759H16.8506V137.336H16.8528ZM38.8057 137.336H21.0675V164.538H39.0278L38.8057 137.336ZM43.0182 137.336V164.759H44.1263V170.509H45.9006V137.336H43.016H43.0182ZM109.763 137.336H106.879L107.101 170.512H108.653L108.875 164.759H109.985L109.765 137.336H109.763ZM131.936 137.336H113.976V164.538H131.936V137.336ZM138.809 137.336H136.148V164.759H137.256V170.509H138.809V137.336ZM39.9138 168.74H20.2903L19.9927 169.105L19.9572 170.509H39.9138V168.74ZM133.044 168.74H113.642C113.583 168.74 113.125 168.966 113.081 169.112L113.09 170.509H133.046V168.74H133.044ZM13.7484 174.712H11.752V179.355H13.7484V174.712ZM42.13 174.712H17.7388V179.025L18.0719 179.357H42.352C42.4342 179.118 42.13 178.872 42.13 178.804V174.712ZM48.119 174.712H46.3447V179.355H48.119V174.712ZM135.262 174.712H110.649V179.355H134.929L135.262 179.023V174.71V174.712ZM141.249 174.712H139.475V179.355H141.249V174.712ZM106.434 174.933H104.66V179.357H106.434V174.933Z" fill="#FF2727"/>
<path d="M122.357 79.461C133.702 78.7347 135.412 95.0645 125.072 97.2078C111.969 99.9246 109.883 80.2581 122.357 79.461ZM122.576 83.6414C121.566 83.7233 119.934 84.6777 119.297 85.4748C115.539 90.1977 122.139 96.2646 126.398 91.6723C129.394 88.4418 126.594 83.3204 122.576 83.6414Z" fill="#FF2727"/>
<path d="M36.2871 95.0188C31.5195 99.6443 22.908 97.5053 21.3513 90.9402C19.6304 83.6799 25.2529 77.9296 32.5632 79.7585C39.2827 81.4391 41.1392 90.3114 36.2871 95.0188ZM29.4388 83.6445C25.4928 84.1936 23.623 89.2065 26.7208 92.0008C30.8067 95.6853 36.6202 90.9203 34.2375 86.2749C33.4403 84.7228 31.2153 83.3987 29.4388 83.6467V83.6445Z" fill="#FF2727"/>
</svg>
