<svg width="185" height="137" viewBox="0 0 185 137" fill="none" xmlns="http://www.w3.org/2000/svg">
<path d="M113.787 60.7486H116.968V37.9866C115.841 37.3754 115.011 36.9553 115.467 35.49C115.847 34.2696 117.081 34.5842 117.167 34.5065C117.288 34.395 117.157 31.6854 117.157 31.2176C117.157 30.897 117.374 30.4252 117.332 30.25C117.235 29.8319 115.652 29.6607 116.209 27.8828C116.351 27.4309 116.884 27.4687 116.968 27.2039C117.308 26.1049 117.093 24.9343 117.728 23.6362C118.65 21.7528 120.141 21.3965 121.033 20.182C121.77 19.1786 121.576 16.2599 123.219 16.4172C124.634 16.5526 124.6 19.0094 125.23 19.9849C126.165 21.4363 127.929 21.8384 128.799 23.9727C129.275 25.1413 129.07 26.1846 129.331 27.0267C129.436 27.3652 130.298 27.4687 130.314 28.6393C130.334 30.1126 129.155 29.9991 129.09 30.2659L129.098 34.5085C131.964 34.0626 132.364 37.3675 129.683 38.0085L129.894 77.6494L133.475 77.8465V73.6715C133.475 73.58 132.562 73.6656 132.669 72.1843C132.755 70.9858 133.742 70.942 133.852 70.5617C133.939 70.2571 133.511 69.1024 133.479 68.6007C133.203 64.3521 134.373 60.9975 137.558 58.1724C139.205 56.713 141.715 55.6021 142.583 53.4539C143.212 51.8971 142.77 48.6877 145.267 49.2651C146.507 49.5518 146.529 51.9906 146.995 53.1035C148.032 55.5862 150.57 56.5179 152.463 58.1744C156.158 61.4076 157.327 66.0106 156.134 70.7549C156.166 70.9201 157.554 71.4457 157.552 72.5825C157.552 73.2375 157.018 73.5083 156.934 74.1633C156.682 76.1542 157.146 78.6488 156.934 80.6994L161.119 81.4281V68.8038C161.119 68.318 158.314 63.2014 157.902 62.0785C156.855 59.2256 158.171 58.4929 160.92 58.7657L160.91 45.1559C160.597 43.4616 157.251 42.5139 157.918 40.7679C158 40.5549 158.501 39.878 158.633 39.878H161.515V34.9087C161.515 34.8171 160.456 34.6359 160.558 33.4673C160.633 32.5913 161.475 32.2946 161.607 31.9363C161.692 31.7033 161.463 31.2176 161.509 30.8433C161.77 28.6513 162.409 26.9093 163.898 25.2588C165.387 23.6083 167.133 23.3555 167.92 21.1277C168.278 20.1123 168.168 18.5037 169.462 18.0935C171.626 17.4087 171.523 20.7275 172.369 21.9698C173.705 23.9309 175.998 24.4983 177.336 27.1422C178.349 29.145 177.901 30.0847 178.275 31.7969C178.381 32.2747 179.426 32.5973 179.426 33.6126C179.426 34.5623 178.548 34.7614 178.425 35.4064C178.343 35.8345 178.381 39.5057 178.508 39.6888C179.566 40.2503 181.288 39.2947 182.01 40.5609C183.053 42.3865 179.06 43.5114 179.014 45.337L179.046 58.4352L179.345 58.7338C185.175 58.3237 181.755 62.5623 180.575 65.3874C180.081 66.566 179.591 67.7725 179.213 68.9949L179.219 132.915H183.495C183.706 132.915 184.632 133.779 184.761 134.034C185.355 135.19 184.829 136.616 183.599 136.996L1.22474 137.002C0.0700987 136.488 -0.312128 135.168 0.267185 134.036C0.396584 133.783 1.32428 132.917 1.53331 132.917H5.80948L5.81346 69.196C5.16845 66.5521 3.00449 63.6653 2.32165 61.1547C1.68063 58.7955 3.9083 58.5706 5.68008 58.7358L5.91897 58.5765L5.99661 45.1539C5.72985 43.7025 2.66606 42.3288 2.85518 41.0148C3.07616 39.4798 5.50887 39.9178 6.60379 39.876V35.2034C6.60379 35.0958 5.48299 34.7295 5.59248 33.4135C5.68008 32.3603 6.54009 32.2847 6.70333 31.9383C6.78495 31.7631 6.55402 31.2036 6.59782 30.8413C6.86259 28.6632 7.637 26.4633 9.19179 24.8666C10.5873 23.4331 12.2576 23.1425 13.0638 20.9843C13.4202 20.0267 13.3386 18.4738 14.5509 18.0935C16.699 17.4166 16.6771 20.3333 17.2444 21.5856C18.3413 23.9986 21.5564 24.6456 22.8644 28.2929C23.3441 29.6308 23.1092 30.6263 23.4417 31.6914C23.7741 32.7565 25.0204 32.8581 24.2579 34.3632C24.0489 34.7753 23.6049 34.9206 23.5114 35.4044C23.2904 36.5492 23.6388 38.3231 23.5353 39.5475C23.8279 40.4434 27.0271 38.9502 27.1027 41.1721C27.1485 42.5199 24.3933 43.7344 24.1166 45.1519L24.1046 58.5606C31.8527 58.3834 23.6726 66.4625 23.7323 70.0143L23.8976 81.3266L28.0842 81.0239C27.8612 78.8977 28.3768 76.206 28.0941 74.1533C27.9946 73.4326 27.4431 73.4048 27.471 72.5805C27.5068 71.5094 28.6018 71.2207 28.6854 70.5757C28.761 69.9983 28.327 68.6943 28.2832 67.9995C28.0921 64.9315 29.2069 61.3777 31.355 59.1479C33.8872 56.5159 36.8495 56.3427 38.0798 52.353C38.4043 51.3038 38.2231 49.5637 39.5589 49.2591C41.9419 48.7136 41.689 51.4153 42.1927 52.9025C43.1801 55.8072 46.6222 57.0535 48.5691 59.2514C50.2195 61.1129 51.4299 64.1292 51.5433 66.6138C51.5991 67.8183 51.0357 69.5663 51.1432 70.3786C51.2507 71.1909 52.9847 71.7105 51.9495 73.5381C51.8439 73.7233 51.5473 73.6476 51.5473 73.6695V77.5458C51.5473 77.5956 51.3124 77.6971 51.4358 77.8445C51.5652 78.0057 51.6369 78.0356 51.84 78.0475C52.7258 78.0973 54.1493 77.508 55.1267 77.6454L55.1387 37.8074C52.7219 37.2639 53.4784 33.9829 55.923 34.5065L55.8912 30.1624C54.7724 29.9613 54.3424 28.709 54.842 27.7614C55.6762 26.1786 55.4512 26.2921 55.8932 24.6356C56.6795 21.6752 58.509 21.8225 59.592 20.184C60.2689 19.1587 60.1116 16.3157 61.7739 16.4212C63.2391 16.5128 62.9863 19.089 63.7049 20.0665C64.2942 20.8669 65.8112 21.5876 66.6254 22.7124C67.9871 24.5938 67.3998 25.3305 67.8915 27.0128C68.1065 27.7454 69.4821 27.9843 68.5325 29.5233C68.2797 29.9334 67.7522 30.0788 67.6964 30.1743C67.4058 30.674 67.8238 33.6843 67.6546 34.5065C70.0356 34.2816 70.374 37.24 68.1443 37.8791C68.0289 40.4175 67.8258 42.9858 67.8437 45.5501C67.8756 49.9141 68.1543 54.2841 68.0607 58.6701C68.0528 59.0285 67.5571 60.7486 68.1523 60.7486H71.234V54.6843C71.234 54.5927 70.2565 53.5794 70.0754 53.2588C68.2518 50.0236 70.5233 46.9716 72.7788 44.7218C70.9015 38.8646 71.2659 32.4957 75.0463 27.4846C79.0418 22.1888 88.4959 17.2713 90.2279 10.6535C90.5265 9.51077 91.6831 0.926008 92.4138 0.914062C92.7601 1.17487 92.9075 1.46156 93.0588 1.85576C93.9586 4.18909 94.0143 7.6453 94.6753 10.1797C96.7238 18.0438 106.877 22.1908 110.892 28.9559C113.842 33.9272 113.805 39.2648 112.232 44.7059C114.651 47.085 116.534 50.0475 114.75 53.4579C114.567 53.8103 113.791 54.6087 113.791 54.6863V60.7506L113.787 60.7486ZM87.9345 21.1874H96.883L92.6049 16.017L87.9345 21.1874ZM63.6731 26.9531C63.9518 25.4559 62.7115 24.7173 61.7858 23.8214C60.6989 24.4804 59.4288 25.5037 59.6955 26.9531H63.6731ZM87.1402 23.9727C86.5509 24.0364 85.8164 23.8672 85.255 23.9727C84.9663 24.0284 81.7472 26.7042 81.2695 27.1442C76.2049 31.8049 74.6462 36.4696 76.8022 43.2526L81.6875 42.066C80.5687 35.4542 82.7446 28.9201 87.1422 23.9687L87.1402 23.9727ZM96.246 24.0145L88.8722 23.9667C84.5622 28.926 82.0857 35.2033 83.1647 41.8629H101.657C102.531 37.3515 101.474 32.6032 99.3058 28.6075C98.4259 26.9869 97.2533 25.5475 96.246 24.0145ZM108.218 43.2546C110.249 36.4457 108.638 31.5819 103.552 26.9471C103.054 26.4932 100.443 24.2474 100.062 24.0742C99.469 23.8015 98.5314 24.0503 97.8784 23.9727C101.095 27.7554 103.208 32.5833 103.445 37.5904C103.52 39.1991 103.18 40.6624 103.257 42.2511L108.218 43.2546ZM125.321 26.9531C125.289 25.649 124.3 24.5958 123.233 23.9647C122.158 24.5998 121.174 25.6032 121.344 26.9531H125.321ZM19.1277 31.126C19.0958 28.5079 17.0493 27.0108 15.0168 25.7864C13.0598 27.0307 10.7446 28.4661 10.9755 31.126H19.1257H19.1277ZM174.043 31.128C174.27 28.4542 171.869 27.2736 170.135 25.7884C168.117 26.7798 165.716 28.6453 165.889 31.126H174.043V31.128ZM62.2815 30.7298H61.2881V34.0108C61.2881 34.3851 62.2815 34.3851 62.2815 34.0108V30.7298ZM123.73 30.7298C123.42 30.7178 122.616 30.6422 122.582 31.0284C122.6 31.12 122.735 31.1857 122.735 31.2275V34.1103H123.729V30.7298H123.73ZM10.5774 35.3029V39.6769H11.3737V35.8006C11.3737 35.6951 11.6922 35.3885 11.5708 35.1058L10.5774 35.3029ZM19.5259 35.3029L18.3832 35.5916C18.4608 36.2605 18.6857 37.1704 18.7116 37.8074C18.7315 38.3032 18.3851 38.791 18.5603 39.3444C18.7475 39.9278 19.5259 39.6212 19.5259 39.3783V35.3029ZM165.491 35.7986C165.499 37.0907 165.485 38.3848 165.491 39.6749H166.287V35.9977C166.287 35.8962 166.602 35.5796 166.484 35.3029C166.176 35.287 165.369 35.2153 165.337 35.5995C165.355 35.6911 165.491 35.7568 165.491 35.7986ZM174.439 35.3029H173.643V39.3783C173.643 39.5893 174.208 39.7565 174.439 39.6769V35.3029ZM15.5483 39.6769V36.7941C15.5483 36.7403 15.1601 36.366 15.0208 36.3382L14.3558 36.4954V39.6769H15.5483ZM170.663 39.6769V36.595C170.663 36.2008 169.47 36.2008 169.47 36.595V39.6769H170.663ZM63.6731 47.0313V38.1837C63.6731 38.134 63.8343 38.0663 63.8284 37.9846L63.5735 37.686H59.2974L59.3213 46.7147C59.4586 47.2921 60.665 46.8203 61.1767 46.8222C62.0387 46.8242 62.831 46.8979 63.6731 47.0293V47.0313ZM125.52 37.688H121.144V47.0313C122.626 46.7585 124.041 46.7585 125.52 47.0313V37.688ZM19.7249 43.8518H10.1792V58.5626H10.9755V50.9096C10.9755 50.7762 11.5907 49.8902 11.7639 49.7091C11.947 49.5179 14.3976 47.6087 14.5589 47.533C14.7201 47.4573 14.8635 47.4096 15.0526 47.4096C15.7673 47.4116 18.4568 49.938 18.9306 50.7105V58.5626H19.7269V43.8518H19.7249ZM174.837 43.8518H165.093V58.5626H165.889V50.9096C165.889 50.7742 166.504 49.8902 166.677 49.7091C167.099 49.2611 169.458 47.4016 169.952 47.4335C170.446 47.4653 173.313 49.8365 173.615 50.3442C173.695 50.4756 174.043 51.256 174.043 51.3077V58.5646C174.274 58.6442 174.839 58.477 174.839 58.2659V43.8538L174.837 43.8518ZM111.201 50.808C111.523 50.4955 109.966 48.1323 109.471 47.8675C108.668 47.4374 105.905 46.9497 104.846 46.7267C99.5706 45.6098 89.8735 45.2614 84.5064 45.8905C82.8362 46.0856 76.6967 47.3837 75.3529 48.0705C74.686 48.411 73.7643 49.9798 73.814 50.7065C73.8837 50.9454 74.25 50.7662 74.4232 50.7204C77.0351 50.0415 81.8547 48.2258 84.2875 48.0984C89.5809 47.8217 95.0834 48.7255 100.363 48.0248L111.201 50.806V50.808ZM125.52 50.6109C124.168 50.3063 123.058 50.1072 121.676 50.4457L121.371 50.7383L121.344 66.3172H125.52V50.6109ZM63.6731 66.3152V50.7085L63.3745 50.4099H59.9941C59.9225 50.4099 59.6716 50.6129 59.5283 50.6428L59.4825 50.9016L59.4964 66.3152H63.6731ZM14.1568 51.903V58.264C14.5549 58.7278 15.5483 58.7278 15.9465 58.264V52.1021C15.9465 51.9647 15.1482 51.0131 15.0506 51.0131C14.8973 51.2401 14.2025 51.7398 14.1568 51.903ZM170.663 58.5626V51.7039C170.663 51.6482 170.026 50.9792 169.795 51.023C169.646 51.1186 169.072 51.6522 169.072 51.7039V58.5626H170.663ZM97.2812 60.5495C97.6097 60.7048 98.8718 60.9178 98.8718 60.45V52.1001L98.5732 51.8015H86.1448V60.5495L87.4468 60.6988L87.7355 60.45V57.0694C87.7355 56.3109 91.7946 53.7247 92.6069 53.2011C92.8298 53.1931 92.9931 53.3205 93.1782 53.4181C93.4888 53.5814 96.455 55.8132 96.6959 56.064C96.8691 56.2452 97.2812 56.8823 97.2812 57.0694V60.5475V60.5495ZM83.1627 52.3988L75.4066 54.6843V60.45C75.4066 60.8442 76.5991 60.8442 76.5991 60.45V57.2685C76.5991 56.6434 79.9297 54.6883 80.4751 54.0393L83.1607 55.5802V52.3988H83.1627ZM108.418 57.0714V60.452C108.418 60.8461 109.61 60.8461 109.61 60.452V54.4872L102.055 52.3988L101.856 55.5782C102.859 55.5703 103.821 53.882 104.695 54.0194C105.087 54.0811 108.322 56.6215 108.418 57.0694V57.0714ZM90.9187 57.7662V60.5495C92.0076 60.1931 93.9347 61.4474 94.1099 60.0617C94.2751 58.7497 94.2433 57.607 92.9712 56.9977C91.8942 56.4821 91.8524 57.5651 90.9187 57.7662ZM105.435 60.5515C105.362 59.2853 105.891 57.7463 104.37 57.1869C102.808 57.9733 103.289 59.0424 103.246 60.5515H105.435ZM81.7214 58.0131C81.6915 57.9613 80.7339 57.4118 80.6742 57.4158C79.3543 58.1564 79.86 59.4744 79.7804 60.7506L81.8866 60.5595C81.9941 60.4022 81.8448 58.2221 81.7214 58.0131ZM32.858 69.0905C37.0307 68.2961 41.263 68.5689 45.4854 68.6923C45.9115 68.7042 46.5286 68.983 46.8412 68.8854C47.5061 68.6744 47.2453 65.7816 47.078 65.1146C46.1802 61.533 42.4714 60.1852 40.1084 57.7762C38.0081 59.7014 35.012 60.7964 33.5627 63.3507C32.5076 65.2082 32.4181 67.0259 32.858 69.0925V69.0905ZM137.877 68.6744C142.501 68.9352 147.309 68.2563 151.854 69.0726C152.535 68.9013 152.396 66.2315 152.314 65.6721C151.751 61.7898 147.558 60.0777 144.906 57.8041C141.436 60.7964 136.376 63.068 137.877 68.6744ZM21.9128 62.7375H7.79228L8.71002 65.1365L20.6208 65.1246C21.2658 65.0071 21.6381 63.3507 21.9128 62.7395V62.7375ZM177.025 62.7375H163.106C163.146 63.3348 163.817 65.0171 164.398 65.1246L176.052 65.0012L177.025 62.7395V62.7375ZM116.968 64.9235H68.0468V70.0919H116.968V64.9235ZM19.7249 82.0214C19.7528 81.6491 19.5318 81.3206 19.5438 80.9503C19.6453 77.6872 20.1091 73.1678 19.7349 69.9844C19.701 69.6957 19.711 69.4727 19.4263 69.2995H9.98013V82.0234H19.7249V82.0214ZM175.037 69.2975H165.292V82.0214H174.539C174.589 82.0214 174.656 82.1826 174.738 82.1767L175.037 81.9218V69.2975ZM63.6731 69.6957H59.2974L59.4964 78.0455H63.6731V69.6957ZM125.52 69.6957H121.144V78.0455H125.52V69.6957ZM35.237 72.8752L32.1473 73.6636C31.7253 74.3027 32.2668 76.7256 32.2707 77.5478C32.2747 78.3701 31.8487 79.479 32.0557 80.4306L35.237 80.0325V72.8752ZM44.9798 78.8399L47.4782 78.4557C47.8246 77.9639 47.4205 76.19 47.4065 75.5609C47.3946 75.0532 47.8863 73.7571 47.3707 73.3689L44.9798 72.8772V78.8419V78.8399ZM139.838 72.8752L137.461 73.2813L137.568 78.4636L139.589 78.8001C140.351 78.7782 139.836 77.8644 139.828 77.3567C139.81 75.8635 139.862 74.3664 139.836 72.8752H139.838ZM152.764 80.2316V74.3664C152.764 74.2628 153.076 73.9383 152.963 73.6715L149.979 73.0743L149.804 79.7199L150.108 80.0046L152.764 80.2336V80.2316ZM116.968 74.2668H68.1463L67.8477 132.913H72.2234V80.132C72.2234 79.5746 73.2387 78.5433 73.9096 78.6368C85.7746 78.7882 97.6554 78.4457 109.52 78.6508C110.406 78.6667 111.266 78.2805 112.102 79.031C112.288 79.1963 112.791 80.1678 112.791 80.3311V132.915H116.968V74.2688V74.2668ZM146.003 79.1385C145.888 78.3024 146.003 77.0561 146.003 76.1562C146.003 75.9173 145.066 75.4176 144.717 75.4554C144.462 75.4813 143.815 76.0507 143.815 76.1562V79.2381L146.202 79.4352C146.304 79.3635 146.011 79.1943 146.003 79.1385ZM39.0135 76.3553C38.8124 77.0819 39.1608 78.599 39.0135 79.4372L41.1993 79.2361L40.7574 75.9073C40.2597 75.4016 39.1687 75.8058 39.0154 76.3553H39.0135ZM63.6731 81.4241H59.4964L59.2934 100.415L59.4964 100.819C59.6438 100.943 59.7453 100.708 59.7951 100.708H63.6731V81.4241ZM125.52 81.4241H121.144V100.708H125.52V81.4241ZM55.1227 81.8223L23.7025 85.7981V88.6809L55.1227 85.2028V81.8223ZM129.894 81.8223V85.2028L161.008 88.9836L161.328 86.0888L161.286 85.826L129.894 81.8223ZM76.9973 132.915L77.2063 126.046C77.2003 118.451 76.5055 110.153 76.9893 102.589C77.5925 93.1744 85.0698 90.1721 92.4416 86.4392C98.9236 89.9252 107.199 92.8559 107.828 101.397C108.107 105.186 107.974 109.321 108.029 113.125C108.117 119.1 107.398 126.713 108.009 132.429C108.041 132.718 108.113 133.329 108.519 132.919L108.429 82.7043L76.398 82.8177V132.799L76.9953 132.917L76.9973 132.915ZM19.7249 86.1963H9.98013V119.992H19.7249V86.1963ZM175.037 119.992V86.4929L174.738 86.1943H165.292V119.99H175.037V119.992ZM55.1227 89.3758L23.7025 93.1525V132.614L24.0011 132.913H28.8725V106.372C28.8725 103.967 32.9058 100.883 34.7771 99.7504C35.3325 99.4139 37.4746 98.0939 37.9046 98.1238C40.8091 99.4955 44.6812 101.596 46.2081 104.546C46.3873 104.891 46.9686 106.3 46.9686 106.571V132.913H55.1227V89.3758ZM161.117 93.1545L129.896 89.3758V132.915H138.05V106.573C138.05 105.08 140.12 102.567 141.229 101.6C142.024 100.907 146.286 98.1118 147.098 98.1118C147.574 98.1118 150.741 100.011 151.356 100.427C152.995 101.536 156.146 104.461 156.146 106.573V132.915H161.117V93.1545ZM103.845 132.913V101.801C103.845 101.672 103.574 100.604 103.506 100.35C102.232 95.5097 96.5048 93.4312 92.5949 91.1576C89.4097 92.814 84.375 94.9722 82.5276 98.1835C82.2529 98.6593 81.373 100.788 81.373 101.204V132.913C81.9364 132.805 83.7281 133.203 83.9311 132.586L83.9769 118.118C84.3492 116.309 85.7527 115.011 87.1581 113.943C87.9325 113.356 92.0236 110.826 92.7283 110.945C93.2439 111.035 96.0409 112.737 96.67 113.147C98.181 114.133 101.261 116.51 101.261 118.499V132.911H103.847L103.845 132.913ZM42.7919 132.913V107.368C42.7919 105.844 39.2285 103.38 37.9205 102.761C36.4195 103.682 33.6145 105.261 33.1407 107.063C32.8043 108.341 33.1069 110.704 33.0551 112.148C32.86 117.607 32.6928 123.159 32.8381 128.65C32.8719 129.948 33.3239 131.238 32.862 132.592L33.1447 132.915H42.7899L42.7919 132.913ZM151.97 132.913V107.368C151.97 106.089 148.227 102.95 147.078 102.892C146.563 102.866 144.213 104.624 143.722 105.086C142.41 106.322 142.141 107.149 142.016 108.948L142.223 132.913H151.968H151.97ZM63.8721 104.089H59.4964L59.596 132.915H63.6731L63.8721 104.089ZM125.52 104.089H121.443V132.915H125.52V104.089ZM97.0821 132.913V119.096C95.9792 117.521 94.2433 116.567 92.6069 115.618C92.0534 115.618 88.7229 118.108 88.3606 118.728C87.4468 120.29 88.1237 122.769 88.1416 124.453C88.1655 126.835 88.1993 129.259 88.1416 131.629C88.1296 132.134 87.7394 132.592 88.2312 132.913H97.0801H97.0821ZM19.5259 132.913C19.2252 130.315 20.0335 127.386 19.7349 124.852C19.701 124.563 19.711 124.34 19.4263 124.167H9.98013V132.915H19.5259V132.913ZM175.037 124.167H165.292V132.915H175.037V124.167Z" fill="#FF2727"/>
</svg>
