<svg width="195" height="173" viewBox="0 0 195 173" fill="none" xmlns="http://www.w3.org/2000/svg">
<path d="M9.5952 128.552C9.8529 127.105 12.5719 125.793 13.9368 125.597C13.7905 124.468 14.1464 123.315 14.1858 122.26C14.2469 120.663 13.9586 119.173 13.9477 117.698C13.8866 107.982 14.2229 98.2852 14.177 88.5714C14.0482 87.8795 13.2095 87.9252 12.6396 87.4945C11.5498 86.6721 10.4819 85.0383 10.0953 83.7264C9.70877 82.4145 9.15406 78.2048 10.032 77.2737C10.1827 77.1149 12.585 75.927 13.0392 75.7051C13.7512 75.357 15.8106 74.8219 15.9241 74.2323L16.4701 40.2197C14.4893 39.0318 13.1287 33.9236 13.5306 31.8656C13.7861 30.5559 17.6472 29.3745 17.8525 28.785C18.1233 26.3005 17.6079 23.4331 17.8875 20.9987C18.036 19.7042 18.8462 19.4758 18.975 18.8188C19.1803 17.768 18.713 16.3408 19.0755 14.794C19.6782 12.2203 21.2616 10.7388 23.2991 9.22457C23.7512 6.66612 21.8643 -0.410953 26.2845 0.0198068C30.0146 0.383124 28.0862 6.7575 28.6104 9.22892C31.2463 10.928 33.083 13.4125 33.1551 16.6519C33.1704 17.3111 32.7751 17.9812 32.9432 18.8209C33.0808 19.5149 33.8998 19.6433 34.033 20.7768C34.3278 23.2612 33.7731 26.2439 34.0636 28.7872C34.2426 29.3093 38.1693 30.7604 38.3899 31.8699C38.582 32.8359 37.8919 36.06 37.5272 37.0869C37.0926 38.3117 36.444 39.3886 35.4503 40.2327L35.7757 73.1423L36.0269 74.7392L41.9933 77.5979C42.5043 81.5574 41.9824 86.2957 37.9553 88.1384V115.189C38.4663 115.32 38.32 115.07 38.4554 114.913C40.8336 112.154 42.9062 109.822 46.5816 108.68C46.61 105.921 46.8241 103.65 50.2506 104.079L50.5782 103.752C50.8948 95.2677 50.0759 86.8266 50.5214 78.3506C49.4557 77.265 48.9752 76.1185 49.768 74.6979C50.7747 72.8987 50.4515 73.2054 50.9254 71.2888C51.5587 68.7238 53.5417 67.0007 55.5902 65.5061C55.9287 63.4546 54.946 60.5676 56.383 58.9077C57.9073 57.1498 60.6066 58.1854 60.8665 60.3196C61.0631 61.9295 60.6787 63.8571 60.8949 65.5061C62.9849 66.744 65.1273 68.7717 65.5619 71.2866C65.6929 72.0437 65.5335 72.9313 65.706 73.5339C65.8545 74.0561 66.763 74.6239 66.9224 75.5898C67.2697 77.6784 65.5946 77.7654 65.4287 79.0011C65.0989 81.4682 65.6776 84.192 65.6667 86.6286C65.6645 87.1529 65.4308 87.6163 65.4308 88.1297C65.4374 91.2103 65.4461 94.2931 65.4418 97.3715L67.7349 96.2902C68.5495 83.0998 78.5211 71.5433 91.0872 67.8362C91.203 64.8339 92.3583 62.245 94.8545 60.5089C95.2803 58.0244 93.5026 51.7197 97.6215 51.7784C101.332 51.8328 99.7879 58.0092 100.17 60.2826C102.391 62.332 103.959 64.6337 103.863 67.7948C116.521 71.4889 126.473 83.176 126.986 96.4751L129.356 97.5912V78.3615C129.356 78.2244 127.947 77.7045 127.903 76.1555C127.86 74.6065 129.094 74.167 129.142 73.9734C129.268 73.4643 129.087 72.5832 129.194 71.9001C129.633 69.0871 131.799 66.9311 134.121 65.5083C134.497 63.2218 132.97 58.2964 136.471 58.0549C140.371 57.7851 139.222 63.2001 139.423 65.5083C141.478 66.8115 143.293 68.2865 144.003 70.7253C144.315 71.8022 144.213 73.1554 144.451 73.9734C144.588 74.4477 145.35 74.6717 145.488 75.5507C145.741 77.1736 144.909 77.5478 144.396 78.7835L144.438 103.752L144.763 104.079C147.137 103.942 148.135 104.673 148.288 107.042C148.318 107.503 147.838 108.103 148.316 108.58C151.839 110.003 154.623 112.115 156.838 115.189L156.999 88.3408C152.686 86.2718 152.258 81.6596 152.802 77.3803L158.995 74.4346C158.958 74.0756 158.762 73.7341 158.786 73.3642C159.465 62.3864 159.419 51.0844 159.253 40.1087C157.27 38.7273 155.973 34.0846 156.41 31.8677C156.613 30.843 159.945 29.6095 160.734 28.7872C161.022 26.2461 160.47 23.2612 160.764 20.7768C160.898 19.6476 161.695 19.4954 161.83 18.995C161.92 18.6599 161.592 16.9478 161.636 16.2103C161.828 12.9643 163.702 11.0346 166.183 9.22457C166.567 7.11429 165.763 3.70302 166.325 1.76025C166.847 -0.0476355 169.26 -0.500151 170.599 0.78125C172.23 2.3433 171.147 7.247 171.457 9.43778C174.01 10.6778 176.021 13.5626 176.05 16.4474C176.056 17.2176 175.656 17.9551 175.829 18.8231C175.925 19.3017 176.342 19.4758 176.523 19.8696C177.543 22.0756 176.547 26.2961 176.945 28.7937C177.048 29.0939 181.101 30.6864 181.28 31.6458C181.723 34.0085 180.579 38.9165 178.334 40.2306C178.181 51.5369 178.784 62.9064 178.875 74.2366C179.007 74.9002 181.472 75.5224 182.234 75.8901C183.117 76.3165 185.095 77.2367 185.217 78.1352C185.72 81.8337 184.534 86.8701 180.616 88.1754C180.909 99.0118 180.264 109.911 180.616 120.743C180.666 122.297 181.033 123.987 180.852 125.615C181.826 125.44 185.204 127.505 185.204 128.34V167.777H192.948C193.726 167.777 194.89 169.317 194.982 170.118C195.222 172.241 193.228 173.007 191.422 173.007C185.416 173 179.345 172.75 173.307 172.767C116.091 172.935 58.8923 173.155 1.64583 172.765C-1.29151 171.804 0.243764 167.779 2.0695 167.779H9.5952V128.56V128.552ZM27.7019 18.0638C27.8089 16.3169 27.8766 14.7548 26.0705 13.939C24.3256 14.4263 23.6486 16.4605 24.2098 18.0638H27.6997H27.7019ZM170.588 18.0638C171.269 16.4844 169.98 13.0253 168.08 14.3719C166.67 15.3705 166.82 16.4822 166.879 18.0638H170.588ZM28.7916 23.4962C28.5776 23.5658 28.3177 23.2786 28.2457 23.2786H23.2293L22.9017 23.605V27.5166C23.345 28.0018 24.2207 27.4405 24.9676 27.4013C26.2649 27.3317 27.5162 27.4883 28.7916 27.6254V23.4962ZM171.896 27.6232V23.6028L171.568 23.2765H166.333C166.261 23.2765 166.001 23.5636 165.787 23.494V27.6232C167.829 27.3839 169.852 27.286 171.896 27.6232ZM19.0056 34.1695C18.7981 34.511 19.0165 35.2768 19.5166 35.2355C22.7379 34.4632 25.8019 34.2347 29.0908 34.6046C29.7569 34.6785 32.7095 35.6249 32.9345 34.9005C33.1594 34.176 31.9779 33.8779 31.5259 33.6995C28.9314 32.6814 25.8019 32.4181 23.0677 32.8968C22.5151 32.9947 19.1541 33.9193 19.0034 34.1673L19.0056 34.1695ZM175.785 34.176C171.968 32.429 167.936 32.1353 163.927 33.4842C163.025 33.7866 161.018 34.3239 162.206 35.4269C166.165 34.3 170.323 34.3892 174.346 35.0701C175.342 35.2398 175.969 36.047 175.785 34.176ZM30.0648 40.0478C29.9666 39.8955 27.5643 39.5975 27.1537 39.5757C26.2998 39.5344 21.8905 39.5757 21.6219 40.3633L20.9362 73.4708C24.0482 73.275 27.2258 72.9726 30.3094 73.5948L30.7222 73.3294L30.0627 40.0456L30.0648 40.0478ZM173.193 40.0195C172.87 39.6888 165.331 39.6649 164.735 40.0456L164.58 40.4285L164.042 73.6884C166.143 73.2054 168.327 73.1728 170.485 73.2446C171.367 73.275 172.505 73.6036 173.411 73.597C173.66 73.597 173.732 73.6188 173.824 73.3316L173.191 40.0195H173.193ZM98.8161 66.7331C98.4099 64.749 96.8593 64.3118 96.2019 66.4133C96.0753 66.8158 96.2784 66.7027 96.523 66.7353C97.2305 66.8289 98.0866 66.6679 98.8161 66.7353V66.7331ZM60.6416 73.4708C60.8556 72.2917 59.3028 70.1858 58.1301 70.2227C57.2107 70.251 55.8567 72.1307 55.7103 73.0205L55.9506 73.4708H60.6416ZM139.174 73.4708C139.319 72.4266 137.759 70.1553 136.7 70.2554C135.741 70.3467 134.392 72.0698 134.243 73.0205L134.483 73.4708H139.174ZM121.502 94.33C120.325 83.8939 111.817 75.2135 101.745 72.618C98.1216 71.6847 96.7108 71.6804 93.0964 72.6637C84.8217 74.9176 77.5384 81.1157 74.5967 89.2197C74.1642 90.4119 73.3584 92.8137 73.2885 94.0037C73.271 94.2996 73.2623 94.4258 73.6117 94.3235C74.2975 94.1212 75.1579 93.6404 75.9616 93.4033C89.255 89.4829 102.66 89.0891 116.095 92.6527C117.921 93.1378 119.69 93.8079 121.5 94.3279L121.502 94.33ZM15.5114 83.0041C19.6564 82.3428 23.8276 81.9925 28.0382 82.1513C29.1695 82.1926 30.6086 82.284 31.7333 82.3819C32.8581 82.4798 35.0441 83.0977 35.8849 83.0389C36.4724 82.9976 36.8437 81.3659 36.7781 80.9569C36.6449 80.1193 31.3271 78.8945 30.364 78.7487C26.9834 78.2375 23.0436 78.3093 19.7088 79.0903C18.9554 79.2665 15.6271 80.2716 15.1838 80.6175C14.7011 80.9939 15.3541 82.5168 15.5114 83.0041ZM60.4232 78.4681H55.7322L55.623 103.889H60.4232V78.4681ZM139.393 103.892V78.7944L139.065 78.4681H134.702L134.374 78.7944V103.892H139.391H139.393ZM179.279 82.9976C179.491 82.2949 180.374 80.9656 179.618 80.4457C178.969 79.9975 175.875 79.1925 174.958 79.0054C169.382 77.8655 163.092 78.405 157.921 80.785C157.96 81.3637 157.925 82.9606 158.701 83.0455C159.548 83.1368 162.151 82.4733 163.28 82.3819C164.523 82.2818 166.176 82.1818 167.412 82.1513C171.393 82.0577 175.353 82.5103 179.279 82.9976ZM32.9367 87.8121C28.5754 87.1485 24.1312 87.3248 19.7372 87.5945L19.1934 87.9209V124.098L32.9367 122.577V87.8121ZM175.604 87.8121C171.118 87.1899 166.569 87.2726 162.079 87.8121V122.577L175.604 124.098V87.8121ZM119.76 103.892H124.885C124.968 103.892 125.202 104.296 125.405 103.757L125.331 101.274C115.411 97.4563 104.68 94.5802 93.911 95.2003C85.5773 95.6811 77.4117 98.4484 69.5846 101.066V104.107H75.0378C74.6622 101.607 76.0752 98.6115 79.0234 100.028C80.9562 100.957 79.7943 102.741 80.6002 104.107H85.0728V100.957C85.0728 99.8081 86.6889 98.8378 87.8005 98.8726C88.7876 98.9031 90.3076 99.9386 90.3076 100.957V104.107H94.8894V100.304C94.8894 99.6819 96.1364 98.642 96.7938 98.5071C98.0692 98.2482 100.126 99.2185 100.126 100.522V104.107H104.708V100.957C104.708 99.051 109.048 97.5912 109.84 100.624C110.15 101.805 109.576 103.171 110.271 104.107H114.525C113.594 98.431 120.609 98.0524 119.76 103.889V103.892ZM143.101 109.106H52.0239L51.6963 167.772H65.658V116.819C65.658 116.086 66.8416 114.798 67.6147 114.639L126.42 114.528C127.209 114.225 129.139 115.814 129.139 116.384V167.77H143.101V109.104V109.106ZM154.226 122.142C153.337 118.896 151.378 115.616 148.117 114.321V122.142H154.226ZM46.6799 114.537C43.6225 115.603 41.5085 119.086 40.79 122.142H46.6799V114.537ZM124.121 119.751L70.8928 119.86V167.77H74.601V133.114C74.601 131.843 78.9775 129.474 80.1263 128.839C85.5511 125.843 91.6616 123.622 97.6171 121.903C103.444 123.778 109.297 125.9 114.667 128.839C115.864 129.494 119.574 131.547 120.059 132.594C120.675 133.921 120.188 134.493 120.181 135.711C120.164 139.56 120.378 143.421 120.419 147.229C120.491 154.073 120.347 160.928 120.41 167.77H124.119V119.751H124.121ZM46.6799 127.357C39.3551 127.342 31.8251 127.503 24.5658 128.471C21.2332 128.915 17.6494 129.554 14.6116 130.942V167.772H30.3182V133.333C30.3182 132.818 31.8731 131.269 32.3907 131.269H46.6799V127.357ZM115.178 167.772V135.289C111.323 132.661 106.752 130.566 102.361 128.934C101.319 128.547 98.5169 127.377 97.6084 127.348C96.7741 127.322 93.1838 128.708 92.1574 129.093C87.8049 130.729 83.6445 132.892 79.6174 135.18V167.772H84.8522V147.022C84.8522 144.581 87.0667 141.47 88.8837 139.956C90.4779 138.626 95.2104 136.057 97.2022 135.846C98.4099 135.718 100.788 136.829 101.948 137.384C110.882 141.661 109.987 146.924 110.168 155.705C110.251 159.723 110.087 163.756 110.159 167.772H115.176H115.178ZM180.186 167.772V130.942C178.747 130.044 176.801 129.609 175.128 129.243C168.816 127.862 162.287 127.775 155.853 127.583C153.597 127.516 151.149 127.079 148.871 127.346C148.554 127.383 148.31 127.372 148.117 127.683V130.942C148.31 131.254 148.552 131.243 148.871 131.28C152.948 131.756 158.122 130.74 162.169 131.288C163.215 131.43 164.698 132.441 164.698 133.551V167.772H180.186ZM46.6799 136.484H35.5552V167.229C35.5552 167.283 35.3783 167.357 35.387 167.446L35.6906 167.746L38.6104 167.772V154.193C38.6104 153.181 40.1173 151.96 41.1372 151.923C41.9387 151.893 43.8452 153.011 43.8452 153.757V167.772H46.8983C46.9791 167.537 46.6799 167.296 46.6799 167.229V136.484ZM159.461 136.484H148.117L148.144 167.429C148.301 168.068 150.603 167.661 151.173 167.772V153.757C151.173 152.865 152.798 151.906 153.682 151.906C154.567 151.906 156.191 152.931 156.191 153.757V167.772H159.463V136.484H159.461ZM104.924 167.772V147.24C104.924 147.107 104.241 145.712 104.095 145.46C102.708 143.099 99.9517 142.181 97.5821 141.094C93.5922 142.536 90.2224 144.044 89.8643 148.752C89.3925 154.952 90.4233 161.535 90.0914 167.772H104.924Z" fill="#FF2727"/>
<path d="M134.537 124.152C135.959 123.791 137.819 124.381 138.071 125.958C138.339 127.64 138.33 135.1 138.071 136.797C137.658 139.477 133.447 139.133 133.078 136.799C132.692 134.356 132.622 129.724 132.853 127.253C132.954 126.18 133.318 124.464 134.539 124.152H134.537Z" fill="#FF2727"/>
<path d="M59.2577 123.956C60.8869 123.908 61.8173 125.081 61.9592 126.589C62.2671 129.861 61.7517 133.653 61.9046 136.981C61.0398 139.47 57.2355 139.174 56.9275 136.596C56.6917 134.621 56.6524 127.855 56.9472 125.958C57.1284 124.79 58.0784 123.989 59.2577 123.954V123.956Z" fill="#FF2727"/>
<path d="M25.686 97.4107C27.3152 97.191 28.4399 98.5811 28.5819 100.08C29.0427 104.956 28.2325 110.549 28.5601 115.503C27.966 117.258 26.291 118.152 24.5701 117.112C22.9889 116.157 23.6157 113.299 23.5524 111.606C23.4781 109.6 23.5393 108.125 23.5633 106.18C23.5873 104.235 23.251 100.946 23.5633 99.2294C23.7162 98.3984 24.8715 97.5195 25.6817 97.4107H25.686Z" fill="#FF2727"/>
<path d="M168.79 97.4212C170.323 97.332 171.334 98.6808 171.472 100.075C171.937 104.864 171.114 110.411 171.448 115.282C171.004 118.13 166.986 118.1 166.49 115.903C166.08 114.084 166.497 110.024 166.453 107.901C166.405 105.551 165.798 101.777 166.32 99.5293C166.573 98.4328 167.65 97.4886 168.792 97.4212H168.79Z" fill="#FF2727"/>
<path d="M170.732 56.1618C171.086 56.5143 171.405 57.2017 171.466 57.713C171.627 59.0509 171.658 64.2701 171.409 65.4906C170.885 68.0751 166.847 67.8445 166.447 65.7538C166.27 64.8314 166.29 57.9915 166.489 57.1125C166.895 55.3199 169.459 54.8956 170.732 56.1618Z" fill="#FF2727"/>
<path d="M25.2388 55.4836C26.8003 55.1247 28.3203 56.1755 28.5605 57.7331C28.7593 59.0167 28.7505 64.2337 28.5234 65.489C28.0495 68.0975 23.7974 68.2955 23.3585 65.0865C23.1707 63.705 23.1445 59.0798 23.3541 57.7331C23.4808 56.9217 24.4089 55.6751 25.2388 55.4836Z" fill="#FF2727"/>
</svg>
