<svg width="150" height="192" viewBox="0 0 150 192" fill="none" xmlns="http://www.w3.org/2000/svg">
<path d="M0 189.942C0.303453 189.544 0.692627 188.743 1.2841 188.743H7.192V135.686C7.192 135.19 5.49815 133.508 4.99411 133.256C3.68601 132.604 2.21161 133.255 1.89272 131.218C1.77614 130.477 1.76757 126.976 1.91844 126.293C2.11903 125.391 3.13911 125.489 3.25226 124.886L3.24712 112.196C4.17119 110.4 3.61743 108.339 3.77687 106.391C3.73058 106.222 2.28018 106.23 2.06417 104.818C1.89615 103.716 1.91672 100.142 2.04874 98.9962C2.08474 98.6908 2.1276 98.4866 2.31276 98.2326C2.84423 97.5017 6.99142 96.546 8.07665 96.2886C8.68698 96.1445 10.1682 96.1222 10.2728 95.5714L10.23 84.1268C9.65563 82.3715 6.06734 80.635 5.83075 79.1028C5.7056 78.2895 5.7296 75.1856 6.00734 74.501C6.17364 74.0909 6.57824 73.8541 6.67082 73.4509C7.03256 71.8809 6.7394 69.9248 6.86112 68.3068C6.81826 67.9499 5.84618 67.6222 5.68503 66.905C5.54273 66.2752 5.57187 62.1006 5.77932 61.5859C6.19764 60.5461 10.386 59.1202 11.4798 58.5145L11.4678 48.4306C10.3688 46.2858 7.65147 45.3026 8.64926 42.5161C8.82071 42.0357 9.17902 41.7629 9.25274 41.2344C9.63506 38.4633 8.92186 34.8686 9.28017 32.0049L11.9804 29.0502C11.7987 26.6464 12.241 23.865 11.9855 21.5109C11.7095 18.9577 10.4717 17.8236 11.5089 14.8655C12.9113 10.8658 16.4825 9.98391 19.4296 7.53713C19.9679 5.8762 18.3803 -0.190982 21.3103 0.00462344C23.443 0.147038 22.7007 3.55811 22.7693 5.0629C22.807 5.89508 23.0538 6.79418 22.9853 7.67611C27.033 10.1349 31.5642 12.5199 31.1442 18.062C31.0619 19.1396 30.5802 20.3098 30.4824 21.3427C30.2373 23.9268 30.6607 26.8626 30.4824 29.4826L31.0053 29.4071C31.7014 28.8975 30.0761 23.8427 32.8209 23.7054C35.3463 23.5785 34.4153 27.7943 34.6211 29.2853C38.722 31.0458 41.5885 33.8786 41.2782 38.6623C41.2147 39.6284 40.8376 40.6407 40.7604 41.5724C40.6181 43.2831 40.8598 45.1551 40.757 46.8846C40.8461 47.3565 41.9039 47.7202 42.3017 48.2539C43.3458 49.6574 42.5777 53.8972 42.8091 55.8018C42.972 57.147 44.0007 57.0904 43.1246 58.8526C42.5811 59.9438 41.5199 60.1995 41.3176 61.5001C40.9936 63.5711 41.4702 66.1551 41.2644 68.2845C41.309 68.4715 44.2355 69.3946 44.7482 69.93C44.803 69.9866 45.211 70.8308 45.211 70.884V74.398L104.976 74.2264V70.3692C104.976 69.7189 107.908 68.6156 108.576 68.487L108.746 68.1421C108.482 66.0556 109.099 63.0924 108.736 61.1192C108.549 60.1017 106.615 59.1614 106.677 57.6858C106.704 57.008 107.294 56.6168 107.381 55.9751C107.662 53.9212 107.011 50.9546 107.412 48.9779C107.678 47.6722 109.282 47.4354 109.425 46.7062C109.603 45.7916 109.507 42.6259 109.425 41.569C109.348 40.5772 108.964 39.4877 108.907 38.4873C108.641 33.7293 111.726 31.2517 115.556 29.275C115.89 27.6295 114.729 24.2699 116.961 23.7243C117.928 23.4875 119.015 24.517 119.015 25.4521V29.2235C119.427 29.7211 119.644 29.4483 119.708 28.889C119.9 27.2195 119.838 23.5785 119.698 21.8558C119.512 19.6012 118.523 18.0037 119.092 15.5878C120.121 11.2262 123.987 9.98734 127.147 7.53713C127.587 5.96371 126.74 2.07735 127.5 0.860824C128.259 -0.355702 129.749 -0.199561 130.413 1.01525L130.699 7.6744C134.908 10.3991 139.451 12.4907 138.86 18.4035C138.747 19.5291 138.134 20.665 138.023 21.6807C137.769 23.9817 138.213 26.7047 138.023 29.0554C138.117 29.553 140.607 30.8656 140.9 32.1765C141.229 35.0865 140.584 38.5611 140.932 41.4025C141.037 42.2622 141.798 42.9571 141.736 43.9471C141.642 45.4553 139.129 46.9738 138.543 48.4306L138.529 58.5214C140.02 59.1511 141.598 59.7551 142.978 60.6113C143.85 61.1518 144.44 61.3559 144.541 62.4747C144.625 63.4029 144.663 66.0573 144.493 66.8998C144.286 67.931 143.459 67.9259 143.36 68.0786C143.219 68.2982 143.252 72.828 143.338 73.2776C143.435 73.7889 144.233 74.283 144.353 75.0054C144.466 75.6883 144.457 78.2329 144.351 78.9278C144.168 80.1169 141.332 82.1124 140.42 83.2208C140.185 83.5074 139.933 83.7785 139.78 84.1233L139.737 95.9969C141.874 96.3332 145.011 96.8274 146.931 97.7951C147.665 98.164 147.891 98.5226 147.965 99.3308C148.073 100.522 148.119 103.692 147.946 104.813C147.735 106.177 146.436 106.273 146.405 106.386L146.323 111.173C146.919 112.646 146.887 114.964 146.936 116.647C147.02 119.492 146.864 122.352 146.921 125.197C147.569 125.508 147.998 125.837 148.116 126.607C148.241 127.421 148.244 130.408 148.116 131.214C147.802 133.194 146.617 132.572 145.378 132.93C144.396 133.215 142.938 134.965 142.817 136.024C142.232 141.158 142.621 147.712 142.638 153.004C142.674 164.464 142.921 176.116 143.005 187.624C143.009 188.008 142.806 188.355 142.818 188.738H148.726C149.275 188.738 149.997 189.882 149.998 190.366C149.998 190.961 149.259 191.661 148.812 191.994H0V189.937V189.942ZM14.7286 19.0264C18.5741 17.0583 23.5716 17.024 27.4873 18.8496C27.9434 18.8119 27.7977 16.6825 27.6931 16.245C27.0142 13.3658 23.383 11.9914 21.1731 10.4729C18.1523 12.7447 13.1668 14.1997 14.7286 19.0264ZM135.455 19.0264C136.802 14.2375 132.023 12.7618 129.009 10.4832C125.936 12.4616 121.191 14.2718 122.442 18.8565C126.494 16.9914 131.462 16.9897 135.453 19.0281L135.455 19.0264ZM18.6666 24.4261C18.8381 25.2325 18.5415 26.552 18.6666 27.4254C19.6267 27.1783 19.0472 25.1862 19.1913 24.2648C19.4176 22.8201 21.6789 22.5747 22.5532 23.5356C22.6132 23.6025 22.9476 24.2133 22.9476 24.2545V27.2538H23.4619V24.5959C23.4619 24.5462 23.8819 23.8427 23.9848 23.7483C24.6243 23.1529 25.5655 23.249 26.2615 23.6797C26.6953 23.9491 26.7141 24.2871 27.057 24.5102L27.0622 22.4031C24.4648 20.5534 20.0553 20.4642 17.1305 21.5143C15.7607 22.0068 15.1521 22.4014 15.4161 23.9971C16.2322 23.2919 18.4009 23.1701 18.6684 24.4261H18.6666ZM126.723 24.5977C126.869 25.3355 126.617 26.4628 126.723 27.2555H127.238V24.4261C127.238 23.5905 128.618 22.9058 129.376 22.959C130.133 23.0122 131.176 23.8324 131.176 24.5977V27.4271H131.519V24.4278C131.519 23.3108 134.203 23.1392 134.771 24.1704L134.745 22.3122C131.707 20.6787 127.507 20.3561 124.282 21.6396C122.701 22.2693 122.6 22.8578 123.214 24.5119C123.773 22.9796 126.389 22.9093 126.723 24.5977ZM17.2951 35.0557V37.8851H17.8094V34.1995C17.8094 33.8083 20.4376 31.7252 20.8062 31.7252C20.9588 31.7252 23.0556 33.1219 23.2956 33.3364C23.5682 33.5818 24.1459 34.3916 24.1459 34.7125V37.8834H24.6585C24.7786 37.7667 24.6997 35.1209 25.0203 34.5598C25.2277 34.196 27.4119 32.717 27.7462 32.8096C27.8817 32.8474 29.7281 34.4157 29.8944 34.613C30.1293 34.8927 30.0247 35.2839 30.3076 35.3113L30.2733 33.2901C26.3027 30.6408 20.844 29.9785 16.2682 31.286C14.612 31.7595 11.989 32.626 12.5016 34.7983L14.2623 32.9658L14.7835 32.7839C15.1692 32.8354 17.2059 34.649 17.2934 35.0574L17.2951 35.0557ZM119.701 33.6847V36.5141L120.136 34.8086L122.597 32.8199C122.886 32.7564 125.523 34.6971 125.523 35.0591V37.8885H126.209V34.5461C126.209 33.4977 128.499 32.391 129.278 31.799C130.258 32.3223 131.491 33.1185 132.244 33.9901C132.623 35.138 132.4 36.5158 132.544 37.6346C132.583 37.9468 132.485 37.9125 132.887 37.8885V35.0591C132.887 34.7125 135.016 32.9744 135.369 32.9726L137.68 34.8017L137.685 33.2094C134.114 30.4075 128.551 30.1123 124.289 31.2517C123.298 31.5159 119.922 32.6552 119.703 33.6881L119.701 33.6847ZM37.4996 40.1139C37.7516 38.8631 37.9385 37.5814 37.5956 36.334C37.095 34.5152 35.2451 33.472 33.7364 32.5694L33.5633 39.4276C34.9279 39.2869 36.2035 39.7999 37.4996 40.1139ZM116.447 39.4276V32.5711C113.268 34.2441 111.798 36.3871 112.68 40.1157L116.447 39.4293V39.4276ZM29.771 45.4021L30.8116 43.9934C29.7795 42.7374 27.9365 42.1197 26.409 41.7045C21.8537 40.4674 15.7744 40.5 11.9941 43.6468L13.2662 45.2357C17.3928 42.9331 23.1841 42.8353 27.5662 44.4876C28.0154 44.6575 29.4504 45.5909 29.7692 45.4039L29.771 45.4021ZM127.373 41.0199C124.75 41.2121 121.259 41.8281 119.391 43.7961L120.642 45.4244C125.269 42.6362 131.997 42.7203 136.742 45.2082L138.193 43.7978C135.417 41.2395 131.006 40.7539 127.373 41.0199ZM37.3144 43.7292L34.0776 42.8558C34.5645 43.5593 34.4839 44.3006 34.2473 45.0813C36.0817 45.1877 37.8116 46.6564 37.3127 43.7292H37.3144ZM115.761 43.0274L112.869 43.7292L112.854 45.7693L115.934 45.0813C115.682 44.3177 115.504 43.8356 115.761 43.0274ZM28.084 57.9414V48.5987C24.4494 46.1279 18.8758 46.2721 14.9275 48.0274L14.744 51.0181L14.8983 57.6C19.2958 56.936 23.7345 57.0338 28.084 57.9414ZM121.928 48.3414V58.113C126.175 56.9686 130.984 56.924 135.283 57.7699L135.085 48.0256C130.953 46.1691 125.984 46.3922 121.928 48.3396V48.3414ZM39.3872 50.2271C36.9938 48.9762 34.2027 48.3036 31.5094 48.6845V52.9707C34.1702 52.8815 36.879 53.0668 39.3872 53.9985V50.2271ZM118.503 48.6845H115.334C114.885 48.6845 112.694 49.4035 112.17 49.6299C111.674 49.8444 111.163 50.0641 110.796 50.4844V53.9985C113.327 53.2452 115.905 53.1714 118.503 52.9707V48.6845ZM39.5569 57.775C38.1853 57.2688 36.7692 56.7404 35.2777 56.7438L38.0619 57.6395L39.3031 58.2812L39.5569 57.775ZM114.22 56.9154C112.965 56.9514 111.77 57.4113 110.625 57.8557C111.165 58.4871 111.882 57.6 112.461 57.4662L114.22 56.9154ZM37.8459 61.3697C37.5373 61.2273 34.2696 59.9352 34.2473 60.426C35.0685 61.054 36.3715 61.3697 36.6081 62.5227C36.8447 63.6758 36.4658 66.0436 36.1332 67.1966L37.8459 67.3699V61.3697ZM112.166 61.3697V67.5415L114.05 67.1966C113.455 65.9904 113.291 63.2777 113.574 62.0063C113.778 61.09 115.086 60.8755 115.765 60.426C115.748 59.9181 112.483 61.1861 112.166 61.3697ZM33.2221 63.94C32.7352 63.3086 31.6877 62.8676 30.9419 62.5399C24.8214 59.8494 17.4837 59.7825 11.3083 62.3185C10.5711 62.6222 9.32475 63.0478 8.903 63.6826C10.0088 63.3566 11.0495 62.8281 12.1587 62.485C18.9529 60.3882 26.7347 61.2101 33.2204 63.94H33.2221ZM141.448 63.94C141.868 63.5522 139.254 62.4026 139.05 62.3151C134.397 60.3076 128.561 60.0416 123.639 61.1106C122.25 61.4126 118.062 62.6428 117.071 63.4493C116.737 63.7221 116.606 64.2334 117.04 64.1064C117.957 63.837 119.091 63.1747 120.082 62.8625C127.097 60.6542 134.752 60.7932 141.45 63.94H141.448ZM24.4888 67.2842C24.6568 68.106 24.3671 69.3998 24.4888 70.2834H25.1746V67.6256C25.1746 67.442 25.8329 66.7591 26.0421 66.6081L27.7428 65.6558L21.7509 64.7979L23.7928 66.0951C23.9196 66.2272 24.4648 67.1606 24.4905 67.2824L24.4888 67.2842ZM15.5841 67.6273C15.7384 68.3428 15.4727 69.5079 15.5841 70.2851H16.2699V67.1143C16.2699 66.8809 17.0379 65.9372 17.2934 65.7399L18.4952 64.9729C16.8596 64.8477 15.2635 65.2355 13.7017 65.6593C13.6142 65.7742 15.4624 67.0594 15.5858 67.629L15.5841 67.6273ZM125.011 67.7989C125.148 68.4904 124.911 69.5422 125.011 70.2851C126.14 70.4173 125.593 68.5127 125.71 67.6428C125.887 66.337 126.999 65.582 128.095 65.057C126.183 64.6898 124.323 65.4654 122.442 65.6593L124.484 66.9564C124.604 67.0783 124.987 67.6822 125.011 67.8006V67.7989ZM134.087 67.4557C134.224 68.2845 133.987 69.4152 134.087 70.2851C134.515 70.3143 134.382 70.328 134.424 70.0278C134.532 69.2985 134.49 68.0202 134.73 67.4146C134.97 66.8089 135.811 66.4417 136.266 66.0488C136.387 65.9441 136.588 66.0556 136.484 65.6575C136.045 65.6781 131.705 64.6521 131.687 65.057C132.605 65.4705 133.908 66.3919 134.085 67.4575L134.087 67.4557ZM21.2331 69.9403C21.3754 69.0669 21.4217 67.8504 20.2645 67.7526C19.181 67.6599 19.301 69.2248 19.3507 69.9437L21.2331 69.9403ZM130.831 70.1136C130.829 69.187 131.136 67.8607 129.862 67.7526C128.779 67.6599 128.899 69.2265 128.949 69.9437L130.831 70.1136ZM28.9257 69.1029C27.9382 68.595 28.3171 69.9763 28.2503 70.6815L28.6892 70.9663C29.0732 71.0453 28.924 70.793 28.9429 70.5442C28.9772 70.0707 28.9429 69.5748 28.9275 69.1012L28.9257 69.1029ZM121.906 70.7776C121.94 70.4687 122.105 68.9588 121.503 69.0858C120.848 69.5199 121.109 70.2851 121.073 70.9698L121.906 70.7776ZM35.6189 70.6266V74.2264L41.7839 74.398C41.6931 73.8215 41.9879 72.677 41.6142 72.2515C41.1376 71.711 35.8914 70.3538 35.6189 70.6249V70.6266ZM114.393 70.6266C112.272 70.8462 110.248 71.5068 108.249 72.1897L108.228 74.2281H114.393V70.6283V70.6266ZM32.5363 75.9405C31.4957 75.0655 29.7881 74.6056 28.4629 74.2779C22.7315 72.8572 16.1636 73.0373 10.6191 75.0878C10.5814 75.4086 10.9654 75.2199 11.1386 75.1804C11.9872 74.9882 12.8325 74.6605 13.6982 74.4838C18.7815 73.4423 24.6448 73.5504 29.6629 74.9625C30.647 75.2388 31.5488 75.702 32.5363 75.9405ZM140.422 75.4292C135.038 73.1712 128.515 72.8538 122.816 74.0016C121.074 74.3517 118.873 74.8716 117.476 75.9405C123.985 73.4457 131.534 73.0905 138.268 74.9282C138.861 75.0895 139.359 75.3383 139.905 75.5184C140.074 75.5733 140.456 75.7535 140.422 75.4309V75.4292ZM31.6808 79.3722C26.6627 77.1656 20.9502 76.572 15.5532 77.538C13.8388 77.8451 11.9015 78.3032 10.4511 79.283L11.8981 80.5664C17.5454 78.1814 24.8026 78.1883 30.4002 80.6934L31.6808 79.3705V79.3722ZM126.689 77.1931C123.93 77.4093 120.745 78.1488 118.336 79.4563L119.615 80.7037C120.798 80.0928 122.132 79.6931 123.44 79.4254C127.599 78.5726 133.038 78.6344 137.046 80.098C137.48 80.2559 137.862 80.5235 138.287 80.6951L139.737 79.2847C135.974 77.1965 130.929 76.8619 126.692 77.1931H126.689ZM42.6394 77.6564H41.9554L42.1405 84.6106L41.7839 85.0259H42.8091C42.492 83.8883 42.684 82.6803 42.6463 81.5067C42.6051 80.2679 42.1988 78.9244 42.6394 77.6581V77.6564ZM49.8314 77.6564H49.1474C49.2742 77.9137 49.3222 78.1248 49.3291 78.4165C49.3702 80.0808 49.4662 82.3046 49.3274 83.9209C49.2879 84.3756 49.2331 84.6432 48.9759 85.0259H49.8314V77.6581V77.6564ZM57.0251 77.6564H56.3411V84.8543H57.0251V77.6564ZM64.2171 77.6581H63.5331V84.856H64.2171V77.6581ZM71.4091 77.6581H70.7251V84.856H71.4091V77.6581ZM78.0885 78.0853C78.1623 80.0173 78.0885 81.9785 78.0885 83.914C78.0885 83.9621 77.9342 84.8114 77.9017 84.844C77.7954 84.9521 77.3462 84.693 77.4045 85.0259H78.7726C78.764 84.7685 78.26 84.7788 78.26 84.427V78.0836C78.26 78.0304 78.4966 77.8417 78.4314 77.6564H78.0045C77.7491 77.7336 78.0868 78.027 78.0885 78.0836V78.0853ZM85.2805 78.0853C85.3594 80.1872 85.2805 82.3234 85.2805 84.4288C85.2805 84.7788 84.7765 84.7685 84.7679 85.0276L85.8789 85.031C86.0846 84.8011 85.452 84.7925 85.452 84.4305V78.087C85.452 78.0339 85.6886 77.8451 85.6234 77.6598H85.1965C84.9411 77.737 85.2788 78.0304 85.2805 78.087V78.0853ZM92.8154 77.6564H92.1314C92.1777 77.9738 92.3011 78.2603 92.3114 78.5898C92.3423 79.6107 92.4588 84.0341 92.1897 84.6501C92.0731 84.9161 91.7474 84.7496 91.7902 85.0242H92.8154V77.6564ZM100.007 77.6564H99.3234C99.3697 77.9738 99.4931 78.2603 99.5034 78.5898C99.5343 79.6107 99.6508 84.0324 99.3817 84.6501C99.2651 84.9161 98.9393 84.7496 98.9822 85.0242H100.35C100.393 84.7479 100.066 84.9161 99.9509 84.6501C99.6817 84.0324 99.7983 79.609 99.8291 78.5898C99.8394 78.2603 99.9629 77.9738 100.009 77.6564H100.007ZM107.199 77.6564H106.515C106.562 77.9738 106.685 78.2603 106.695 78.5898C106.726 79.6107 106.843 84.0324 106.574 84.6501C106.457 84.9161 106.131 84.7496 106.174 85.0242H107.542C107.585 84.7479 107.258 84.9161 107.143 84.6501C106.874 84.0324 106.99 79.609 107.021 78.5898C107.031 78.2603 107.155 77.9738 107.201 77.6564H107.199ZM114.222 84.427C114.04 83.3804 114.222 81.3231 114.222 80.1409C114.222 80.0602 114.009 79.8749 114.049 79.7136H113.879V84.427C113.879 84.7771 113.375 84.7668 113.366 85.0259L114.649 85.0293C114.825 84.7874 114.29 84.8217 114.222 84.4288V84.427ZM39.8998 79.8852H37.8442V82.6289H39.8998V79.8852ZM46.922 79.8852H44.8665V82.6289H46.922V79.8852ZM54.1141 79.8852H52.0585V82.6289H54.1141V79.8852ZM61.3061 79.8852H59.2505V82.6289H61.3061V79.8852ZM68.4981 79.8852L66.2693 79.9727C66.3087 80.841 66.4802 81.8053 66.271 82.6271H68.4963V79.8852H68.4981ZM75.6918 79.8852H73.6362V82.6289H75.6918V79.8852ZM82.8838 79.8852H80.6567V82.6289H82.8838V79.8852ZM89.9043 79.8852H87.8487V82.6289H89.9043V79.8852ZM95.0425 79.8852V82.6289H97.2695C97.3518 81.7023 97.1718 80.8032 97.0963 79.8869H95.0425V79.8852ZM104.46 79.8852H102.233V82.6289H104.46V79.8852ZM111.482 79.8852H109.426V82.6289H111.482V79.8852ZM35.4474 80.7414H35.1045C35.4063 81.0915 35.1045 81.378 35.1045 81.5136V84.5986C35.1045 84.7599 34.489 84.796 34.5919 85.0259L35.6189 84.856C35.684 84.6793 35.4474 84.4922 35.4474 84.4288V80.7431V80.7414ZM28.7697 95.827V83.7407C24.2162 81.6045 18.2569 81.8722 13.5491 83.5022L13.6982 95.3123L21.4972 95.1321L28.768 95.8253L28.7697 95.827ZM136.484 83.4851C131.63 81.7177 125.892 81.8499 121.071 83.6566V95.8288C126.168 95.2231 131.376 94.7667 136.484 95.4856V83.4851ZM117.819 88.2842H32.1951V90.8563C32.1951 90.9095 32.8912 91.1102 32.9649 91.5392C33.0849 90.7276 35.2931 90.2043 35.444 89.9863C35.4937 89.916 34.9862 88.8659 36.0886 88.6549C37.3796 88.4078 36.9475 89.5248 37.2013 89.9606C37.2613 90.0636 38.7014 90.7876 39.0477 91.1119L39.8998 92.3988C39.5329 91.0639 42.4868 90.1888 42.6137 89.9726C42.7577 89.729 42.4491 88.5296 43.4109 88.5193C44.5424 88.5073 44.1927 89.7804 44.3418 89.9143C44.575 90.1236 45.2128 90.2231 45.5608 90.4204C46.4729 90.9386 46.9889 91.3745 47.3507 92.3988C47.7175 91.8875 47.8855 91.4688 48.3827 91.033C48.8799 90.5972 50.224 90.1185 50.3646 89.9314C50.6235 89.5866 50.4383 88.5279 51.2887 88.521C52.3876 88.5107 52.0687 89.662 52.2642 89.9692C52.3448 90.0962 54.3181 90.8134 54.5701 91.2612L55.3124 92.7437C55.1804 90.9129 57.6029 90.5937 58.2252 89.916C58.6298 89.4767 58.4241 87.972 59.7836 88.7389C59.9842 89.0306 59.8505 89.6089 59.9705 89.7993C60.0494 89.9246 62.2576 90.8185 62.5096 91.2869L63.1902 92.5738C63.1988 92.0625 63.5314 91.486 63.8931 91.1342C64.476 90.5663 65.7978 90.1837 66.1647 89.8491C66.3979 89.6363 66.2419 89.101 66.4853 88.8453C66.8059 88.5828 67.6066 88.5588 67.8294 88.9191C68.0094 90.2849 67.958 89.7478 68.7381 90.194C69.6124 90.695 70.6548 91.2149 70.8862 92.301L71.2394 92.4074C71.1143 90.8305 73.4184 90.532 73.9808 89.9211C74.3031 89.5711 74.346 87.8467 75.5872 88.6531C76.273 89.0975 75.8135 89.7444 75.8684 89.8233C76.0672 90.103 79.0623 90.9043 79.0315 92.2358C79.5355 91.3882 79.9967 90.9421 80.8488 90.4548C81.1008 90.3106 82.306 89.8851 82.3592 89.813C82.3917 89.7684 82.1792 89.1868 82.534 88.7595C82.9146 88.3186 83.5987 88.4438 83.9039 88.9191C84.1284 89.2691 83.7753 89.602 84.0787 89.9211C84.7542 90.6298 86.6092 90.6521 86.9572 92.3611L87.1664 93.9499C87.0841 92.5738 87.103 91.5615 88.3099 90.7224C88.6922 90.4565 89.6797 90.1682 89.9078 89.9229C90.3501 89.4424 90.0364 87.9548 91.6359 88.9277L91.6256 89.8233C92.4777 90.0001 94.8745 91.4345 94.8745 92.3233V95.1527H95.0459V92.1534C95.0459 91.987 95.6288 91.2166 95.8174 91.0399C96.3197 90.5714 97.5147 90.2163 97.7838 89.9246C98.2056 89.4647 97.7393 88.6051 98.8862 88.6497C99.8497 88.6857 99.4468 89.4956 99.8411 89.9246C100.169 90.2798 101.432 90.5869 101.989 91.2029C102.121 91.3487 102.752 92.4211 102.752 92.4966V95.1544H102.924V92.1552C102.924 90.9163 105.47 90.2369 105.632 89.9812C105.83 89.6672 105.466 88.6085 106.435 88.66C107.362 88.7098 107.174 89.5282 107.553 89.9229C107.932 90.3175 109.282 90.6023 109.696 91.2063L110.459 92.4108C110.095 91.0056 112.824 90.2574 112.998 89.9812C113.171 89.7049 112.9 88.5914 113.826 88.5073C114.751 88.4232 114.601 89.5883 114.913 89.9263C115.225 90.2643 116.498 90.5577 116.879 91.0433L117.651 92.0694L117.824 88.298L117.819 88.2842ZM36.8189 95.1424C36.9132 95.0498 36.891 92.5326 35.9635 92.9136V95.1424H36.8189ZM44.1824 95.1424C44.5767 92.1586 42.5914 92.1449 42.9823 95.1424H44.1824ZM52.0602 95.1424C52.4442 92.2032 50.1057 92.138 50.5172 95.1424H52.0602ZM59.9379 95.1424L59.8539 93.255C58.2184 92.1706 58.3264 93.9345 58.395 95.1424H59.9379ZM67.814 95.1424L67.73 93.255C66.0944 92.1706 66.2024 93.9345 66.271 95.1424H67.814ZM75.8632 95.1424C75.8666 93.9465 76.1958 92.5155 74.4814 92.9891L74.3202 95.1424H75.8632ZM83.7204 95.1218C83.9742 94.5728 83.9313 93.1418 83.2781 92.9427C81.9151 92.5292 82.4672 94.3137 82.3695 95.1424L83.7204 95.1218ZM91.593 93.1109C91.1542 92.8707 90.7084 92.8724 90.2729 93.1109L90.2472 95.1424H91.6188L91.593 93.1109ZM99.6663 95.1424C99.6337 94.5385 99.8977 93.0354 99.0611 92.9033C97.7273 92.8226 98.1919 94.2347 98.1233 95.1424H99.6663ZM107.373 95.1424C107.297 94.523 107.657 93.1658 106.908 92.9444C105.54 92.5395 106.101 94.3068 105.999 95.1424H107.371H107.373ZM114.194 93.1126L113.538 92.9153V95.1441H114.222L114.196 93.1143L114.194 93.1126ZM33.3918 102.001C34.0982 100.192 32.5723 100.194 31.2042 99.8198C25.454 98.2515 17.8197 98.1057 11.9255 98.9378C9.66763 99.257 7.45774 99.8661 5.29757 100.561L5.30957 102.17C14.2811 99.4852 24.362 99.6533 33.3918 102.001ZM39.8998 98.4008H39.0443C39.1488 99.1489 39.4146 99.8953 39.0443 100.626H39.7283C39.4523 99.9142 39.3889 99.0099 39.8998 98.4008ZM144.687 100.472C143.247 100.166 141.867 99.6465 140.425 99.3394C135.232 98.2326 129.367 98.1897 124.09 98.7628C121.583 99.0356 119.075 99.6465 116.696 100.446L116.622 101.999C125.763 99.6962 135.614 99.5041 144.704 102.17L144.689 100.474L144.687 100.472ZM42.8109 98.5724H42.1268C42.3017 99.2501 42.4543 99.9605 42.1268 100.626H42.8109C42.54 99.9914 42.54 99.2107 42.8109 98.5724ZM45.8934 98.5724H45.2093C45.3842 99.2518 45.5368 99.9605 45.2093 100.626H45.8934C45.5642 99.9605 45.7185 99.2501 45.8934 98.5724ZM55.3124 98.5724H54.6284C54.9644 99.2947 55.0604 99.9227 54.6284 100.626H55.3124C54.9833 99.9605 55.1376 99.2501 55.3124 98.5724ZM58.395 98.5724H57.7109C57.8858 99.2518 58.0384 99.9605 57.7109 100.626H58.395C58.0658 99.9605 58.2201 99.2501 58.395 98.5724ZM64.7315 98.5724H63.876C64.2857 99.1952 64.3697 99.9365 64.0474 100.626H64.7315C64.4606 99.9879 64.4606 99.2072 64.7315 98.5724ZM70.8948 98.5724H70.2108C70.3856 99.2518 70.5382 99.9605 70.2108 100.626H70.8948C70.5657 99.9605 70.7199 99.2501 70.8948 98.5724ZM73.9774 98.5724H73.2933C73.4682 99.2518 73.6208 99.9605 73.2933 100.626H73.9774C73.6482 99.9605 73.8025 99.2501 73.9774 98.5724ZM80.1424 98.5724H79.4584C79.9641 99.269 79.8372 99.909 79.4584 100.626H80.1424C79.9093 99.9073 79.911 99.2913 80.1424 98.5724ZM86.4789 98.5724H85.7949C85.9697 99.2518 86.1223 99.9605 85.7949 100.626H86.4789C86.1498 99.9605 86.3041 99.2501 86.4789 98.5724ZM89.5615 98.5724H88.8774C89.3094 99.2776 89.2134 99.9039 88.8774 100.626H89.5615C89.2323 99.9605 89.3866 99.2501 89.5615 98.5724ZM95.898 98.5724H95.2139C95.3888 99.2518 95.5414 99.9605 95.2139 100.626H95.898C95.5688 99.9605 95.7231 99.2501 95.898 98.5724ZM99.1519 98.5724H98.2964C98.5382 99.3393 98.7336 99.8129 98.4679 100.626H98.9805C98.7542 99.8816 98.6805 99.2415 99.1519 98.5724ZM102.234 98.5724H101.379C101.847 99.2604 101.849 99.9347 101.379 100.626H102.234C101.905 99.9605 102.06 99.2501 102.234 98.5724ZM105.317 98.5724H104.633C104.808 99.2518 104.96 99.9605 104.633 100.626H105.317C104.988 99.9605 105.142 99.2501 105.317 98.5724ZM17.8094 103.543L11.4746 104.058C11.7712 104.59 12.409 104.775 12.8462 105.168C14.0771 106.278 13.8988 107.297 13.8731 108.857H14.5572C14.5572 107.593 14.3892 106.357 15.1675 105.266L17.8111 103.543H17.8094ZM129.461 103.543L122.784 104.14C125.071 105.237 126.146 106.093 125.95 108.854C126.152 108.639 126.346 108.802 126.392 108.433C126.511 107.488 126.089 106.393 126.751 105.54L129.461 103.541V103.543ZM23.803 106.371C23.9419 107.057 23.7019 108.118 23.803 108.857H24.4871C24.0002 105.829 25.2963 105.509 27.3982 104.058L20.892 103.715L23.1036 105.183C23.2407 105.334 23.7756 106.234 23.803 106.369V106.371ZM36.6458 103.713H35.9617L36.1366 105.254H36.8172L36.6458 103.713ZM58.7361 103.715C58.1687 103.571 58.4447 104.372 58.359 104.792C58.3092 105.034 58.1292 105.204 58.0521 105.427H59.079C58.707 104.894 58.6933 104.351 58.7361 103.715ZM136.484 108.855V106.198C136.484 105.431 137.804 104.892 138.256 104.543C138.421 104.416 138.69 104.307 138.369 104.137C138.15 104.02 135.65 103.742 135.196 103.713C134.894 103.694 132.545 103.662 132.542 103.797C135.002 104.676 135.966 106.206 135.625 108.855H136.482H136.484ZM7.02056 105.084V109.885H7.53489V106.371C7.53489 106.016 8.63898 104.803 8.56183 104.744L7.02056 105.086V105.084ZM32.7078 105.256L30.4824 104.743C32.4626 105.964 31.9106 107.898 31.8523 109.885H32.7095V105.256H32.7078ZM117.476 105.256V109.885L118.307 109.603C118.499 107.79 117.675 105.782 119.703 104.828L117.474 105.257L117.476 105.256ZM142.991 105.084L141.45 104.743C141.829 105.195 142.82 106.304 142.82 106.884V109.883H142.991V105.082V105.084ZM20.3416 107.177C19.1621 106.088 17.6003 106.975 17.8077 108.514L20.3759 108.684L20.3399 107.177H20.3416ZM132.374 108.514C132.554 106.137 129.268 106.074 129.634 108.514H132.374ZM42.4697 107.313H39.5586V108.684C40.745 107.743 41.2833 107.743 42.468 108.684V107.313H42.4697ZM47.4364 107.313H46.0648C46.3151 107.742 46.3649 109.123 45.95 109.384L43.8378 109.543C45.9362 111.107 47.4364 112.973 46.2346 115.712H47.0901C46.1197 113.37 46.9803 110.916 49.3154 109.883L47.5907 109.257L47.4329 107.315L47.4364 107.313ZM53.7712 107.313H51.203V108.512C52.1596 107.862 52.8162 107.862 53.7695 108.512V107.313H53.7712ZM58.7378 107.313H57.5377C57.7023 109.08 57.4555 109.964 55.4839 109.715C57.4332 111.206 58.8373 113.188 57.7109 115.712H58.5664C57.4812 113.473 58.7344 110.463 61.1346 109.712L58.9504 109.331L58.7396 107.313H58.7378ZM65.2458 107.313H62.5061V108.684C62.5559 108.749 63.6274 108.023 63.9754 107.999C64.5669 107.958 64.7383 108.481 65.2458 108.51V107.311V107.313ZM70.041 107.313H69.0124C68.973 107.804 69.1735 109.102 68.7278 109.384L66.6156 109.543L68.3352 110.82C69.6159 112.206 69.8593 113.965 69.1838 115.712H69.8679C69.141 113.471 70.2622 111.383 71.7503 109.797L70.1971 109.427L70.041 107.311V107.313ZM76.5473 107.313H73.8076L73.8951 108.859C74.778 108.485 75.6523 108.768 76.5456 108.857V107.315L76.5473 107.313ZM81.3425 107.313H80.3139C80.2744 107.804 80.475 109.102 80.0293 109.384L78.26 109.543L79.7995 110.998C80.8796 112.46 80.8042 113.991 80.4853 115.712H81.3408C80.223 113.069 81.5808 110.878 83.909 109.626C81.7643 109.576 81.1111 109.9 81.3425 107.311V107.313ZM88.0202 107.313H85.1091L85.1965 108.685C86.2938 107.982 86.9967 107.627 88.0185 108.684V107.313H88.0202ZM92.9886 107.313H91.7885C91.7491 107.804 91.9496 109.102 91.5039 109.384L89.3917 109.543C90.7427 110.703 92.4863 111.765 92.3045 113.826L93.3298 111.342L95.5551 109.71C95.6014 109.44 95.3134 109.528 95.123 109.531C94.4424 109.547 93.8629 109.859 93.1977 109.499L92.9869 107.311L92.9886 107.313ZM99.6663 107.313H96.7552V108.684C97.7221 107.814 98.4542 107.591 99.4931 108.512L99.6663 107.313ZM104.462 107.313H103.261C103.222 107.804 103.423 109.102 102.977 109.384L100.865 109.543C101.586 110.31 102.641 110.811 103.261 111.685C103.664 112.251 103.69 112.762 104.035 113.311C104.179 111.765 105.308 110.516 106.687 109.881L104.674 109.329L104.463 107.311L104.462 107.313ZM111.139 107.313H108.228V108.684C109.339 107.641 110.028 107.641 111.137 108.684V107.313H111.139ZM28.5966 107.486L28.0737 107.562L27.9382 107.769L27.9125 109.2H28.5966V107.486ZM122.417 107.682L121.587 107.484V109.199H122.442L122.417 107.682ZM38.1871 109.543C37.5013 109.499 36.7727 109.682 36.1349 109.37V111.256L38.1871 109.543ZM114.052 109.542L112.511 109.627L114.05 110.741V109.542H114.052ZM65.9298 120.343C65.875 119.36 66.0053 118.318 65.9298 117.342C65.8921 116.848 65.5767 116.417 65.5784 115.969C65.5835 115.082 66.5093 114.821 66.2333 113.608C66.0447 112.776 64.5086 112.028 63.7868 111.661C63.0393 112.227 61.5444 112.797 61.3746 113.819C61.2546 114.542 62.057 115.106 62.1033 115.822C62.1324 116.278 61.8392 116.856 61.8204 117.345C61.7792 118.342 61.8444 119.348 61.817 120.343H65.9264H65.9298ZM43.1537 120.343C43.5481 118.903 42.4765 116.444 42.9446 115.247C43.0389 115.007 43.3458 114.78 43.4246 114.519C43.8035 113.282 41.9948 112.17 41.0107 111.777C40.8084 111.784 39.5294 112.608 39.3031 112.805C37.6264 114.271 39.154 114.631 39.2209 115.979C39.2449 116.469 39.0408 116.875 39.034 117.337C39.0186 118.339 39.0597 119.344 39.0408 120.345H43.1503L43.1537 120.343ZM54.6284 120.343C54.5718 119.535 54.7038 118.653 54.6284 117.855C54.5649 117.187 54.2306 116.76 54.2718 115.966C54.3335 114.775 55.5542 114.346 54.5529 113.131C54.2358 112.745 52.6499 111.686 52.1888 111.8C52.0807 111.827 50.5498 112.848 50.4315 112.972C49.2794 114.176 50.6595 114.947 50.7006 115.974C50.7161 116.367 50.5138 116.752 50.5103 117.165C50.5 118.224 50.5309 119.286 50.5189 120.343C51.8493 119.844 53.2568 120.485 54.6284 120.343ZM88.7042 120.341C88.6854 119.399 88.73 118.45 88.7128 117.507C88.7025 116.934 88.4642 116.444 88.5294 115.798C88.5945 115.151 89.2649 114.475 89.1911 113.957C89.0831 113.21 87.1047 111.662 86.4361 111.796C86.184 111.846 84.8725 112.742 84.6736 112.963C83.369 114.427 84.9051 114.789 84.9497 115.974C84.9771 116.7 84.6462 117.932 84.5982 118.716C84.5656 119.257 84.6153 119.804 84.5965 120.345C85.9595 120.262 87.3584 119.955 88.706 120.345L88.7042 120.341ZM100.179 120.171C100.426 120.171 99.8909 115.887 100.141 115.247C100.321 114.785 100.782 114.669 100.664 113.958C100.546 113.248 98.8142 111.801 98.2124 111.779C97.9158 111.769 96.5152 112.656 96.2511 112.896C95.0339 114.005 96.1414 114.77 96.246 115.798C96.3711 117.024 95.8122 118.829 96.0694 120.171H100.179ZM107.542 120.171H111.48V116.143C111.48 116.086 111.324 115.981 111.377 115.715C111.57 114.754 112.852 114.344 111.518 112.97C111.257 112.702 109.835 111.74 109.522 111.765C109.339 111.781 107.695 112.869 107.537 113.054C106.507 114.264 107.829 115.13 107.859 115.962C107.875 116.386 107.57 117.021 107.544 117.517C107.499 118.399 107.57 119.291 107.541 120.171H107.542ZM32.6975 113.325C24.1888 111.656 15.2292 111.299 6.77883 113.469L6.67939 113.998C15.2292 112.109 24.1459 112.479 32.7078 113.998L32.6975 113.323V113.325ZM143.482 113.509C142.325 113.159 141.133 112.893 139.941 112.682C134.925 111.798 128.973 111.762 123.9 112.287C121.685 112.515 119.509 113.03 117.306 113.315V114.084C125.775 112.462 135.004 112.076 143.422 114.168L143.482 113.507V113.509ZM74.442 112.493C73.3842 112.737 72.7275 114.334 73.1081 115.297C74.0065 117.56 78.0131 116.753 77.1542 113.989C76.849 113.008 75.4706 112.254 74.4402 112.493H74.442ZM14.0428 116.228V123.428H14.5572V118.543C14.5572 118.435 15.0801 117.656 15.2361 117.508L17.4683 116.06L14.0446 116.23L14.0428 116.228ZM23.9745 118.884C24.2128 120.073 23.7979 121.98 23.9745 123.256H24.6603V119.228C24.6603 119.119 25.1832 118.34 25.3392 118.193L27.5714 116.745L20.8954 116.058L22.7795 117.34C23.1224 117.634 23.8939 118.476 23.9762 118.884H23.9745ZM125.523 119.228C125.744 120.326 125.36 122.078 125.523 123.256H126.379V118.541C126.379 117.793 128.793 116.577 129.29 116.057L122.612 116.57C122.514 116.963 122.684 116.851 122.826 116.963C123.632 117.586 125.288 118.068 125.521 119.228H125.523ZM136.141 116.228L132.544 116.058C133.23 116.632 135.798 117.682 135.798 118.715V123.258H136.141V116.23V116.228ZM11.9855 117.599V116.4L10.6174 116.573L11.9855 117.599ZM139.395 116.571L138.026 116.4V117.599C138.119 117.706 139.029 117.079 139.179 116.964C139.328 116.849 139.492 116.968 139.395 116.573V116.571ZM6.50795 117.599V120.684L6.86798 118.902L8.22066 117.258L6.50795 117.599ZM32.5363 119.228V124.284H117.645V119.569C117.645 118.888 119.12 117.694 119.699 117.34L117.303 117.599C117.548 118.646 117.692 122.694 116.955 123.335C116.742 123.521 116.469 123.588 116.193 123.601L34.1547 123.606C31.59 123.8 33.2187 118.238 32.6889 117.615L30.6522 117.34C31.0722 117.858 32.394 118.577 32.5346 119.228H32.5363ZM143.497 117.606L141.793 117.258C142.265 118.038 143.346 118.452 143.336 119.483C143.617 119.53 143.495 119.252 143.506 119.059C143.533 118.579 143.499 118.087 143.497 117.606ZM47.0918 118.112H46.4077V120.343H47.0918V118.112ZM58.395 120.343C58.6744 117.378 57.4315 117.386 57.7109 120.343H58.395ZM69.6964 118.112H69.1838V120.343H69.6964V118.112ZM104.462 118.112H103.604V120.343H104.462V118.112ZM81.5122 118.284H80.8282V120.343H81.3408L81.5122 118.284ZM92.8154 118.284H92.1314V120.343H92.8154V118.284ZM20.5491 123.256V119.914C20.5491 119.785 19.301 118.984 19.121 118.999C18.9272 119.017 17.8094 119.806 17.8094 119.914V123.256H20.5491ZM77.5725 118.97C75.9798 119.715 74.3854 119.54 72.7807 118.97V120.341C74.4265 120.453 75.9387 119.989 77.5742 120.341V118.968L77.5725 118.97ZM132.374 123.256V119.914C132.374 119.82 131.208 119.125 130.932 119.138C130.684 119.152 129.633 119.818 129.633 119.914V123.085H132.115C132.151 123.085 132.311 123.342 132.372 123.256H132.374ZM143.504 124.284V119.826H143.333V124.284H143.504ZM29.2841 123.771V120.942C29.2841 120.768 28.6909 120.164 28.5143 120.001C27.8062 120.005 28.1783 122.935 28.0754 123.5L29.2841 123.771ZM122.099 123.6V120.429C122.099 120.089 121.073 120.089 121.073 120.429V123.6H122.099ZM34.3965 127.91C24.806 126.055 14.6823 125.777 5.14498 128.064L5.13813 129.085C14.72 126.901 24.8197 127.078 34.4188 129.085L34.3965 127.91ZM144.702 128.913L144.68 128.165C144.649 128.009 144.55 127.966 144.414 127.917C143.345 127.522 141.006 127.218 139.797 127.052C135.271 126.429 130.828 126.446 126.291 126.683C122.766 126.866 119.236 127.179 115.785 127.91L115.85 129.088C125.316 127.105 135.208 127.005 144.702 128.913ZM39.73 127.541H38.0156L38.0413 128.375L39.73 128.572V127.543V127.541ZM43.8395 127.541H42.2965V128.572H43.8395V127.541ZM52.4031 127.541H50.8601V128.572H52.4031V127.541ZM56.684 127.541H55.141V128.572H56.684V127.541ZM60.9649 127.541H59.4219V128.572H60.9649V127.541ZM65.2458 127.541H63.5314V128.4L65.2441 128.57V127.541H65.2458ZM69.5267 127.541H67.8123V128.572H69.5267V127.541ZM73.6362 127.541H71.9218V128.572H73.6362V127.541ZM77.9188 127.541H76.2044V128.572H77.9188V127.541ZM82.1997 127.541H80.4853V128.572H82.1997V127.541ZM86.4806 127.541H84.7662V128.572H86.4806V127.541ZM90.5901 127.541H89.0471V128.572H90.5901V127.541ZM94.871 127.541H93.328V128.572H94.871V127.541ZM99.1519 127.541H97.4375V128.572H99.1519V127.541ZM103.435 127.543H101.72C101.436 128.466 102.228 128.484 102.452 128.953C102.9 129.886 102.416 132.659 102.397 133.792C102.3 139.684 102.608 145.569 102.586 151.465C102.545 162.71 101.96 174.486 102.397 185.75C102.435 186.727 102.646 187.758 102.665 188.743C103.099 188.846 103.111 187.844 103.107 187.628C102.915 175.376 102.876 162.998 102.913 150.778C103.416 143.954 102.269 136.221 102.913 129.505C102.994 128.658 103.541 128.375 103.436 127.543H103.435ZM107.887 127.541H106.173V128.572H107.887V127.541ZM112.168 127.541H110.282V128.572H112.168V127.541ZM47.6061 188.743V129.857C47.6061 129.768 47.3901 129.586 47.4569 129.215C47.577 128.546 48.5267 128.56 48.2919 127.716H46.5792C46.7592 128.315 47.0386 128.869 47.1021 129.505C47.4827 133.352 47.0986 138.544 47.1003 142.551C47.1038 156.329 47.0283 170.289 46.9152 184.023C46.9032 185.563 46.9409 187.106 46.9203 188.645L47.6078 188.745L47.6061 188.743ZM105.488 140.828V129.428C105.087 129.553 105.13 130.374 105.135 130.715C105.379 144.413 105.154 158.172 105.139 171.85C105.132 177.398 105.158 182.943 105.146 188.489L105.488 188.743V174.258C105.488 173.757 106.226 173.683 106.594 173.65C107.484 173.575 112.644 173.544 113.16 173.77C113.426 173.887 113.26 174.213 113.534 174.172V172.116C113.26 172.074 113.426 172.401 113.16 172.518C112.665 172.734 107.271 172.72 106.426 172.631C106.061 172.592 105.643 172.557 105.562 172.132L105.67 158.33C105.799 158.072 106.001 158.077 106.248 158.05C107.062 157.957 112.696 157.969 113.159 158.172C113.425 158.289 113.258 158.615 113.533 158.573L113.536 156.604C113.327 156.327 113.402 156.815 113.159 156.919C112.641 157.141 107.289 157.123 106.425 157.033C105.56 156.942 105.547 156.737 105.478 155.926C105.214 152.781 105.194 146.698 105.478 143.568C105.542 142.861 105.655 142.429 106.438 142.302C108.153 142.412 109.852 142.489 111.573 142.47C112.154 142.463 112.71 142.144 113.25 142.457C113.401 142.544 113.268 142.87 113.533 142.803L113.536 141.005C113.327 140.729 113.402 141.216 113.159 141.321C112.62 141.551 107.496 141.518 106.593 141.441C106.143 141.403 105.584 141.376 105.487 140.833L105.488 140.828ZM44.5236 129.6V140.828C44.5236 141.329 43.7864 141.403 43.4178 141.436C42.5143 141.513 37.3881 141.545 36.8515 141.315C36.6098 141.213 36.6835 140.725 36.4743 141L36.4778 142.798C36.7521 142.841 36.5858 142.513 36.8515 142.396C38.2522 141.784 42.0051 142.98 43.7178 142.316C44.3984 142.503 44.4756 142.94 44.5321 143.562C44.8167 146.679 44.7944 152.784 44.5321 155.919C44.4636 156.731 44.4464 156.935 43.5858 157.026C42.7251 157.117 37.3693 157.134 36.8515 156.912C36.6098 156.809 36.6835 156.322 36.4743 156.597L36.4778 158.566C36.7469 158.621 36.6424 158.251 36.8138 158.136C37.1035 157.942 43.0269 157.961 43.7641 158.043C44.011 158.071 44.2115 158.064 44.3418 158.323L44.4498 172.125C44.3693 172.551 43.9509 172.585 43.5858 172.624C42.7406 172.715 37.347 172.729 36.8515 172.511C36.5858 172.394 36.7521 172.068 36.4778 172.11V174.165C36.7521 174.208 36.5858 173.88 36.8515 173.764C37.3676 173.537 42.528 173.568 43.4178 173.644C43.7881 173.674 44.5236 173.748 44.5236 174.251V188.736C44.8253 188.774 44.6864 188.348 44.695 188.137C44.8493 184.419 44.6556 180.553 44.6882 176.814C44.6916 176.368 44.8733 175.943 44.8767 175.455C44.8939 173.405 44.7464 171.284 44.7584 169.249C44.839 156.132 44.9213 142.98 44.8665 129.847L44.5236 129.593V129.6ZM42.4697 130.628H38.7031V133.371C39.2894 133.273 39.9221 132.554 40.5135 132.517C41.105 132.479 42.2262 133.442 42.2965 133.371L42.4697 130.629V130.628ZM111.311 130.628L107.544 130.799V133.543C108.07 133.345 108.979 132.529 109.512 132.527C110.1 132.527 110.695 133.357 111.311 133.371V130.628ZM100.35 130.799H49.8331V160.457H50.0046V157.628C50.0046 157.317 50.4503 155.557 50.5669 155.106C52.9808 145.83 61.0472 144.039 68.4432 139.914C70.4045 138.819 72.4498 137.702 73.9756 136.027C72.0589 134.648 72.7395 131.216 75.2632 131.298C77.7062 131.377 77.9291 134.838 76.0347 136.027C76.0347 136.741 81.6717 139.919 82.5958 140.428C90.3707 144.713 98.017 146.511 99.7897 156.645L100.177 159.598L100.35 130.797V130.799ZM31.5094 132.002C26.1158 131.014 20.3108 130.693 14.8143 130.972C13.3502 131.048 10.338 131.285 8.99729 131.664C8.81213 131.717 8.68184 131.721 8.56526 131.913C9.20131 132.184 9.85622 134.03 10.3431 134.047C11.1232 134.075 13.1239 133.479 14.1286 133.373C17.65 132.999 21.7235 133.038 25.2552 133.373C26.265 133.469 29.1915 134.166 29.8755 134.066C30.3384 133.999 30.9282 132.362 31.506 132.002H31.5094ZM141.45 131.83C134.102 130.568 126.137 130.525 118.847 132.084L119.975 134.07C126.574 132.947 133.387 132.784 139.971 134.07L141.45 131.829V131.83ZM117.133 188.743V135.514C117.133 135.322 116.125 133.814 115.763 133.714V188.743H117.133ZM34.249 188.743V133.886C33.8873 133.985 32.8792 135.494 32.8792 135.686V188.743H34.249ZM41.0999 138.172L41.0124 136.458L40.6455 136.147L40.1724 136.271L39.8998 138.172H41.0999ZM110.073 136.494C110.059 136.47 109.632 136.211 109.594 136.199C109.042 136.024 108.837 137.808 108.912 138.172H110.112C110.032 137.762 110.248 136.784 110.073 136.494ZM29.6252 138.857C29.5687 138.404 29.8412 137.537 29.3372 137.347C28.6394 137.084 26.7639 136.921 25.9238 136.822C22.4864 136.413 18.9478 136.317 15.5001 136.63C13.8645 136.777 12.2118 137.067 10.6123 137.412L10.6191 138.687C16.8888 137.57 23.3813 137.592 29.6252 138.857ZM139.557 137.323C133.274 136.166 126.85 136.338 120.557 137.314V138.857C126.782 137.566 133.295 137.812 139.566 138.687L139.557 137.323ZM96.7552 188.743V157.971C96.7552 157.159 95.8945 154.553 95.5328 153.709C94.247 150.715 91.8811 149.006 89.1654 147.398C84.5502 144.665 79.3486 142.849 75.0694 139.555C70.9068 142.628 66.0276 144.54 61.5358 147.055C55.9296 150.195 53.4866 153.174 53.0905 159.858L53.154 188.489C53.3066 188.983 54.8513 188.652 55.3141 188.743V160.885C55.3141 160.577 55.6707 159.194 55.7788 158.779C57.7263 151.305 63.4628 149.548 69.4067 146.022C71.2994 144.9 73.127 143.697 74.9614 142.486L75.4672 142.587C83.5421 149.023 93.9658 149.829 94.7064 162.25L94.6979 188.745H96.7535L96.7552 188.743ZM21.7492 141.429C21.5812 141.484 21.3771 141.257 21.3206 141.257H16.7825V188.743H21.7492V141.429ZM133.23 141.429L128.263 141.257V188.743H133.23V141.429ZM14.5555 141.599C14.108 141.564 10.6414 142.016 10.6071 142.213L10.446 188.743H14.5555V141.6V141.599ZM25.1729 188.743H29.6252L29.6321 142.398L25.4283 141.583L25.154 141.7L24.9929 184.036L25.1729 188.743ZM124.839 141.599C123.389 141.65 121.964 141.974 120.558 142.285V188.743H124.839V141.6V141.599ZM135.457 141.599V188.741H139.566V142.113L135.457 141.599ZM42.4697 144.342H38.5317V146.398C38.782 146.679 40.0061 144.883 40.505 145.03L42.3823 146.401L42.4697 144.342ZM111.482 144.342H107.544V146.4C107.621 146.504 109.294 145.041 109.522 145.018C110.174 144.955 110.769 146.262 111.482 146.4V144.342ZM91.2742 188.743L91.4525 187.634C91.0119 179.225 92.0165 170.258 91.4439 161.916C90.8936 153.913 84.473 151.943 78.4863 148.486C77.9445 148.174 75.2392 146.358 74.9614 146.424C71.9492 148.471 68.6369 150.027 65.5355 151.919C62.825 153.573 60.3545 155.135 59.2436 158.307C59.103 158.709 58.5647 160.596 58.5647 160.886V188.745H91.2725L91.2742 188.743ZM41.2713 154.114V150.257C41.2713 150.065 40.6678 149.148 40.4998 149.15C39.5226 149.826 39.9461 151.377 39.9083 152.492C39.8895 153.035 39.6392 153.558 39.73 154.114H41.2713ZM110.284 154.114V149.742C110.284 149.526 109.524 148.893 109.082 149.397C108.693 149.841 109.123 150.62 108.742 151.113V154.112H110.284V154.114ZM42.4697 159.943H38.5317V162C39.1574 161.583 40.0078 161.181 39.9083 160.293C40.9901 160.059 40.7484 160.661 41.1736 161.156C41.3039 161.307 42.4217 162.063 42.468 162V159.943H42.4697ZM109.426 159.944L107.542 159.941L107.546 161.998C107.589 162.055 108.667 161.351 108.751 161.235C108.977 160.919 108.912 160.521 109.078 160.222C109.162 160.07 109.495 160.209 109.428 159.941L109.426 159.944ZM111.482 159.941L109.769 159.944C109.701 160.21 110.033 160.073 110.119 160.226C110.443 160.809 110.26 161.446 111.228 161.827C111.525 161.943 111.46 161.753 111.482 161.574C111.549 161.07 111.434 160.462 111.482 159.941ZM108.742 165.171C108.422 166.293 108.981 168.927 108.742 170.227H110.455V165.342C110.455 165.205 109.742 164.498 109.51 164.438C109.452 164.44 108.76 165.109 108.742 165.171ZM41.2713 170.229V165.172C41.2713 165.123 40.7055 164.539 40.5015 164.567C40.2975 164.539 39.7318 165.124 39.7318 165.172V170.229H41.273H41.2713ZM42.4697 175.543H38.5317V177.77C39.5706 177.461 39.6117 177.02 39.7712 176.097C41.3862 175.354 40.8907 176.427 41.2644 177C41.5062 177.37 42.0994 177.689 42.4697 177.942V175.541V175.543ZM111.482 175.543H107.544L107.631 177.773C108.914 177.616 108.528 175.91 109.514 175.91C110.424 175.91 110.078 176.696 110.46 177.168C110.52 177.242 111.446 177.82 111.482 177.772V175.543ZM111.482 188.743V180.428L109.51 178.832L107.714 180.256V188.743H111.48H111.482ZM42.2982 179.999L40.5032 178.968L38.7014 180.256V188.743H42.2982V180.001V179.999Z" fill="#FF2727"/>
<path d="M55.2674 134.268C56.6989 134.023 58.4373 134.601 59.2945 135.813C61.945 139.557 57.443 144.21 53.6112 141.331C51.1219 139.459 52.058 134.819 55.2674 134.268ZM56.6389 138.987C57.2749 138.421 56.5412 136.844 55.6 137.474C54.6587 138.103 55.8383 139.699 56.6389 138.987Z" fill="#FF2727"/>
<path d="M93.2827 134.27C97.9013 133.493 99.8883 140.49 95.2097 142.027C89.9104 143.769 87.9731 135.164 93.2827 134.27ZM93.9598 137.341C93.1575 137.405 93.0221 138.892 93.7593 139.031C95.3314 139.327 94.6988 137.283 93.9598 137.341Z" fill="#FF2727"/>
</svg>
