<svg width="221" height="132" viewBox="0 0 221 132" fill="none" xmlns="http://www.w3.org/2000/svg">
<path d="M65.4274 25.7784C65.5553 24.4372 66.1944 22.6234 67.2937 21.7645C67.6693 21.4704 68.6192 21.2037 68.7352 20.8527C68.8138 19.7566 68.5228 17.1545 70.2258 17.2643C71.9879 17.3781 71.101 20.0076 71.3507 21.1508L73.4805 22.5489C73.392 19.0742 76.5936 15.9466 79.9662 15.6956C80.0606 14.2564 79.3585 11.6974 81.6181 11.9817C83.5434 12.2249 82.2455 15.1525 82.9043 15.6074L86.0566 16.6741C85.9504 13.4289 86.3772 10.2228 89.9544 9.20319C90.2749 7.62272 89.0871 4.26767 91.6436 4.55004C93.2838 4.73044 92.2356 8.00117 92.5679 9.20711C93.9819 9.54046 95.1559 10.4621 95.7832 11.7778C98.7331 7.49919 103.467 4.7873 108.633 4.12257C108.829 2.43426 107.941 -0.250176 110.527 0.0165024C112.308 0.200824 111.703 3.12056 111.797 4.33826C116.778 4.61867 122.141 7.56978 124.572 11.9719C125.461 10.7346 126.346 9.67183 127.877 9.20123C128.143 8.09137 127.299 4.8324 128.798 4.53827C131.49 4.00688 130.133 7.62861 130.483 9.21299C134.153 9.75615 134.808 13.5583 134.591 16.6721L137.543 15.6015C138.184 15.125 136.991 12.3974 138.66 12.017C141.095 11.4621 140.393 14.1799 140.493 15.6858C143.956 16.08 147.132 18.9526 147.166 22.5469L148.473 21.4037L149.301 21.1567C149.521 20.0998 148.743 17.5114 150.218 17.2604C152.583 16.8584 151.25 20.2252 151.771 20.99C155.447 22.2096 154.931 25.6608 155.221 28.8139C157.388 27.2138 159.944 26.0628 162.684 25.8745C162.859 24.4999 162.001 21.6057 164.007 21.4175C166.589 21.1743 165.663 24.2764 165.85 25.8569C169.415 26.2588 172.807 28.0942 175.057 30.8747C175.887 31.8983 176.383 33.1003 177.224 34.1004V30.6747C177.224 30.4845 178.029 30.0159 178.316 29.9963C180.487 29.8453 179.628 32.8258 179.767 34.1788C183.177 35.173 183.279 38.5398 183.118 41.5438C184.859 41.2674 184.75 43.2596 184.495 44.4793L185.661 44.2734C185.856 42.9968 185.036 39.8065 186.951 39.8104C189.026 39.8144 187.978 43.1282 188.237 44.4714C190.025 44.5185 191.568 45.9323 191.964 47.6108C192.286 47.6637 192.147 47.348 192.158 47.1264C192.219 46.0303 191.793 44.0479 193.602 44.1459C195.563 44.2538 194.727 46.8147 194.941 48.0716C196.735 49.0795 197.979 50.2795 198.229 52.4306C198.286 52.9306 198.17 55.1131 198.27 55.2288C198.51 55.5072 199.741 55.0033 199.94 56.6151C200.097 57.8916 199.405 58.8368 198.054 58.576V66.2116L199.152 63.8782C200.247 62.2212 201.928 60.8643 203.93 60.5153C204.099 59.174 203.264 55.8464 205.574 56.0719C207.675 56.2778 206.662 59.1054 206.917 60.5153C209.356 60.7604 211.893 63.3115 212.538 65.5841C212.792 66.4763 212.729 67.292 213.016 68.1431L215.149 68.1686L215.348 106.249C216.53 107.143 216.561 109.698 217.012 110.465C217.094 110.604 218.634 111.355 219.055 111.757C220.733 113.363 221.309 115.88 220.845 118.098H217.309V132.001H3.73253V118.098H0V115.259C0 114.075 1.57521 111.827 2.56636 111.161C2.92624 110.919 3.93705 110.616 4.03341 110.47C4.15731 110.284 4.25957 109.012 4.42476 108.512C4.58995 108.012 5.50047 106.755 5.50047 106.647V68.1725H7.85837C7.73448 64.5547 10.1514 61.2388 13.7325 60.5172C13.8957 59.2093 13.233 56.2465 15.0737 56.0759C17.5987 55.8425 16.7413 58.9309 16.9203 60.5094C19.1307 60.9957 20.8731 62.2467 21.9134 64.2488L22.5918 66.2136L22.4089 58.8858C20.9655 58.6975 20.6154 57.9348 20.8377 56.5327C21.0599 55.1307 22.2064 55.5994 22.3735 55.1268C22.5604 54.5954 22.3322 53.1718 22.4207 52.4326C22.6626 50.4011 24.0274 49.0324 25.7088 48.0716C25.9409 46.7421 25.0736 44.4028 27.0205 44.2734C28.9438 44.1459 28.4227 45.8264 28.4915 47.1264C28.5033 47.348 28.3637 47.6637 28.6862 47.6108C29.1641 45.7421 30.5702 44.8224 32.3322 44.291C32.7511 43.0263 31.6203 39.7693 33.699 39.7693C35.7776 39.7693 34.7511 43.0008 34.989 44.2714L36.1552 44.4773C35.699 43.2341 35.7737 41.2615 37.5318 41.5419C37.3312 38.4868 37.459 35.4632 40.6822 34.167C40.7294 32.7631 40.1611 29.7708 42.3479 29.9747C42.7766 30.0139 43.4256 30.4963 43.4256 30.8728V34.2984C44.2928 33.316 44.6743 32.0395 45.5042 30.9865C47.6753 28.2354 51.103 26.2392 54.6133 25.8706C54.8159 24.4568 53.9152 21.6567 55.9525 21.4135C58.9338 21.0567 57.2151 25.3019 57.9506 25.7961C60.7215 26.0333 63.3547 27.1883 65.4294 29.0139C65.5002 27.9687 65.3311 26.8138 65.4294 25.7824L65.4274 25.7784ZM123.783 20.7861C123.581 11.1817 113.901 4.85789 104.924 8.55218C100.224 10.4856 96.2218 15.527 96.6682 20.7861H99.6161C100.934 9.59928 119.642 9.57183 120.835 20.7861H123.783ZM131.25 16.0858C131.98 10.917 126.741 11.0758 127.321 16.0858H131.25ZM93.1323 16.0858C93.8403 11.1601 88.7076 11.1248 89.3998 16.0858H93.1323ZM117.101 19.8076C115.089 15.125 108.824 14.3171 105.115 17.5545C104.79 17.8389 103.876 18.7879 103.744 19.1272C103.648 19.3742 103.779 19.4899 104.033 19.4154C104.584 19.2507 105.299 18.7683 105.946 18.5801C109.474 17.5487 113.962 17.7702 117.101 19.8095V19.8076ZM85.86 23.1352C85.2189 17.2643 77.4549 17.5369 76.625 23.2313L78.7056 22.5626C81.0635 21.8763 83.6574 21.9881 85.86 23.1352ZM144.019 23.3313C143.816 20.4468 140.839 18.131 137.964 18.9605C136.458 19.3958 134.692 21.639 134.686 23.1352C137.537 21.4488 141.13 22.0626 144.019 23.3313ZM93.329 19.4154H89.2031V32.8278L89.4981 33.1219H93.329V19.4154ZM131.25 19.6115H127.124V32.9258H131.25V19.6115ZM103.545 24.0156V41.5399C108.08 40.4948 112.556 40.6516 117.103 41.5399L116.804 23.9215C113.124 20.1743 107.25 20.4527 103.545 24.0156ZM70.7332 28.0295V24.798C70.7332 24.6941 70.1491 24.2686 69.9663 24.1999C68.7509 23.9352 68.5562 27.1177 68.8551 27.8452L70.7352 28.0295H70.7332ZM123.783 24.1137H120.444L120.247 42.3223H123.783V24.1137ZM100.206 24.3097H96.4735L96.6702 42.3223H99.913L100.208 42.0282V24.3078L100.206 24.3097ZM149.915 24.8V27.8354H151.685C151.72 26.9648 151.952 23.9136 150.448 24.3411C150.31 24.3803 149.944 24.698 149.915 24.8ZM85.8619 42.1282V27.1491C83.5257 24.9313 79.6988 24.8353 77.4136 27.1491V41.8341L77.7007 42.0811L85.8639 42.1282H85.8619ZM143.038 41.9321V26.953C140.517 24.8078 137.073 25.0902 134.589 27.1491V42.1282L143.038 41.9321ZM74.2691 41.9321V28.3236C74.2691 28.2805 73.9328 27.9668 73.8777 28.0295C73.7735 28.2982 74.0724 28.4786 74.0724 28.5197V41.9321H74.2691ZM146.576 41.9321V28.0295C146.229 27.9864 146.389 28.4707 146.379 28.7119C146.285 30.9904 146.424 33.2925 146.387 35.5749C146.379 36.0848 146.186 36.5672 146.172 37.124C146.143 38.4182 146.027 40.4281 146.182 41.6399C146.22 41.9282 146.336 42.2478 146.576 41.9301V41.9321ZM65.6241 36.0573C64.5641 32.0826 60.4697 28.8296 56.2829 29.0021C52.0725 29.1747 48.0234 32.2689 46.5642 36.1534L47.7186 36.4338C50.3026 30.8414 59.2839 31.1355 62.2219 36.2671L65.6241 36.0554V36.0573ZM173.887 36.2534C173.606 34.5063 172.105 32.565 170.725 31.4748C164.981 26.9314 157.171 29.1041 154.825 35.9593C155.993 35.8279 157.103 35.9318 158.249 36.2201C160.581 32.3572 165.919 31.4297 169.83 33.3474C171.016 33.9298 172.452 35.1161 172.711 36.4515L173.889 36.2534H173.887ZM70.7332 31.3591L69.1619 31.163V46.4343C69.4589 46.4617 70.7332 46.85 70.7332 46.3362V31.3571V31.3591ZM149.915 31.3591V46.6303H151.486C151.354 46.3362 151.262 46.0891 151.27 45.7519C151.303 44.3498 151.472 42.8655 151.496 41.4497C151.553 38.0888 151.433 34.7161 151.488 31.3552H149.915V31.3591ZM59.5337 54.6582C59.4786 54.2954 59.339 53.9679 59.3272 53.5914C59.1836 49.0148 59.7637 43.7224 59.3449 39.281C58.981 35.4122 53.459 34.4396 51.1954 37.6358C51.0814 37.7966 50.4953 38.8241 50.4953 38.8967V54.6582H59.5337ZM169.956 54.6582V38.5045C169.956 38.4084 169.409 37.5907 169.274 37.4221C167.462 35.1926 163.541 35.073 161.814 37.4397C161.702 37.5927 161.114 38.628 161.114 38.7006V54.6582H169.956ZM93.329 36.4495H89.4981C89.1284 36.4495 89.1284 37.428 89.4981 37.428H93.034L93.329 36.4495ZM131.25 36.4495H127.419C127.05 36.4495 127.05 37.428 127.419 37.428H131.25V36.4495ZM42.637 41.5399V37.7221C42.637 36.9221 40.869 37.8888 40.869 38.3104V41.5419H42.637V41.5399ZM178.013 37.7221V41.5399H179.783C179.773 40.5771 180.058 37.5554 178.691 37.4221C178.444 37.3986 178.086 37.4868 178.013 37.7221ZM65.8207 39.583C64.9063 39.3692 62.9181 39.0418 62.6802 40.2732L62.7529 54.3679L62.9712 54.6601H65.8207V39.583ZM157.775 54.6582V40.0712C157.775 39.3653 155.382 39.3065 154.827 39.581V54.6582H157.775ZM47.3528 54.6601L47.1561 40.2673C47.0971 39.634 46.4659 39.7712 45.9762 39.7771L46.1709 54.6601H47.3528ZM174.475 39.7791L173.297 39.9751V54.6601H174.475V39.7791ZM93.1323 40.7575H89.4981C89.0969 40.7575 89.0969 42.1282 89.4981 42.1282H93.1323V40.7575ZM131.25 40.7575H127.124V42.1282H131.25V40.7575ZM127.124 53.6777C122.928 45.8323 113.15 42.3145 104.684 44.7283C99.9602 46.0754 95.9602 49.2618 93.5276 53.4816C95.4312 52.6032 97.4764 52.66 99.3112 53.6914C104.226 46.1284 116.224 46.4127 121.356 53.6522C123.343 52.713 125.16 52.6973 127.126 53.6777H127.124ZM42.637 44.6734L40.4049 44.7008L40.0824 45.1636L40.281 68.5627C40.751 68.6686 40.5996 68.4764 40.7176 68.3058C43.5652 64.2331 44.9732 61.5996 49.8365 59.3878L54.0332 57.9897H42.637V44.6754V44.6734ZM180.568 44.8695H178.013V57.6936L177.718 57.9877H166.617L170.878 59.3211C174.857 61.329 178.257 64.5429 180.176 68.5607C180.249 68.6176 180.568 68.3039 180.568 68.2666V44.8695ZM81.1461 45.2597H74.0724V52.309L75.4529 50.258C76.9338 48.5304 78.8767 47.4225 81.1265 47.0029L81.1461 45.2597ZM146.576 45.2597H139.502L139.586 47.0343C141.757 47.4402 143.608 48.3088 145.103 49.956L146.574 52.111V45.2577L146.576 45.2597ZM90.1844 45.4558H84.094L84.2789 47.1323C86.6505 47.3363 88.7764 48.8089 90.0861 50.7443C90.2336 48.9893 90.6269 47.2108 90.1844 45.4558ZM95.8835 45.4577L93.5256 45.4538L93.5296 47.6088L95.8855 45.4577H95.8835ZM127.124 45.4558L124.57 45.5538L127.12 47.8069L127.124 45.4558ZM136.751 45.4558H130.464V51.1345C132.098 49.2461 134.131 47.4774 136.743 47.2108L136.751 45.4558ZM36.7412 51.3306C37.1581 49.3716 34.8061 46.5441 32.8199 47.7167C31.2329 48.6559 31.7757 49.8187 31.8288 51.3306H36.7412ZM188.623 51.5266C188.798 49.9874 189.559 48.9971 188.019 47.9186C185.726 46.3127 183.58 49.3265 183.907 51.5266H188.623ZM70.5169 50.7246L70.5444 50.0521L69.1619 49.9619L69.3527 50.6501L70.5149 50.7246H70.5169ZM151.291 49.9599H149.915V50.7403H151.291V49.9599ZM144.218 55.6366C144.19 54.0993 143.02 52.562 141.862 51.6208C137.915 48.4187 133.413 51.307 132.033 55.5386L144.218 55.6366ZM88.8079 55.8327C87.1559 48.5696 78.3536 48.552 76.4323 55.6347C80.4677 55.4229 84.8354 55.1013 88.8079 55.8327ZM28.4895 55.2464V52.0149C28.4895 51.2423 26.0667 51.0698 25.7482 52.8071C25.6144 53.5365 25.8209 54.4817 25.7383 55.2444H28.4895V55.2464ZM119.067 76.0003V56.9092C119.067 56.4857 117.769 54.6464 117.402 54.2621C113.64 50.3285 106.493 50.3305 102.959 54.564C102.698 54.8778 101.579 56.6622 101.579 56.9092V76.0003H119.065H119.067ZM192.158 55.2464L194.823 55.0621C195.24 53.7816 194.849 50.7717 192.886 51.3678C192.721 51.4188 192.156 51.9561 192.156 52.0149V55.2464H192.158ZM70.5385 53.8758H69.1619V54.6562H70.5385V53.8758ZM36.7412 54.6582H31.8288V68.5607H36.6429C37.3469 67.694 36.7609 66.3116 36.7334 65.339C36.6311 61.7859 36.8258 58.2113 36.7412 54.6601V54.6582ZM188.623 54.6582L183.907 54.8542V68.3646L188.623 68.5607V54.6582ZM98.2414 76.0003V57.6936C98.2414 57.6112 97.3545 56.5602 97.1362 56.4465C95.5197 55.6053 94.385 57.0681 94.1667 58.5289L94.3123 76.0022H98.2414V76.0003ZM126.338 76.0003V57.6936C126.338 57.6308 125.683 56.8328 125.543 56.7229C124.165 55.6209 122.735 56.7073 122.255 58.1309C122.216 62.6193 122.157 67.1156 122.202 71.604C122.208 72.1217 122.422 72.6021 122.424 73.1609C122.426 74.0041 122.007 75.061 122.21 76.0003H126.336H126.338ZM70.5366 57.9877H61.4982L63.6162 58.5191C66.1924 59.2368 68.4854 60.6114 70.5366 62.2938V57.9858V57.9877ZM158.953 57.9877H150.21L149.915 58.2818V62.2957C150.784 61.9114 151.474 61.1643 152.288 60.6486C153.533 59.8603 154.851 59.2054 156.243 58.7172L158.951 57.9897L158.953 57.9877ZM28.4895 58.574H25.935V68.3646H28.4895V58.574ZM194.713 58.574H192.158V68.3646H194.713V58.574ZM91.1677 61.1173C90.7488 60.5212 89.801 59.829 89.1402 59.5172C86.6899 58.3622 78.3772 58.4073 75.9033 59.5152C75.2248 59.8192 74.5798 60.28 74.0764 60.8271L91.1697 61.1173H91.1677ZM146.772 61.1192C146.168 60.3682 145.171 59.727 144.273 59.4015C141.84 58.5171 135.74 58.5034 133.209 59.0564C131.856 59.3525 130.473 59.9427 129.679 61.1192H146.772ZM70.5366 67.3842C64.6133 58.8681 51.2092 58.8466 45.3843 67.4823C46.7471 67.1254 47.8916 67.6783 49.1876 67.9548C53.2092 61.9565 63.6516 62.0095 67.1993 68.3646C68.1885 67.6117 69.2799 67.2469 70.5366 67.3842ZM175.262 67.3842C169.152 58.8878 156.241 58.827 150.111 67.3842C151.398 67.3391 152.607 67.2862 153.643 68.1686C157.48 61.9408 167.626 62.1114 171.624 68.1627C172.652 67.2999 174.001 67.347 175.26 67.3842H175.262ZM19.6479 68.1686C19.404 64.2076 14.6705 61.8447 11.9862 65.5273C11.528 66.1547 10.9695 67.545 11.4945 68.1686H19.6479ZM209.448 68.1686C209.273 62.1075 201.572 62.3134 201.197 68.1686H209.448ZM77.6103 79.1338V64.5468C77.1914 64.035 76.4343 64.3076 75.8423 64.2527V78.9377L77.6103 79.1338ZM84.4873 64.2527H80.9515V79.1338C82.0291 78.7573 83.2936 79.3416 84.4873 79.1338V64.2527ZM89.5965 79.1338V64.5468C89.1776 64.035 88.4204 64.3076 87.8285 64.2527V79.1338H89.5965ZM133.018 64.2527L131.25 64.4488V79.1338H133.018V64.2527ZM139.895 64.2527C138.729 64.488 137.512 64.5919 136.359 64.2527V79.1338H139.895V64.2527ZM145.004 64.2527H143.236V79.1338H145.004V64.2527ZM65.0361 89.3146V71.5942C65.0361 71.3158 64.2514 69.9863 64.0194 69.6706C61.4668 66.19 55.4314 65.8802 52.6625 69.251C52.4206 69.5471 51.6753 70.7177 51.6753 71.0079V89.3146H65.0361ZM169.171 89.3146V71.204C169.171 70.3177 167.464 68.6549 166.721 68.1646C163.93 66.3253 160.792 66.4038 158.105 68.398C157.543 68.8157 155.812 70.5844 155.812 71.204V89.3146H169.173H169.171ZM70.9299 89.3146V71.5942C70.9299 71.4511 70.0862 70.7432 69.7362 70.8059C69.2622 70.8922 68.3753 71.7687 68.3753 72.1805V89.3126H70.9299V89.3146ZM152.469 89.3146V72.3785C152.469 72.3197 152.062 71.4216 151.974 71.306C151.171 70.2392 149.958 70.8412 149.73 71.9981C149.712 77.5454 149.671 83.1594 149.877 88.6322C149.885 88.8656 149.712 89.0813 149.718 89.3166H152.469V89.3146ZM175.655 89.3146V71.9864C175.655 71.6452 174.666 70.6902 174.182 70.6942C173.582 70.6981 172.511 71.6903 172.511 72.1825V89.3146H175.655ZM48.3341 89.3146V72.7688C48.3341 72.2354 47.4236 71.0491 46.8139 70.9393C46.2043 70.8295 45.1915 71.4785 45.1915 71.9864V89.3146H48.3361H48.3341ZM11.0029 71.4981H8.84165V94.407H11.0029V71.4981ZM14.3441 71.4981V94.407H17.0953L16.9006 71.4981H14.3461H14.3441ZM20.4345 71.4981V94.407L22.7059 94.2227L22.5958 71.4962H20.4326L20.4345 71.4981ZM200.215 71.4981H198.052C198.038 75.1199 198.07 78.7475 198.062 82.3731C198.058 83.7967 198.054 85.2438 198.062 86.6655C198.076 89.246 198.036 91.8304 198.052 94.4089H200.215V71.5001V71.4981ZM206.306 71.4981H203.555V94.407H206.306V71.4981ZM209.645 71.4981V94.1128C209.645 94.6501 211.568 94.0227 212.003 94.2109C211.578 86.6753 211.909 79.0592 211.806 71.4962H209.643L209.645 71.4981ZM41.8523 72.0844L39.6911 71.8923C39.933 72.2805 40.5013 72.4237 40.8749 72.7648C41.2191 73.0766 41.3764 73.559 41.754 73.8472L41.8523 72.0844ZM180.959 71.8903L178.992 71.8864L178.996 73.8453L180.959 71.8903ZM40.2791 78.3474C37.9428 71.657 29.1306 71.6824 26.9065 78.4298L28.0077 78.8926C30.3873 75.3238 36.0765 75.1924 38.4049 78.8926L40.2791 78.3474ZM182.505 78.9181C184.469 75.1316 190.487 75.4336 192.668 78.9043L193.915 78.4514C192.91 75.4316 190.056 73.0354 186.748 73.2531C184.143 73.4237 180.898 75.8846 180.566 78.5455L182.505 78.92V78.9181ZM126.534 79.1338H94.1156V81.0927H126.534V79.1338ZM35.7599 94.405V81.1887C35.7599 80.9299 34.5957 79.8985 34.2555 79.7514C32.9163 79.1749 30.6508 80.3064 30.6508 81.5809V94.405H35.7599ZM190.194 94.405V81.777C190.194 81.4986 189.397 80.3279 189.118 80.1083C188.121 79.322 186.947 79.3494 185.97 80.1142C184.096 81.5809 185.063 85.0026 185.093 87.0557C185.128 89.5048 185.049 91.9598 185.085 94.407H190.194V94.405ZM39.2958 82.5594V94.405H41.2624C41.3351 94.3344 41.1955 93.0893 41.2624 92.7442C41.3607 92.2481 41.7737 92.2461 41.8621 91.3833C42.1611 88.4557 41.638 84.987 41.8228 82.0005C41.4983 81.1731 39.4413 82.0594 39.2958 82.5594ZM181.549 94.405V82.9516C181.549 82.0947 178.994 81.226 178.994 81.9731V91.9579C178.994 92.0069 179.452 92.301 179.543 92.5873C179.694 93.0755 179.561 93.8462 179.803 94.3835L181.551 94.405H181.549ZM27.1149 82.0711L26.4483 81.8888L26.1336 82.1692V94.407H27.1169V82.0711H27.1149ZM194.516 82.0711C194.237 81.9339 193.533 82.3731 193.533 82.5614V94.407H194.516V82.0711ZM89.3998 84.6163L89.5807 82.5849L89.3015 82.2672H75.6457V84.6163H89.3998ZM145.199 82.2672H131.052V84.6163H145.199V82.2672ZM126.534 84.4203H94.1156V92.252C100.688 85.9595 110.57 84.232 119.065 87.4576C121.848 88.5146 124.379 90.2284 126.534 92.252V84.4203ZM81.1461 87.9439H75.6437V94.0128C77.1875 92.4304 78.92 91.2931 81.1461 90.8794V87.942V87.9439ZM89.5965 87.9439H84.094V91.0774C86.2179 91.0735 88.094 92.452 89.5965 93.8187V87.9439ZM136.751 87.9439H131.053V94.0128C132.674 92.6638 134.505 91.0284 136.751 91.0755V87.942V87.9439ZM145.199 87.9439H139.697V90.7833C140.88 91.248 142.064 91.5363 143.173 92.2147C143.913 92.6677 144.519 93.2971 145.199 93.8187V87.9439ZM126.926 98.3209C127.093 98.166 125.925 96.7012 125.742 96.4679C117.425 85.8321 100.513 87.0518 93.5217 98.4189C93.9071 98.4523 94.2493 98.0777 94.6564 97.9836C96.444 97.5659 97.6082 97.9052 99.2896 98.5032C104.422 91.1833 116.208 91.2559 121.352 98.4934C123.205 97.6444 125.022 97.4836 126.926 98.3228V98.3209ZM70.5366 92.8402H44.9949C44.8671 93.4991 44.2083 94.6737 44.2083 95.2874V100.868C51.6851 94.256 63.2151 94.3599 70.7332 100.868V93.5266C70.7332 93.4207 70.4304 93.0912 70.5366 92.8422V92.8402ZM176.048 92.8402H150.113V100.868C156.556 94.9148 166.747 94.2619 174.068 99.0248C174.998 99.6307 175.81 100.213 176.542 101.064C176.863 100.917 176.444 100.609 176.444 100.576V94.1148C176.444 93.9305 175.911 93.2383 176.05 92.8422L176.048 92.8402ZM88.8079 99.8876C87.1913 91.9382 77.9387 92.3049 76.2317 99.9837C80.2868 98.7836 84.7272 98.7464 88.8079 99.8876ZM144.412 99.8876C142.906 91.9539 133.561 92.35 131.836 99.9857C135.901 98.8111 140.304 98.8386 144.412 99.8876ZM101.581 101.748V122.796C104.495 122.783 107.415 122.81 110.332 122.804C111.105 122.804 111.982 122.595 112.888 122.593C114.601 122.589 116.607 123.016 118.389 122.806C118.674 122.773 118.894 122.783 119.067 122.502V101.552C119.067 101.333 117.697 99.4445 117.425 99.1739C114.222 95.9855 108.737 95.4109 104.938 97.8483C103.899 98.513 101.783 100.531 101.581 101.747V101.748ZM41.0637 97.7346H8.84165V103.609L11.113 102.837C11.6086 101.741 10.7649 98.817 12.2851 98.5248C15.2743 97.9503 14.1199 100.98 14.3696 102.8C18.409 103.464 21.1464 106.47 21.996 110.374L24.0392 110.47C24.9576 106.615 27.6164 103.574 31.6144 102.805C31.813 101.333 30.8927 98.2228 33.2781 98.3836C35.284 98.5209 34.7039 101.47 34.7865 102.815C37.0087 103.041 39.0814 104.345 40.4777 106.053C40.7333 106.364 40.7412 106.855 41.0657 106.935V97.7326L41.0637 97.7346ZM211.806 97.7346L179.779 97.5385V107.329L181.244 105.362C182.68 104.074 184.347 103.225 186.237 102.8C186.377 101.688 185.808 98.8131 187.35 98.5229C190.227 97.9777 189.24 101.06 189.427 102.807C192.485 103.207 194.912 105.431 196.123 108.176C196.343 108.676 196.683 110.331 196.996 110.437L199.016 110.443C199.529 106.39 202.546 103.588 206.475 102.8C206.672 101.221 205.738 98.1248 208.322 98.366C210.345 98.5542 209.437 101.443 209.669 102.8L211.804 103.413V97.7346H211.806ZM70.1432 105.368C63.7244 97.2502 51.2053 97.2777 44.7982 105.368C46.4777 104.984 48.0647 104.866 49.6006 105.774C53.3311 100.59 61.8601 100.856 65.7539 105.731C67.1521 105.053 68.6526 105 70.1452 105.368H70.1432ZM176.046 105.368C169.639 97.2189 157.118 97.2149 150.701 105.368C152.229 105.041 153.683 105.021 155.097 105.735C158.981 100.674 167.327 100.815 171.254 105.747C172.863 104.97 174.343 104.843 176.048 105.368H176.046ZM126.338 122.796V102.531C126.338 102.35 125.478 101.403 125.258 101.258C123.862 100.339 122.8 101.517 122.253 102.768L122.408 122.796H126.338ZM98.2414 122.796V102.531C98.2414 101.933 96.912 101.001 96.1805 101.05C95.4489 101.099 94.3123 102.127 94.3123 102.727V122.796H98.2414ZM89.5945 106.349C89.7872 103.884 89.6495 103.803 87.4765 103.078C84.0979 101.948 79.7165 101.927 76.4972 103.574C75.0872 104.296 75.7814 104.923 75.6496 106.349C79.9583 105.168 85.2799 105.166 89.5965 106.349H89.5945ZM145.199 106.349C145.105 105.762 145.427 104.245 145.006 103.9C144.735 103.678 142.483 102.878 142.019 102.766C138.656 101.948 134.228 102.315 131.244 104.131L131.254 106.349C135.549 105.104 140.882 105.227 145.201 106.349H145.199ZM63.4628 122.993V108.994C63.4628 108.2 62.0587 106.966 61.4039 106.541C59.221 105.127 56.6861 104.972 54.3616 106.188C53.7598 106.504 51.87 108.184 51.87 108.796V122.991H54.4245C54.5229 122.918 54.2279 122.74 54.2279 122.696V117.312H60.9083V122.991H63.4628V122.993ZM168.975 122.993V108.798C168.975 108.119 167.482 106.749 166.876 106.386C163.582 104.413 159.128 105.317 157.474 108.89L157.578 122.995H159.936V117.316H166.42V122.995H168.975V122.993ZM18.2733 110.265C16.5073 104.635 9.22316 104.633 7.46703 110.265H18.2733ZM38.9025 110.265C36.6508 104.66 29.8642 104.531 27.7029 110.265H38.9025ZM193.142 110.265C191.421 104.531 184.212 104.755 182.335 110.265H193.142ZM213.576 110.265C211.824 104.576 204.4 104.649 202.573 110.265H213.576ZM175.852 122.993V109.972C175.852 109.372 174.634 108.304 174.017 108.353C173.364 108.39 172.314 109.631 172.314 110.167V122.991H175.85L175.852 122.993ZM48.5308 122.993V110.168C48.5308 109.829 47.5199 108.584 47.048 108.502C46.4285 108.396 45.1915 109.235 45.1915 109.58V122.993H48.5308ZM70.1432 123.189V109.972C70.1432 109.447 69.1383 108.476 68.4697 108.49C67.8719 108.502 66.8021 109.523 66.8021 109.972V122.993H69.6516C69.7126 122.993 69.9309 123.261 70.1432 123.189ZM154.041 122.993V109.776C154.041 109.308 152.983 108.466 152.377 108.488C151.702 108.513 150.701 109.412 150.701 109.972V122.993H154.041ZM91.3644 111.245C90.0448 109.612 87.8088 109.017 85.7735 108.886C82.2514 108.659 77.097 108.413 74.3242 110.796C74.1845 110.918 73.9544 110.786 74.0744 111.245H91.3644ZM146.969 111.245C146.401 110.445 145.278 109.766 144.349 109.449C142.043 108.661 135.783 108.635 133.404 109.182C132.133 109.474 130.615 110.149 129.876 111.245H146.969ZM21.1956 113.62L5.79152 113.59C5.05602 113.614 4.49752 114.19 4.12584 114.767L21.4158 114.571L21.1936 113.618L21.1956 113.62ZM40.5741 113.594H25.5436L25.1523 114.571L26.814 114.563C31.5633 114.543 36.3184 114.598 41.0657 114.571L40.576 113.592L40.5741 113.594ZM196.09 114.573C196.082 114.065 195.773 113.541 195.216 113.582C190.768 114.049 185.156 113.002 180.853 113.584C180.166 113.676 180.044 113.975 179.781 114.573H196.09ZM215.639 113.594H199.822L199.629 114.567C199.83 114.859 205.478 114.553 206.412 114.567C206.876 114.573 207.307 114.773 207.771 114.778C210.817 114.814 213.871 114.737 216.915 114.769C216.797 114.48 215.824 113.643 215.639 113.596V113.594ZM77.6103 114.573H75.8423V128.669H77.6103V114.573ZM84.4873 114.573H80.9515V128.669H84.4873V114.573ZM89.5965 114.573H87.8285V128.669H89.5965V114.573ZM133.018 114.573H131.25V128.669H133.018V114.573ZM140.092 114.573H136.359V128.669H140.092V114.573ZM145.004 114.573H143.236V128.669L145.004 128.865V114.573ZM8.64499 118.096H7.07371V128.669H8.64499V118.096ZM15.5221 118.096H11.9862V128.669H15.5221V118.096ZM20.4345 118.096H18.6666V128.669H20.4345V118.096ZM26.3283 118.096V128.669H27.9015C27.8819 125.138 27.8583 121.606 28.0982 118.094H26.3283V118.096ZM34.9733 118.096H31.2408V128.669H34.9733V118.096ZM39.8858 118.096H38.1178V128.669H39.8858V118.096ZM182.729 118.096H181.157V128.669H182.729V118.096ZM189.801 118.096H186.068V128.669H189.604C189.496 128.42 189.801 128.089 189.801 127.985V118.096ZM194.516 118.096H192.945V128.669H194.516V118.096ZM202.18 118.096H200.609V128.179C200.609 128.24 200.337 128.456 200.412 128.667H202.18V118.096ZM209.057 118.096H205.521V128.669H209.057V118.096ZM213.968 118.096H212.396V128.669H213.968V118.096ZM126.338 125.93H94.3103V128.671H126.338V125.93ZM48.5308 126.32H45.1915V128.669H48.0411C48.102 128.669 48.3184 128.94 48.5308 128.863V126.318V126.32ZM63.4628 126.32H51.87V128.867C55.7421 129.122 59.6261 128.348 63.4609 128.867V126.322L63.4628 126.32ZM70.1432 126.32H66.804V128.865C67.3448 128.646 69.9584 129.054 70.1452 128.865V126.318L70.1432 126.32ZM154.041 126.32H150.701V128.865C151.763 128.363 152.894 129.075 154.043 128.865V126.318L154.041 126.32ZM168.975 126.32H157.382V128.865C157.455 128.961 157.633 128.669 157.677 128.669H168.975V126.32ZM175.852 126.32H172.316V128.671C173.517 128.534 174.662 128.948 175.854 128.867V126.32H175.852Z" fill="#FF2727"/>
</svg>
