<svg width="218" height="121" viewBox="0 0 218 121" fill="none" xmlns="http://www.w3.org/2000/svg">
<path d="M0.496826 121.002L0 120.284L0.0372215 82.9318C0.330139 82.0603 2.98743 82.7827 3.53443 82.4652C3.60563 82.4231 4.27724 81.4593 4.61871 81.2066C4.96017 80.9539 5.96192 80.5878 6.0752 80.3999C6.52024 79.6694 5.50393 77.6543 7.68867 77.6332C9.92358 77.6122 8.86196 79.522 9.30538 80.2379C9.53518 80.6121 11.8041 81.4302 11.9772 82.4183L15.5343 82.6612V85.7341H17.7984C17.8388 83.5424 20.836 83.5327 20.9638 85.7438H24.4918C24.898 83.6008 27.4258 83.6267 27.7559 85.7438H31.122C31.4635 83.8373 34.2762 83.6299 34.3004 85.7276L37.1115 85.7438C37.3219 83.6737 40.0682 83.7514 40.3756 85.7438L43.0103 85.7179C43.1818 83.5667 45.8844 83.8454 46.3683 85.7406L48.4317 85.7438C48.6453 83.6299 51.5308 83.591 51.6036 85.7276H54.0165C53.9243 83.698 57.1011 83.7725 57.0962 85.7341H60.3312V75.3006C60.3312 75.2472 60.65 74.3287 60.6905 74.285C60.9656 73.9966 61.6324 74.1862 61.9463 74.0064C61.6065 73.3147 60.7196 73.535 60.2633 72.7801C59.0447 70.7699 63.1941 69.8142 64.5276 69.5501L64.5357 67.2921C63.9029 67.2597 62.9481 67.5107 62.796 66.696C62.6843 66.1015 62.6681 63.0934 62.8769 62.6415C63.2863 61.7505 65.8756 61.8461 65.6701 63.2489C66.2155 63.0011 65.5876 61.9498 65.5228 61.3715C65.259 58.979 65.9064 56.9201 67.6849 55.3181C68.5119 54.5729 69.7175 54.0805 70.4361 53.3791C70.6804 53.141 72.6807 49.9385 72.7438 49.702C73.0157 48.6783 72.247 46.6616 73.8685 46.2971C76.4093 45.7253 75.5824 48.6799 75.9287 49.83C76.8009 52.7263 78.764 53.5249 80.7092 55.2403C83.0833 57.3332 83.5073 60.317 82.4861 63.2489C83.0283 63.3963 82.8147 62.6771 83.0089 62.4795C83.4037 62.0794 85.1677 62.2154 85.5399 62.8634C85.7956 63.3072 85.815 66.1241 85.684 66.6927C85.5076 67.4638 84.7615 67.5043 84.0996 67.4557V67.94L85.8781 67.778L85.8717 58.0006C85.7843 57.7916 85.2729 56.6836 85.2082 56.6431C84.844 56.4131 83.5332 56.9963 83.2031 55.979V49.6502C83.5575 48.5584 86.5643 48.7593 86.2051 50.3062L91.217 49.6583C90.7946 48.9018 91.3465 48.1599 91.1814 47.3516C91.06 46.7588 90.3188 45.6427 90.0793 44.8927C88.0953 38.6643 91.6896 33.0013 96.8893 29.8556C97.5123 29.4781 99.1646 28.8626 99.5368 28.4592C100.048 27.9053 100.692 26.0538 101.302 25.2114C101.6 24.8016 102.515 23.9982 102.615 23.7746C102.888 23.1639 102.696 22.1693 103.23 21.1537C103.916 19.8497 104.872 20.1138 104.968 18.3627C105.096 16.0301 104.042 15.9426 103.388 14.2709C102.591 12.2283 104.224 12.7693 104.762 12.2526C104.913 12.1084 104.879 11.7764 105.225 11.5026C105.743 11.0944 107.222 10.9729 107.467 10.5096C107.616 9.83415 107.771 9.16352 107.852 8.47995C108.125 6.18947 108.067 3.6463 108.373 1.3866C108.441 0.879582 108.684 0.325591 109.087 0C109.473 0.278615 109.579 0.780771 109.634 1.22785C109.935 3.61714 109.823 6.26722 110.138 8.65003C110.221 9.27853 110.459 9.88598 110.533 10.5193C111.19 10.7688 111.836 10.7785 112.454 11.1851C112.935 11.501 113.063 11.9335 113.382 12.1991C113.998 12.711 114.838 12.5215 114.6 13.7526C114.209 15.7677 112.76 15.7077 113.05 18.5166C113.213 20.0992 114.416 20.2547 114.904 21.6769C115.144 22.3767 115.047 23.1931 115.233 23.6126C115.325 23.8167 116.296 24.7725 116.575 25.1823C117.058 25.8966 117.915 28.0737 118.266 28.4252C118.538 28.6974 120.256 29.368 120.797 29.6952C125.967 32.8248 129.554 38.5753 127.809 44.7712C127.578 45.5941 126.762 46.8964 126.658 47.5169C126.571 48.0449 126.972 49.0185 126.796 49.6583L131.555 50.3143C131.465 48.6848 134.297 48.5681 134.648 49.6502V55.979C134.337 56.9379 133.237 56.4163 132.776 56.6933C132.761 56.9687 131.97 57.7592 131.97 57.8289V62.9249C132.255 62.8699 132.128 62.5929 132.517 62.4195C133.078 62.1684 134.279 62.2041 134.766 62.5912C135.093 62.852 134.858 63.3655 135.367 63.2457C134.519 60.7997 134.63 57.6831 136.516 55.7425C137.508 54.722 139.419 54.0595 140.191 52.9482C140.367 52.6939 141.872 49.9985 141.922 49.8284C142.249 48.7285 141.396 46.3927 143.381 46.2679C145.565 46.1286 144.821 48.6232 145.107 49.702C145.235 50.1848 147.061 53.047 147.491 53.465C148.438 54.3834 149.796 54.8289 150.733 55.885C151.598 56.8602 152.307 58.6242 152.354 59.9282C152.38 60.6231 151.82 62.852 151.938 63.0885C151.972 63.1549 152.131 63.2878 152.183 63.2473C152.246 61.7732 154.824 61.7538 155.185 62.9168C155.345 63.4303 155.334 66.2813 155.186 66.8223C155.01 67.4751 153.995 67.2661 153.477 67.2921L153.317 69.5566C154.696 69.6506 159.29 71.055 157.526 73.0409C157.104 73.5155 156.301 73.4783 155.905 74.0064L157.369 74.5085L157.52 85.7341H160.755C160.857 83.5927 163.72 83.6542 163.92 85.7438L166.235 85.7163C166.315 83.685 169.397 83.7384 169.332 85.7276L171.821 85.7438C171.952 83.5797 174.77 83.6186 175.004 85.7163L177.48 85.7438C177.696 83.6575 180.499 83.5927 180.662 85.7179L183.303 85.7438C183.588 83.5894 186.274 83.5263 186.561 85.7438H189.765C190.155 83.6364 192.725 83.6315 193.029 85.7438H196.719C197.026 83.7174 199.778 83.5959 199.891 85.7341H202.155L202.335 82.6775C203.085 82.2352 205.523 82.7455 206.003 82.4652C206.053 82.4361 206.322 81.8384 206.539 81.6262C207.039 81.137 207.79 80.7855 208.436 80.5328C208.405 79.0862 208.662 77.2088 210.569 77.7223C212.3 78.1872 211.363 79.7228 211.774 80.3983C211.849 80.5214 213.058 81.1013 213.389 81.3702C213.695 81.6197 214.254 82.428 214.317 82.4636C214.969 82.8427 217.411 81.9485 218.003 82.9836V121H0.496826V121.002ZM106.094 22.4852H111.754C111.171 21.5489 110.168 21.7142 109.99 20.4474C109.865 19.5679 109.85 16.6424 109.985 15.7806C110.069 15.2461 110.516 14.6921 110.783 14.2353C109.973 14.0782 109.546 13.7477 109.069 13.1063C108.324 13.4497 108.043 14.3843 107.064 14.2337C107.365 14.7925 107.923 15.4615 108.023 16.103C108.14 16.8465 108.138 19.5419 108.023 20.2887C107.847 21.4258 106.79 21.7757 106.093 22.4836L106.094 22.4852ZM113.857 26.8507C113.529 26.4182 113.064 25.8302 112.537 25.665C112.045 25.5111 110.049 25.3977 109.417 25.388C108.292 25.3718 105.767 25.4317 104.879 26.0408C104.638 26.206 104.321 26.5948 104.152 26.8491C107.35 26.2255 110.652 26.3113 113.854 26.8491L113.857 26.8507ZM125.176 42.3819C125.333 32.3096 113.516 28.3637 105.117 29.8377C99.3944 30.8421 91.7155 35.6644 92.7528 42.3819C96.0056 41.2642 99.443 40.6373 102.862 40.281C103.003 40.1465 102.629 37.6163 103.039 36.9797C103.325 36.5359 104.22 36.4954 104.295 36.3755C104.382 36.2346 104.277 35.8037 104.353 35.5461C104.704 34.3523 105.322 34.6941 105.845 34.1239C106.51 33.3998 107.289 31.686 108.04 30.8194C108.692 30.0661 108.93 29.9009 109.651 30.6574C110.373 31.4139 111.699 33.902 112.121 34.2519C112.318 34.4155 113.042 34.4284 113.223 34.7265C113.456 35.1088 113.281 35.8879 113.574 36.1973C113.785 36.4192 114.671 36.5666 114.84 36.8307C115.212 37.4138 114.846 40.1481 114.989 40.2826C118.445 40.6098 121.862 41.4019 125.176 42.3835V42.3819ZM109.164 34.9419C108.23 35.1606 108.182 36.4727 107.874 37.0931C107.685 37.4754 106.577 38.3517 106.128 38.5315L106.094 40.6033C107.991 40.4219 109.86 40.4235 111.755 40.6033L111.899 38.606C110.506 37.6374 109.797 36.4792 109.164 34.9419ZM105.125 44.1621H112.886C112.768 43.9969 112.77 43.6503 112.684 43.5563C112.292 43.1303 106.206 43.3328 105.219 43.6632L105.123 44.1621H105.125ZM116.16 44.282L123.719 46.0314L124.203 45.3738C121.637 44.2269 118.745 43.7507 115.96 43.3522L116.16 44.2804V44.282ZM101.891 43.5142C100.959 43.4154 93.6752 44.9413 93.6494 45.3738L93.9827 46.0914C96.5672 45.4694 99.1937 44.5525 101.893 44.4861V43.5142H101.891ZM116.12 47.3986C112.95 47.0196 109.71 47.073 106.492 47.0665L101.728 47.3986L102.15 48.3786H115.699L116.12 47.4002V47.3986ZM99.1403 47.8829L95.2612 49.0136L98.8717 48.6977L99.1403 47.8829ZM122.75 48.8549L118.871 47.8829V48.6912C119.981 48.6459 121.091 48.9261 122.189 49.012C122.367 49.0266 122.792 49.1302 122.75 48.8532V48.8549ZM79.8968 60.014C79.5926 56.7614 75.4836 56.3289 74.3184 53.3856C73.7326 54.0676 73.3717 54.8532 72.7066 55.4898C71.2242 56.9055 68.7061 57.4757 68.5766 59.9314C72.2874 59.0097 76.2151 58.8639 79.8968 60.014ZM143.772 53.3824L143.44 53.4812C142.622 56.5427 138.013 56.6982 137.954 60.014C141.631 58.9725 145.598 58.9142 149.271 60.014C149.033 56.6869 144.628 56.4909 143.772 53.3824ZM103.023 65.839H114.828C114.867 65.5766 114.56 65.7354 114.45 65.4843C114.268 65.068 114.249 60.1274 114.353 59.4584C114.576 58.0232 117.075 57.777 117.381 59.1604C117.581 60.0659 117.512 63.7349 117.413 64.7861C117.39 65.0194 117.342 65.3531 117.248 65.5604C117.167 65.7419 116.867 65.588 116.931 65.8374L118.062 65.9994C118.141 65.9395 117.9 65.7937 117.9 65.758V59.2867C117.9 58.3521 120.747 57.7867 120.976 59.7678C121.064 60.5211 121.061 65.5248 120.866 65.967C120.756 66.2181 120.449 66.061 120.488 66.3201L122.104 66.4821C122.185 66.4238 121.943 66.2764 121.943 66.2408V59.7694C121.943 58.7214 124.234 58.3812 124.731 59.567C124.87 59.899 124.993 61.2484 125.021 61.7036C125.069 62.5183 125.127 65.8536 124.826 66.3768C124.671 66.6457 124.355 66.5469 124.368 66.8045L125.901 66.9697C125.98 64.9546 125.529 62.2089 125.833 60.2651C125.964 59.4293 126.336 59.6188 126.89 59.3807C127.089 59.2948 127.178 59.4503 127.116 59.0421C124.035 58.9579 120.862 57.9358 117.826 57.7398C112.773 57.4158 105.408 57.432 100.346 57.7398C97.0527 57.939 93.5781 59.0227 90.2476 59.2057L91.7478 59.682C91.9097 59.8132 92.1136 60.2554 92.1492 60.4546C92.4825 62.3256 92.0407 65.0243 92.1039 66.9665L93.4811 66.8061C93.4924 66.5485 93.1768 66.6474 93.0231 66.3785C92.7107 65.8358 92.79 62.5459 92.837 61.7133C92.8709 61.135 92.9794 59.426 93.3257 59.128C93.8549 58.6728 95.4392 58.7975 95.7953 59.4082C96.2322 60.1582 96.1124 64.4767 96.0785 65.6025C96.0688 65.9136 95.9522 66.1841 95.9085 66.4821L97.3618 66.3201C97.4023 66.061 97.0932 66.2181 96.9831 65.967C96.7905 65.5248 96.7857 60.5162 96.8731 59.7662C97.0786 58.0135 99.477 58.0783 99.8767 59.3564C100.142 60.2036 99.9932 63.9778 99.9576 65.1166C99.922 66.2553 99.3345 66.0431 100.919 65.8342C100.959 65.575 100.65 65.7321 100.54 65.4811C100.469 65.3175 100.451 65.1263 100.433 64.9481C100.344 64.0394 100.293 59.7128 100.506 59.0324C100.882 57.8305 103.35 57.8208 103.513 59.5994C103.586 60.3931 103.604 65.0097 103.4 65.4794C103.29 65.7305 102.982 65.5718 103.021 65.8342L103.023 65.839ZM88.953 59.5297V67.2953H89.7605C89.4644 66.9081 89.2232 66.9989 89.1245 66.3947C88.9449 65.2802 88.9983 61.9352 89.1067 60.7365C89.1682 60.0529 89.2815 59.7565 89.924 59.4503L88.9514 59.5313L88.953 59.5297ZM81.3533 66.1646C76.7702 65.0648 71.878 65.0178 67.2803 66.0836C67.6267 67.088 67.6574 68.0161 67.6056 69.0755C72.0787 68.7029 76.5582 69.1565 81.0296 69.2375C81.0151 68.2008 80.9617 67.1463 81.3533 66.1646ZM136.658 66.163V69.2359C141.175 68.9265 145.721 68.7321 150.242 69.0755L150.568 66.0836C146.012 65.0372 141.201 65.0793 136.658 66.1614V66.163ZM132.182 67.2321C132.102 67.1868 132.217 66.9017 131.971 66.9713L131.968 67.7796L133.585 67.94V67.4557C133.044 67.4767 132.662 67.5091 132.182 67.2305V67.2321ZM108.682 68.9135H100.843L86.3685 70.7715C86.7359 70.8979 86.8152 71.7564 86.8702 71.805C86.9883 71.9086 88.6147 71.7677 89.0258 71.8325C90.3755 72.0447 89.8204 73.7504 89.924 74.7353L101.569 74.5733C101.401 72.8838 102.477 72.4529 103.89 72.1225L108.684 68.9119L108.682 68.9135ZM131.808 70.6938C124.381 69.8854 117.007 68.5329 109.493 68.9135L113.647 71.792C115.201 72.6343 116.505 72.3509 116.634 74.5474C120.363 74.9572 124.171 74.6316 127.927 74.7353C127.676 71.8795 128.118 71.6462 130.892 71.7969L131.808 70.6905V70.6938ZM68.5766 74.089H82.4845L82.6464 72.4724C77.9759 72.0787 73.2568 71.7693 68.5766 72.1468V74.089ZM135.365 74.089H149.273V72.15C144.602 71.8115 139.854 71.9167 135.203 72.474L135.365 74.0906V74.089ZM86.8508 81.9356V74.8989H85.5561C85.5367 75.9486 85.582 77.008 85.5642 78.0609C85.5464 79.083 85.5949 80.1213 85.5674 81.1289C85.5043 83.5165 83.8617 82.3 82.2563 82.8103L82.1609 83.4744H135.849V82.6661H133.018C132.85 82.6661 132.452 82.2676 132.452 82.0992V74.9005H130.997V81.9372C130.997 82.4102 130.301 82.4798 129.953 82.5106C126.623 82.7957 120.336 82.7925 117.002 82.5106C116.23 82.4458 116.044 82.4264 115.958 81.6164C115.819 80.3189 116.06 78.8109 115.958 77.4874C114.1 77.6446 113.819 76.7131 113.673 75.0819C111.799 74.8454 110.574 72.9826 108.922 72.1905C107.915 73.0166 106.865 73.7942 105.756 74.4826C105.419 74.6916 104.728 74.8843 104.557 75.0625C104.094 75.5436 104.465 77.0646 103.39 77.293C102.964 77.3838 102.482 77.1975 102.12 77.4777C101.892 77.8017 102.128 80.8778 102.048 81.6164C101.963 82.4264 101.777 82.4442 101.005 82.5106C97.6321 82.7957 91.2639 82.7989 87.8913 82.5106C87.4673 82.475 86.9398 82.4491 86.8475 81.9372L86.8508 81.9356ZM65.5034 74.0873V72.3088L64.6943 72.4707C64.8674 72.8984 64.971 73.4912 65.1409 73.8832C65.2396 74.11 65.1668 74.1343 65.5034 74.0857V74.0873ZM153.314 72.4724H152.343V74.0906H152.827C152.72 73.454 153.238 73.0523 153.312 72.4724H153.314ZM82.3227 77.1618H63.4028V118.089L73.752 117.927V112.831C73.752 112.428 74.3152 112.3 74.6389 112.264C77.1181 111.995 79.9826 112.449 82.4861 112.426L82.6464 86.5424H79.6541C79.1556 86.5424 78.9566 85.7406 78.9193 85.3372C78.853 84.6197 78.8498 80.3886 79.0763 80.0209C79.1281 79.9367 79.4291 79.7487 79.4922 79.7487H82.3227V77.1602V77.1618ZM154.447 77.1618H135.527V79.5884C136.38 80.0128 138.543 79.2936 138.851 80.2266C139.018 80.7369 139.019 84.9874 138.914 85.6434C138.862 85.9625 138.513 86.544 138.197 86.544H135.367V112.266H143.533C143.594 112.266 144.099 112.633 144.099 112.671V117.929H154.448V77.1635L154.447 77.1618ZM127.926 77.8098H119.598C119.515 77.8098 119.258 77.5522 119.033 77.6494V79.428H127.926V77.8098ZM98.9801 77.8098H90.0858V79.428H98.9801V77.8098ZM12.6246 85.4134C11.9627 85.3356 11.003 85.577 10.3978 85.2951C9.87503 85.0505 8.66291 83.1197 7.82947 82.8378C7.71618 82.8184 6.18201 84.0025 5.98781 84.1936C5.70946 84.4674 5.41169 85.1542 5.23529 85.2611C4.68506 85.5916 3.57165 85.334 2.92108 85.4134V117.929H12.6246V85.4134ZM205.225 85.4134V117.929H214.928V85.4134L212.703 85.3065C212.046 84.2957 211.208 83.5927 210.161 82.9852C209.132 83.0921 208.136 85.0505 207.614 85.2951C206.982 85.5899 205.922 85.3259 205.225 85.4134ZM132.292 86.5457H85.7179V87.192H132.292V86.5457ZM202.152 88.8102H157.761C157.727 88.8102 157.578 88.5689 157.52 88.6482V90.4268C158.407 90.2746 161.967 90.0332 162.582 90.4155C162.666 90.4673 162.854 90.7686 162.854 90.8318V94.3096H163.339V90.8318C163.339 90.7184 163.556 90.4317 163.7 90.3718C164.179 90.1709 168.675 90.1806 169.05 90.4155C169.135 90.4673 169.322 90.7686 169.322 90.8318V94.4716H169.646V90.8318C169.646 90.7686 169.834 90.4673 169.918 90.4155C170.308 90.1741 173.87 90.2098 174.585 90.2584C174.951 90.2843 175.792 90.2924 175.792 90.8318V94.3096H176.116V90.8318C176.116 90.7686 176.304 90.4673 176.388 90.4155C176.742 90.1952 180.416 90.1871 181.05 90.2632C181.536 90.3215 182.099 90.6196 182.099 91.1558V94.4716H182.423V90.8318C182.423 90.7686 182.61 90.4673 182.695 90.4155C183.085 90.1741 186.647 90.2098 187.362 90.2584C187.728 90.2843 188.569 90.2924 188.569 90.8318V94.3096H188.891C188.716 93.8739 189.053 93.1887 189.053 92.9344V90.4268C190.063 90.3232 193.919 89.9911 194.602 90.4155C194.686 90.4673 194.874 90.7686 194.874 90.8318V94.4716H195.36V90.8318C195.36 90.7686 195.547 90.4673 195.631 90.4155C196.043 90.1612 200.702 90.166 201.088 90.4398C201.257 90.558 201.309 90.6228 201.344 90.8318C201.522 91.8653 201.457 93.2486 201.506 94.3113H202.152V88.8102ZM60.4915 88.8102H15.6978V94.4716H16.3451V90.6698C16.5927 90.3831 16.8678 90.3054 17.2319 90.2616C17.8744 90.1871 21.7018 90.1936 22.0578 90.4155C22.142 90.4673 22.3297 90.7686 22.3297 90.8318V94.4716C22.6533 94.5121 22.5951 94.504 22.6954 94.2708C23.0466 93.4463 22.5061 90.78 23.0838 90.4139C23.4722 90.1677 28.133 90.1709 28.5263 90.4139C28.6104 90.4657 28.7981 90.767 28.7981 90.8302V94.47H29.2836V90.8302C29.2836 90.7168 29.5005 90.4301 29.6445 90.3701C30.1235 90.1693 34.6193 90.179 34.9947 90.4139C35.0789 90.4657 35.2666 90.767 35.2666 90.8302V94.308H35.5903V90.8302C35.5903 90.767 35.778 90.4657 35.8621 90.4139C36.2521 90.1725 39.8141 90.2082 40.5294 90.2568C40.8951 90.2827 41.7367 90.2908 41.7367 90.8302V94.47H42.0603V90.8302C42.0603 90.767 42.248 90.4657 42.3322 90.4139C42.7433 90.1596 47.4024 90.1644 47.7892 90.4382C48.3119 90.8059 47.9284 91.8928 48.0449 92.4468L48.3669 94.47V91.1542C48.3669 90.618 48.9301 90.3199 49.4156 90.2616C50.0597 90.1855 53.8854 90.1936 54.2399 90.4139C54.324 90.4657 54.5117 90.767 54.5117 90.8302V94.47H54.8354V90.8302C54.8354 90.767 55.0231 90.4657 55.1073 90.4139C55.74 90.0203 59.5641 90.281 60.4931 90.4252V88.807L60.4915 88.8102ZM87.6599 90.1045H85.5577C85.6775 90.3491 85.7212 90.5483 85.7293 90.8237C85.8652 96.2632 85.7697 101.774 85.7276 107.165C85.7147 108.93 85.5869 110.67 85.5577 112.431H87.6615V90.1061L87.6599 90.1045ZM92.3498 90.1029H90.5713L90.7315 112.429H92.3498V90.1029ZM98.8183 90.1045H95.2612V112.429L98.8183 112.267V90.1045ZM101.728 90.1045V112.429L103.363 112.335C103.613 111.982 103.528 108.393 103.513 107.649C103.503 107.187 103.343 106.791 103.337 106.369C103.264 100.951 103.405 95.5213 103.345 90.1045H101.726H101.728ZM111.593 90.1045H106.418V112.429H111.432L111.593 90.1045ZM116.121 90.1045H114.505V112.429H116.121V90.1045ZM122.59 90.1045H119.033L119.195 112.429H122.59V90.1045ZM127.28 90.1045H125.663V112.429H127.28V90.1045ZM132.292 90.2665L130.19 90.1045V112.429L132.292 112.267V90.2665ZM60.4915 97.3841H15.5359L15.6962 112.429H17.1526V108.95C17.1526 108.159 18.6804 106.807 19.5122 106.776C20.2517 106.749 22.0044 107.894 22.0044 108.628V112.429H23.4609C23.8088 111.085 23.2489 108.992 24.0192 107.894C25.0647 106.405 27.0746 106.407 27.9938 107.975C28.0764 108.116 28.4728 109.052 28.4728 109.114V112.429H29.9277V108.628C29.9277 108.095 31.3098 106.993 31.8632 106.844C32.9265 106.557 34.7779 107.722 34.7779 108.79V112.429H36.2327V108.952C36.2327 108.728 36.9043 107.604 37.1196 107.413C38.2168 106.434 39.628 106.585 40.5067 107.75C40.5957 107.868 41.0829 108.731 41.0829 108.791V112.431H42.6996V108.629C42.6996 107.899 44.4376 106.695 45.1902 106.77C47.786 107.025 47.8167 110.505 47.3895 112.429H49.0062V109.114C49.0062 108.091 50.487 106.71 51.5097 106.755C52.2347 106.787 53.1216 107.409 53.5084 108.007C53.6006 108.15 54.0198 109.042 54.0198 109.114V112.429H55.4746V109.275C55.4746 108.284 56.8276 106.839 57.8293 106.773C58.5964 106.723 60.3264 107.887 60.3264 108.628V111.943H60.4882V104.826C60.1824 104.776 60.4105 105.137 60.3005 105.279C60.0933 105.548 56.1511 105.581 55.7449 105.323C55.3646 105.083 55.4099 102.078 55.4665 101.5C55.7141 99.0024 58.4038 97.8166 60.0043 100.052C60.218 100.352 60.184 100.838 60.4866 100.943C60.2374 99.7264 60.3199 98.599 60.4882 97.3841H60.4915ZM202.152 97.3841H157.518V100.619C157.792 100.637 157.667 100.267 157.834 100.046C159.439 97.9268 162.137 98.8874 162.378 101.338C162.436 101.925 162.451 104.991 162.169 105.271C160.731 105.652 158.989 105.511 157.518 105.31V108.545L158.499 107.343C159.491 106.567 160.632 106.638 161.545 107.51C161.758 107.714 162.37 108.723 162.37 108.95V112.428H163.825V109.274C163.825 108.271 165.16 106.836 166.189 106.771C166.96 106.723 168.675 107.881 168.675 108.626V112.428H170.13V109.274C170.13 108.108 171.455 106.75 172.637 106.75C173.698 106.75 175.143 108.054 175.143 109.112V112.428H176.598V108.626C176.598 107.918 178.166 106.75 178.943 106.75C179.752 106.75 181.288 107.798 181.288 108.626V112.428H182.905V108.626C182.905 108.579 183.3 107.937 183.39 107.818C184.281 106.63 185.721 106.428 186.87 107.411C187.069 107.581 187.757 108.649 187.757 108.788V112.428H189.373V108.788C189.373 108.728 189.861 107.865 189.95 107.746C190.951 106.423 192.799 106.446 193.714 107.844C193.806 107.984 194.225 108.879 194.225 108.95V112.428H195.68V108.95C195.68 108.014 197.243 106.75 198.187 106.75C199.13 106.75 200.694 108.014 200.694 108.95V112.428H202.312L202.15 97.3825L202.152 97.3841ZM60.3296 115.34H15.6978V118.091H60.3312V115.34H60.3296ZM141.024 115.34H76.8236V118.091L141.024 117.929V115.34ZM202.314 115.34H157.52V117.929H202.153L202.315 115.34H202.314Z" fill="#FF2727"/>
<path d="M71.812 86.3841L70.3668 85.6454C67.6351 83.5348 69.0673 79.0963 72.5402 79.0947C76.0342 79.0947 77.7059 83.2999 74.9612 85.5693L73.5905 86.3825H76.5828C77.1541 86.3825 77.6331 87.5747 77.9875 88.0509C78.439 88.6584 80.2677 90.6961 80.3551 91.1902C80.5509 92.2982 78.5151 92.1783 77.7949 92.2058L77.7852 96.3138C77.8208 96.4482 78.931 96.5989 79.2013 96.9472C79.6609 97.54 79.7159 100.867 79.5395 101.635C79.3922 102.28 78.9375 102.353 78.3694 102.404C75.4548 102.67 69.8069 102.647 66.8728 102.404C66.601 102.382 66.1365 102.38 65.9779 102.129C65.7546 101.776 65.7562 98.3937 65.8387 97.7992C65.973 96.8273 66.7013 96.526 67.6076 96.5746V92.2058C63.0682 92.3225 65.7238 90.2134 67.19 88.3101C67.4716 87.9456 68.297 86.3825 68.6595 86.3825H71.8136L71.812 86.3841ZM72.2408 82.1968C71.7294 82.3668 71.9414 83.2221 72.5483 83.3128C73.7799 83.4959 73.3219 81.8388 72.2408 82.1968ZM74.7233 92.2075H70.6808V96.4142H74.7233V92.2075Z" fill="#FF2727"/>
<path d="M144.584 86.3838L143.401 85.8687C140.295 84.1695 141.402 79.2613 144.982 79.0977C148.751 78.9244 150.421 83.3466 147.485 85.6452L146.04 86.3838H149.194L149.605 86.6657C150.023 87.853 152.827 90.3509 152.952 91.3455C153.07 92.2866 150.885 92.2007 150.245 92.2072L150.238 96.3071C150.321 96.6505 151.827 96.4253 152.015 97.637C152.107 98.2331 152.136 101.703 151.876 102.13C151.725 102.378 151.245 102.383 150.979 102.406C148.086 102.646 142.52 102.668 139.644 102.406C139.076 102.354 138.622 102.279 138.474 101.636C138.348 101.084 138.361 98.8859 138.436 98.2703C138.562 97.2191 139.11 96.5468 140.211 96.5695L140.219 92.2072C138.897 91.9513 136.754 92.5279 137.889 90.6036C138.274 89.9524 140.219 87.3476 140.727 86.8115C140.84 86.6932 141.143 86.3838 141.269 86.3838H144.584ZM145.014 82.1997C144.652 82.3229 144.525 82.9011 144.82 83.1474C145.964 84.1079 146.437 81.717 145.014 82.1997ZM147.17 92.2072H143.289V96.414H147.17V92.2072Z" fill="#FF2727"/>
<path d="M28.2727 105.273C27.949 105.596 23.8676 105.613 23.6087 105.204C23.3675 104.823 23.3983 101.661 23.4986 101.063C24.0197 97.9435 28.1691 98.073 28.4798 101.666C28.53 102.241 28.5624 104.985 28.2743 105.273H28.2727Z" fill="#FF2727"/>
<path d="M49.2109 105.273C48.9244 104.986 48.952 102.088 49.0037 101.504C49.2821 98.3806 53.0091 97.8574 53.8523 100.874C54.0804 101.692 54.3183 104.967 53.5027 105.356C53.056 105.568 49.5119 105.573 49.2109 105.273Z" fill="#FF2727"/>
<path d="M47.3538 105.277C46.1255 105.299 44.8049 105.583 43.5863 105.479C42.6817 105.401 42.6105 105.327 42.536 104.428C42.3758 102.508 42.3353 99.3253 44.7661 98.8749C46.0462 98.6384 47.4056 99.9278 47.5593 101.182C47.6305 101.768 47.6321 104.979 47.3538 105.277Z" fill="#FF2727"/>
<path d="M21.8044 105.273C21.4823 105.595 17.5611 105.613 17.3022 105.203C17.0627 104.824 17.0902 101.507 17.1921 100.901C17.6177 98.3691 21.1328 98.2185 21.8804 100.501C22.0698 101.077 22.141 104.936 21.8044 105.271V105.273Z" fill="#FF2727"/>
<path d="M36.2342 100.701C36.3572 100.088 37.4997 99.0062 38.1309 98.8767C39.3349 98.6288 40.7105 99.6056 41.0083 100.777C41.1539 101.352 41.1944 104.962 40.8853 105.272C40.4775 105.588 36.2342 105.544 36.2342 105.311C36.4203 103.969 35.9834 101.951 36.2342 100.701Z" fill="#FF2727"/>
<path d="M34.5796 105.274C34.2576 105.596 30.3364 105.614 30.0774 105.204C29.8606 104.862 29.8509 101.593 29.9383 101.034C30.3898 98.1495 34.4583 98.3147 34.7835 101.021C34.8547 101.613 34.8564 104.997 34.5796 105.274Z" fill="#FF2727"/>
<path d="M181.254 105.273C180.949 105.579 176.853 105.618 176.589 105.203C176.374 104.861 176.362 101.593 176.45 101.034C176.671 99.6115 178.091 98.5473 179.518 98.9166C182.021 99.5662 181.581 103.329 181.254 105.273Z" fill="#FF2727"/>
<path d="M200.496 105.273C200.173 105.596 196.091 105.613 195.832 105.204C195.604 104.842 195.617 101.786 195.698 101.201C196.122 98.1151 200.326 98.0536 200.697 101.348C200.762 101.928 200.779 104.99 200.496 105.273Z" fill="#FF2727"/>
<path d="M194.027 105.273C193.703 105.595 189.622 105.613 189.363 105.203C188.997 104.625 189.229 101.262 189.499 100.501C190.413 97.9252 193.91 98.5149 194.231 101.181C194.3 101.759 194.302 104.996 194.027 105.273Z" fill="#FF2727"/>
<path d="M174.947 105.273C174.623 105.596 170.541 105.614 170.283 105.204C170.066 104.862 170.056 101.593 170.143 101.034C170.402 99.3755 172.348 98.2561 173.841 99.2556C175.623 100.448 175.262 103.454 174.947 105.272V105.273Z" fill="#FF2727"/>
<path d="M187.559 105.273C187.222 105.61 183.265 105.623 182.987 105.152C182.854 104.927 182.846 101.342 182.919 100.874C183.323 98.2511 187.395 98.1539 187.764 101.183C187.834 101.76 187.835 104.998 187.56 105.273H187.559Z" fill="#FF2727"/>
<path d="M164.025 105.274C163.739 104.987 163.766 102.089 163.818 101.504C164.032 99.1213 166.442 97.7623 168.113 99.8082C169.126 101.049 168.581 103.44 168.597 104.99C168.298 105.591 164.41 105.659 164.025 105.274Z" fill="#FF2727"/>
<path d="M9.99964 99.8485C10.3379 100.187 10.2909 104.703 9.99964 105.434C9.64361 105.79 5.92308 105.716 5.22558 105.434C4.90515 105.113 4.91324 100.161 5.22558 99.8485C5.87453 99.5488 9.67436 99.5213 10.0013 99.8485H9.99964Z" fill="#FF2727"/>
<path d="M5.75165 90.7507C5.37297 90.741 5.18848 90.9694 5.06387 90.315C4.95706 89.7513 4.89718 86.7821 5.29367 86.5326C5.69016 86.2832 9.69875 86.2832 9.99976 86.5845C10.3348 86.9813 10.249 90.7524 10.0386 90.7524C8.61286 90.7281 7.18064 90.7864 5.75327 90.7524L5.75165 90.7507Z" fill="#FF2727"/>
<path d="M9.79417 93.0153C10.3687 93.1951 9.99322 94.1783 10.0224 94.5509C10.0855 95.4046 10.4609 96.3409 9.9997 97.1816C9.69869 97.4829 5.70142 97.4893 5.2936 97.2334C4.88578 96.9775 4.78545 93.4737 5.42792 93.0137H9.79417V93.0153Z" fill="#FF2727"/>
<path d="M212.791 99.8502L212.906 100.207C212.599 101.131 213.134 104.925 212.625 105.435C212.037 105.763 208.046 105.712 207.829 105.457C208.014 103.594 207.32 101.655 207.851 99.8502C208.163 99.5376 212.448 99.5311 212.791 99.8502Z" fill="#FF2727"/>
<path d="M212.626 86.5834C212.977 86.9349 212.909 90.0968 212.626 90.7124C212.268 91.0704 208.53 90.9926 207.852 90.7124C207.501 90.3609 207.569 87.1989 207.852 86.5834C208.171 86.2659 212.315 86.2723 212.626 86.5834Z" fill="#FF2727"/>
<path d="M207.813 93.1777H212.422C213.069 93.1777 212.825 96.4887 212.745 97.0605C212.702 97.1334 212.307 97.3845 212.26 97.3845H208.056C207.416 97.0816 207.598 93.1777 207.813 93.1777Z" fill="#FF2727"/>
<path d="M108.643 73.8014C109.856 73.6232 112.876 75.418 113.247 76.56C113.446 77.1723 113.485 81.473 113.252 81.9784C113.168 82.1631 113.017 82.2927 112.842 82.3866L104.961 82.2603C104.864 82.1874 104.809 82.0853 104.759 81.9768C104.529 81.4876 104.563 76.9844 104.765 76.3964C105.039 75.5978 107.779 73.9261 108.644 73.7981L108.643 73.8014ZM110.136 79.4288C110.247 78.0875 110.238 77.4088 108.924 76.8338L107.9 77.5951L107.874 79.4288H110.138H110.136Z" fill="#FF2727"/>
<path d="M106.217 58.267C106.842 58.1585 107.669 58.4776 107.913 59.0883C108.131 59.6342 108.13 64.0272 107.996 64.7497C107.751 66.065 105.142 66.1752 104.96 64.6315C104.856 63.7535 104.825 60.0942 104.997 59.3248C105.107 58.834 105.744 58.3513 106.217 58.2687V58.267Z" fill="#FF2727"/>
<path d="M112.686 65.4766C112.384 65.7795 110.476 65.7762 110.176 65.4766C110.086 65.3616 110.044 65.2206 110.016 65.0797C109.848 64.2017 109.845 60.2039 109.987 59.2984C110.217 57.8454 112.56 58.0107 112.853 59.3227C113.047 60.1926 112.979 63.617 112.894 64.6342C112.869 64.9291 112.869 65.2271 112.686 65.4782V65.4766Z" fill="#FF2727"/>
</svg>
